<?xml version="1.0" encoding="UTF-8"?>
<svg xmlns="http://www.w3.org/2000/svg"
     viewBox="12243.4 -4605.6 3205.3 2251.0"
     pointer-events="none">
  <globalCoordinateSystem srsName="http://purl.org/crs/84" transform="matrix(100,0,0,-100,0,0)" />

  <g id="hazard-flood" fill="#3b82f6" fill-opacity="0.28" stroke="#1d4ed8" stroke-opacity="0.70" stroke-width="0.10" pointer-events="none">
    <path d="M 13608.27 -3510.73 L 13608.11 -3510.79 L 13608.45 -3510.85 L 13608.46 -3510.76 L 13608.27 -3510.74 L 13608.27 -3510.73 Z M 13608.38 -3511.23 L 13608.47 -3511.17 L 13608.34 -3511.12 L 13608.37 -3511.22 L 13608.38 -3511.23 Z M 13608.52 -3511.11 L 13608.86 -3511.30 L 13608.91 -3511.21 L 13608.73 -3511.16 L 13608.74 -3511.06 L 13608.63 -3511.16 L 13608.53 -3511.11 L 13608.52 -3511.11 Z M 13609.07 -3511.30 L 13609.06 -3511.40 L 13609.08 -3511.30 L 13609.07 -3511.30 Z M 13609.16 -3511.45 L 13609.11 -3511.35 L 13609.15 -3511.45 L 13609.16 -3511.45 Z M 13608.96 -3511.45 L 13608.99 -3511.38 L 13608.95 -3511.45 L 13608.96 -3511.45 Z M 13610.56 -3511.44 L 13610.48 -3511.48 L 13610.56 -3511.45 L 13610.56 -3511.44 Z M 13609.37 -3511.51 L 13609.22 -3511.46 L 13609.37 -3511.52 L 13609.37 -3511.51 Z M 13608.77 -3511.66 L 13608.86 -3511.67 L 13608.77 -3511.65 L 13608.77 -3511.66 Z M 13610.64 -3511.65 L 13610.78 -3511.47 L 13610.71 -3511.37 L 13610.92 -3511.28 L 13610.79 -3511.19 L 13610.63 -3511.38 L 13610.37 -3511.28 L 13610.32 -3511.38 L 13610.41 -3511.45 L 13610.61 -3511.43 L 13610.46 -3511.68 L 13610.63 -3511.63 L 13610.64 -3511.65 Z M 13609.60 -3511.70 L 13609.45 -3511.58 L 13609.39 -3511.65 L 13609.59 -3511.70 L 13609.60 -3511.70 Z M 13610.58 -3511.72 L 13610.69 -3511.80 L 13610.78 -3511.67 L 13610.59 -3511.72 L 13610.58 -3511.72 Z M 13611.17 -3511.80 L 13611.21 -3511.70 L 13611.09 -3511.75 L 13611.16 -3511.80 L 13611.17 -3511.80 Z M 13611.36 -3511.65 L 13611.25 -3511.68 L 13611.42 -3511.80 L 13611.53 -3511.74 L 13611.37 -3511.65 L 13611.36 -3511.65 Z M 13610.34 -3511.82 L 13610.41 -3511.71 L 13610.32 -3511.82 L 13610.34 -3511.82 Z M 13609.27 -3512.00 L 13609.31 -3511.92 L 13609.26 -3511.99 L 13609.27 -3512.00 Z M 13610.61 -3512.00 L 13610.71 -3511.85 L 13610.61 -3512.00 L 13610.61 -3512.00 Z M 13608.41 -3512.01 L 13608.49 -3511.93 L 13608.42 -3512.01 L 13608.41 -3512.01 Z M 13611.21 -3512.03 L 13611.27 -3511.95 L 13611.06 -3511.78 L 13611.16 -3511.71 L 13611.03 -3511.42 L 13611.22 -3511.21 L 13611.21 -3511.30 L 13611.55 -3511.23 L 13611.40 -3511.04 L 13610.94 -3511.27 L 13610.98 -3511.60 L 13610.90 -3511.83 L 13610.72 -3511.93 L 13610.82 -3512.00 L 13610.94 -3511.85 L 13611.21 -3512.05 L 13611.21 -3512.03 Z M 13610.46 -3512.17 L 13610.53 -3512.01 L 13610.36 -3512.11 L 13610.44 -3512.17 L 13610.46 -3512.17 Z M 13609.68 -3512.22 L 13609.72 -3512.10 L 13609.67 -3512.22 L 13609.68 -3512.22 Z M 13606.99 -3512.23 L 13606.73 -3512.05 L 13606.84 -3512.27 L 13606.97 -3512.22 L 13606.99 -3512.23 Z M 13607.11 -3512.28 L 13606.94 -3512.15 L 13607.09 -3512.28 L 13607.11 -3512.28 Z M 13607.38 -3512.22 L 13607.51 -3512.23 L 13607.66 -3511.97 L 13608.07 -3512.18 L 13607.91 -3511.99 L 13608.27 -3512.08 L 13608.07 -3511.86 L 13608.23 -3511.91 L 13608.19 -3511.78 L 13608.41 -3511.90 L 13608.24 -3511.68 L 13608.45 -3511.79 L 13608.35 -3511.62 L 13608.54 -3511.70 L 13608.31 -3511.49 L 13608.66 -3511.56 L 13608.45 -3511.90 L 13608.70 -3511.90 L 13608.84 -3511.70 L 13608.61 -3511.75 L 13608.94 -3511.36 L 13608.84 -3511.32 L 13608.66 -3511.55 L 13608.57 -3511.42 L 13608.80 -3511.35 L 13608.44 -3511.22 L 13608.36 -3511.27 L 13608.46 -3511.33 L 13608.31 -3511.36 L 13608.28 -3511.17 L 13608.07 -3511.18 L 13608.38 -3511.03 L 13607.95 -3510.93 L 13608.14 -3511.05 L 13607.74 -3511.04 L 13607.85 -3511.11 L 13607.76 -3511.28 L 13607.87 -3511.36 L 13607.67 -3511.65 L 13607.86 -3511.72 L 13607.47 -3511.62 L 13607.59 -3511.70 L 13607.48 -3511.86 L 13607.54 -3511.81 L 13607.59 -3511.91 L 13607.37 -3512.14 L 13607.39 -3511.98 L 13607.25 -3512.04 L 13607.29 -3511.87 L 13607.16 -3511.76 L 13607.31 -3511.70 L 13607.29 -3511.60 L 13607.13 -3511.67 L 13607.17 -3511.60 L 13607.00 -3511.60 L 13606.71 -3511.39 L 13606.90 -3511.09 L 13607.22 -3510.94 L 13606.96 -3510.87 L 13606.98 -3511.02 L 13606.87 -3510.84 L 13606.70 -3510.81 L 13606.45 -3510.95 L 13606.59 -3511.07 L 13606.51 -3511.00 L 13606.37 -3511.17 L 13606.36 -3511.04 L 13606.26 -3511.06 L 13606.26 -3511.22 L 13606.59 -3511.33 L 13606.54 -3511.42 L 13606.77 -3511.21 L 13606.64 -3511.15 L 13606.64 -3511.02 L 13606.85 -3511.11 L 13606.64 -3511.10 L 13606.82 -3511.22 L 13606.62 -3511.36 L 13607.01 -3511.61 L 13606.94 -3511.70 L 13607.03 -3511.64 L 13607.14 -3511.75 L 13607.11 -3511.83 L 13607.01 -3511.74 L 13607.02 -3511.89 L 13607.10 -3511.86 L 13606.97 -3512.11 L 13607.14 -3512.04 L 13607.06 -3512.17 L 13607.14 -3512.10 L 13607.19 -3512.22 L 13607.35 -3512.21 L 13607.27 -3512.32 L 13607.37 -3512.24 L 13607.38 -3512.22 Z M 13609.35 -3512.32 L 13609.44 -3512.20 L 13609.30 -3512.03 L 13609.18 -3511.98 L 13609.05 -3512.11 L 13608.74 -3511.88 L 13608.93 -3512.05 L 13608.76 -3512.15 L 13608.82 -3512.28 L 13608.88 -3512.13 L 13608.97 -3512.19 L 13608.84 -3512.30 L 13609.06 -3512.22 L 13609.02 -3512.13 L 13609.26 -3512.15 L 13609.21 -3512.27 L 13609.32 -3512.34 L 13609.35 -3512.32 Z M 13611.54 -3512.33 L 13611.66 -3512.28 L 13611.29 -3512.13 L 13611.31 -3512.28 L 13611.56 -3512.34 L 13611.54 -3512.33 Z M 13611.46 -3512.37 L 13611.53 -3512.38 L 13611.46 -3512.36 L 13611.46 -3512.37 Z M 13608.64 -3512.41 L 13608.77 -3512.32 L 13608.67 -3512.30 L 13608.64 -3512.42 L 13608.64 -3512.41 Z M 13610.35 -3512.28 L 13610.37 -3512.15 L 13610.24 -3512.31 L 13610.49 -3512.47 L 13610.36 -3512.28 L 13610.35 -3512.28 Z M 13608.81 -3512.49 L 13608.95 -3512.47 L 13608.84 -3512.38 L 13608.69 -3512.49 L 13608.79 -3512.49 L 13608.81 -3512.49 Z M 13607.96 -3512.47 L 13607.86 -3512.44 L 13607.96 -3512.48 L 13607.96 -3512.47 Z M 13609.51 -3512.55 L 13609.53 -3512.47 L 13609.49 -3512.55 L 13609.51 -3512.55 Z M 13608.27 -3512.48 L 13608.51 -3512.45 L 13608.63 -3512.29 L 13608.38 -3512.12 L 13608.62 -3512.08 L 13608.53 -3511.93 L 13608.06 -3512.35 L 13608.17 -3512.24 L 13608.26 -3512.43 L 13608.16 -3512.57 L 13608.25 -3512.47 L 13608.27 -3512.48 Z M 13608.69 -3512.57 L 13608.62 -3512.59 L 13608.69 -3512.57 L 13608.69 -3512.57 Z M 13607.91 -3512.53 L 13607.77 -3512.56 L 13607.84 -3512.63 L 13607.91 -3512.54 L 13607.91 -3512.53 Z M 13609.09 -3512.51 L 13609.31 -3512.64 L 13609.10 -3512.51 L 13609.09 -3512.51 Z M 13608.52 -3512.65 L 13608.62 -3512.60 L 13608.52 -3512.65 L 13608.52 -3512.65 Z M 13606.72 -3512.68 L 13606.64 -3512.58 L 13606.72 -3512.69 L 13606.72 -3512.68 Z M 13607.91 -3512.71 L 13607.76 -3512.62 L 13607.81 -3512.75 L 13607.91 -3512.70 L 13607.91 -3512.71 Z M 13609.43 -3512.75 L 13609.33 -3512.70 L 13609.42 -3512.75 L 13609.43 -3512.75 Z M 13607.26 -3512.70 L 13607.20 -3512.65 L 13607.36 -3512.48 L 13607.65 -3512.58 L 13607.55 -3512.72 L 13607.71 -3512.73 L 13607.64 -3512.62 L 13607.76 -3512.62 L 13607.37 -3512.46 L 13607.12 -3512.49 L 13607.18 -3512.41 L 13606.94 -3512.33 L 13606.81 -3512.57 L 13606.95 -3512.70 L 13607.06 -3512.60 L 13607.17 -3512.67 L 13607.11 -3512.75 L 13607.24 -3512.70 L 13607.26 -3512.70 Z M 13609.58 -3512.74 L 13609.39 -3512.64 L 13609.57 -3512.74 L 13609.58 -3512.74 Z M 13606.58 -3512.62 L 13606.61 -3512.78 L 13606.49 -3512.73 L 13606.72 -3512.77 L 13606.57 -3512.60 L 13606.58 -3512.62 Z M 13609.29 -3512.76 L 13609.32 -3512.65 L 13609.19 -3512.79 L 13609.29 -3512.84 L 13609.30 -3512.77 L 13609.29 -3512.76 Z M 13606.49 -3512.81 L 13606.62 -3512.85 L 13606.49 -3512.80 L 13606.49 -3512.81 Z M 13607.53 -3512.74 L 13607.39 -3512.78 L 13607.42 -3512.87 L 13607.53 -3512.75 L 13607.53 -3512.74 Z M 13609.88 -3512.92 L 13609.92 -3512.85 L 13609.78 -3512.78 L 13609.68 -3512.82 L 13609.87 -3512.92 L 13609.88 -3512.92 Z M 13610.88 -3512.80 L 13610.72 -3512.66 L 13610.82 -3512.91 L 13610.87 -3512.81 L 13610.88 -3512.80 Z M 13609.46 -3512.93 L 13609.53 -3512.88 L 13609.46 -3512.92 L 13609.46 -3512.93 Z M 13609.70 -3512.87 L 13609.61 -3512.90 L 13609.68 -3512.95 L 13609.71 -3512.87 L 13609.70 -3512.87 Z M 13606.92 -3512.96 L 13607.02 -3512.84 L 13606.87 -3512.76 L 13606.97 -3512.86 L 13606.80 -3512.92 L 13606.90 -3512.96 L 13606.92 -3512.96 Z M 13611.24 -3512.86 L 13611.19 -3512.74 L 13611.06 -3512.87 L 13610.93 -3512.74 L 13611.09 -3512.67 L 13611.03 -3512.58 L 13611.18 -3512.43 L 13611.44 -3512.37 L 13611.02 -3512.33 L 13611.01 -3512.46 L 13610.92 -3512.43 L 13611.01 -3512.53 L 13610.89 -3512.80 L 13610.99 -3512.78 L 13611.13 -3512.97 L 13611.24 -3512.87 L 13611.24 -3512.86 Z M 13609.85 -3513.03 L 13609.81 -3512.93 L 13609.84 -3513.03 L 13609.85 -3513.03 Z M 13611.34 -3513.04 L 13611.28 -3512.90 L 13611.19 -3512.99 L 13611.32 -3513.04 L 13611.34 -3513.04 Z M 13611.06 -3512.93 L 13611.00 -3513.00 L 13611.12 -3513.05 L 13611.06 -3512.94 L 13611.06 -3512.93 Z M 13607.86 -3513.10 L 13608.13 -3512.87 L 13607.99 -3512.73 L 13607.73 -3512.92 L 13607.71 -3513.05 L 13607.84 -3513.11 L 13607.86 -3513.10 Z M 13610.97 -3513.06 L 13610.83 -3513.07 L 13610.93 -3513.17 L 13611.05 -3513.07 L 13610.97 -3513.05 L 13610.97 -3513.06 Z M 13609.98 -3513.02 L 13610.04 -3513.19 L 13609.99 -3513.02 L 13609.98 -3513.02 Z M 13606.99 -3513.17 L 13606.80 -3513.16 L 13606.99 -3513.17 L 13606.99 -3513.17 Z M 13609.42 -3513.26 L 13609.47 -3513.18 L 13609.42 -3513.25 L 13609.42 -3513.26 Z M 13610.16 -3513.25 L 13610.09 -3513.20 L 13610.16 -3513.26 L 13610.16 -3513.25 Z M 13610.29 -3513.27 L 13610.17 -3513.21 L 13610.33 -3513.20 L 13610.14 -3513.20 L 13610.29 -3513.28 L 13610.29 -3513.27 Z M 13609.92 -3513.22 L 13609.94 -3513.12 L 13609.82 -3513.19 L 13609.84 -3513.28 L 13609.92 -3513.23 L 13609.92 -3513.22 Z M 13608.22 -3513.29 L 13608.14 -3513.38 L 13608.21 -3513.29 L 13608.22 -3513.29 Z M 13607.60 -3513.33 L 13607.53 -3513.40 L 13607.61 -3513.33 L 13607.60 -3513.33 Z M 13606.29 -3513.34 L 13606.27 -3513.42 L 13606.30 -3513.34 L 13606.29 -3513.34 Z M 13610.79 -3513.34 L 13610.69 -3513.32 L 13610.76 -3513.23 L 13610.86 -3513.37 L 13610.97 -3513.22 L 13610.74 -3513.12 L 13610.87 -3512.92 L 13610.47 -3513.31 L 13610.62 -3513.24 L 13610.60 -3513.32 L 13610.80 -3513.37 L 13610.84 -3513.48 L 13610.90 -3513.42 L 13610.81 -3513.35 L 13610.79 -3513.34 Z M 13609.78 -3513.54 L 13609.54 -3513.52 L 13609.79 -3513.54 L 13609.78 -3513.54 Z M 13607.44 -3513.47 L 13607.34 -3513.56 L 13607.44 -3513.48 L 13607.44 -3513.47 Z M 13606.26 -3513.45 L 13606.12 -3513.56 L 13606.26 -3513.46 L 13606.26 -3513.45 Z M 13610.37 -3513.58 L 13610.41 -3513.49 L 13610.29 -3513.50 L 13610.37 -3513.59 L 13610.37 -3513.58 Z M 13605.93 -3513.36 L 13606.16 -3513.44 L 13605.93 -3513.35 L 13605.93 -3513.24 L 13605.86 -3513.39 L 13605.79 -3513.24 L 13605.54 -3513.34 L 13605.57 -3513.47 L 13605.75 -3513.42 L 13605.82 -3513.60 L 13605.84 -3513.47 L 13605.99 -3513.44 L 13605.92 -3513.38 L 13605.93 -3513.36 Z M 13607.95 -3513.48 L 13608.09 -3513.42 L 13607.97 -3513.35 L 13607.88 -3513.45 L 13607.94 -3513.32 L 13607.81 -3513.55 L 13607.68 -3513.52 L 13607.84 -3513.60 L 13607.93 -3513.48 L 13607.95 -3513.48 Z M 13610.41 -3513.57 L 13610.57 -3513.60 L 13610.41 -3513.56 L 13610.41 -3513.57 Z M 13606.99 -3513.42 L 13606.76 -3513.54 L 13606.94 -3513.59 L 13606.99 -3513.43 L 13606.99 -3513.42 Z M 13605.97 -3513.66 L 13606.07 -3513.60 L 13605.94 -3513.53 L 13605.87 -3513.62 L 13605.96 -3513.66 L 13605.97 -3513.66 Z M 13608.14 -3513.54 L 13608.05 -3513.67 L 13608.16 -3513.54 L 13608.14 -3513.54 Z M 13608.70 -3513.72 L 13608.72 -3513.59 L 13608.69 -3513.72 L 13608.70 -3513.72 Z M 13608.58 -3513.84 L 13608.63 -3513.77 L 13608.57 -3513.84 L 13608.58 -3513.84 Z M 13611.50 -3513.77 L 13611.41 -3513.79 L 13611.49 -3513.85 L 13611.50 -3513.76 L 13611.50 -3513.77 Z M 13607.77 -3513.79 L 13607.54 -3513.80 L 13607.58 -3513.88 L 13607.82 -3513.92 L 13607.78 -3513.80 L 13607.77 -3513.79 Z M 13608.16 -3513.90 L 13608.06 -3513.85 L 13608.16 -3513.90 L 13608.16 -3513.90 Z M 13608.05 -3513.98 L 13608.08 -3513.89 L 13607.92 -3513.94 L 13608.04 -3513.98 L 13608.05 -3513.98 Z M 13609.20 -3513.47 L 13609.32 -3513.30 L 13609.39 -3513.34 L 13609.31 -3513.44 L 13609.40 -3513.50 L 13609.42 -3513.38 L 13609.51 -3513.48 L 13609.41 -3513.52 L 13609.49 -3513.52 L 13609.71 -3513.41 L 13609.70 -3513.28 L 13609.39 -3513.32 L 13609.29 -3513.13 L 13609.19 -3513.22 L 13609.17 -3513.12 L 13609.36 -3513.05 L 13609.27 -3513.10 L 13609.05 -3512.88 L 13608.74 -3512.93 L 13608.81 -3512.81 L 13608.62 -3512.97 L 13608.48 -3512.87 L 13608.31 -3513.07 L 13608.17 -3512.90 L 13608.11 -3513.11 L 13608.01 -3513.04 L 13607.90 -3513.12 L 13607.99 -3513.18 L 13607.79 -3513.21 L 13607.96 -3513.32 L 13608.14 -3513.12 L 13608.00 -3513.31 L 13608.07 -3513.35 L 13608.22 -3513.06 L 13608.23 -3513.15 L 13608.37 -3513.10 L 13608.33 -3513.27 L 13608.52 -3513.44 L 13608.41 -3513.56 L 13608.46 -3513.64 L 13608.63 -3513.65 L 13608.72 -3513.56 L 13608.57 -3513.55 L 13608.65 -3513.47 L 13608.99 -3513.52 L 13608.73 -3513.71 L 13608.81 -3513.76 L 13608.71 -3514.00 L 13608.76 -3513.91 L 13608.93 -3513.95 L 13608.91 -3513.75 L 13609.18 -3513.50 L 13609.20 -3513.47 Z M 13608.62 -3514.06 L 13608.30 -3513.90 L 13608.22 -3513.94 L 13608.61 -3514.06 L 13608.62 -3514.06 Z M 13608.96 -3513.97 L 13608.79 -3514.02 L 13608.85 -3514.08 L 13608.94 -3513.97 L 13608.96 -3513.97 Z M 13607.71 -3513.97 L 13607.56 -3513.95 L 13607.47 -3514.12 L 13607.58 -3514.17 L 13607.67 -3514.07 L 13607.70 -3514.19 L 13607.71 -3513.98 L 13607.71 -3513.97 Z M 13607.62 -3514.27 L 13607.64 -3514.19 L 13607.61 -3514.27 L 13607.62 -3514.27 Z M 13611.22 -3514.35 L 13611.32 -3514.35 L 13611.32 -3514.27 L 13611.22 -3514.35 L 13611.22 -3514.35 Z M 13611.06 -3514.43 L 13611.21 -3514.23 L 13611.04 -3514.11 L 13610.97 -3514.18 L 13611.10 -3514.30 L 13610.94 -3514.23 L 13610.81 -3514.36 L 13611.06 -3514.42 L 13611.06 -3514.43 Z M 13607.51 -3514.58 L 13607.59 -3514.43 L 13607.47 -3514.31 L 13607.61 -3514.19 L 13607.35 -3514.25 L 13607.34 -3514.52 L 13607.49 -3514.37 L 13607.42 -3514.40 L 13607.51 -3514.59 L 13607.51 -3514.58 Z M 13609.50 -3514.65 L 13609.47 -3514.54 L 13609.49 -3514.65 L 13609.50 -3514.65 Z M 13611.44 -3514.59 L 13611.22 -3514.36 L 13611.09 -3514.50 L 13611.36 -3514.66 L 13611.44 -3514.60 L 13611.44 -3514.59 Z M 13611.43 -3514.69 L 13611.45 -3514.60 L 13611.42 -3514.69 L 13611.43 -3514.69 Z M 13610.14 -3514.67 L 13610.08 -3514.55 L 13610.24 -3514.50 L 13610.04 -3514.36 L 13610.22 -3514.28 L 13610.13 -3514.23 L 13610.24 -3513.93 L 13610.10 -3513.95 L 13610.04 -3513.85 L 13610.32 -3513.57 L 13609.90 -3513.66 L 13609.79 -3513.55 L 13609.78 -3513.81 L 13609.90 -3513.86 L 13609.94 -3514.04 L 13609.49 -3514.52 L 13609.72 -3514.65 L 13609.57 -3514.52 L 13609.73 -3514.40 L 13609.74 -3514.54 L 13610.12 -3514.69 L 13610.14 -3514.67 Z M 13611.02 -3514.81 L 13611.00 -3514.71 L 13611.01 -3514.81 L 13611.02 -3514.81 Z M 13609.34 -3514.85 L 13609.42 -3514.76 L 13609.34 -3514.84 L 13609.34 -3514.85 Z M 13610.79 -3514.82 L 13610.56 -3514.68 L 13610.75 -3514.56 L 13610.67 -3514.54 L 13610.89 -3514.25 L 13610.84 -3514.16 L 13611.03 -3514.06 L 13610.91 -3513.98 L 13611.05 -3513.89 L 13610.99 -3513.79 L 13611.44 -3513.83 L 13611.21 -3513.59 L 13611.28 -3513.50 L 13611.09 -3513.46 L 13611.12 -3513.36 L 13610.91 -3513.51 L 13611.21 -3513.60 L 13611.25 -3513.78 L 13610.99 -3513.72 L 13610.87 -3513.80 L 13610.85 -3513.67 L 13610.69 -3513.61 L 13610.61 -3513.68 L 13610.61 -3513.60 L 13610.39 -3513.92 L 13610.64 -3514.06 L 13610.64 -3513.95 L 13610.84 -3513.95 L 13610.66 -3514.07 L 13610.72 -3514.30 L 13610.52 -3514.22 L 13610.67 -3514.41 L 13610.46 -3514.40 L 13610.59 -3514.60 L 13610.26 -3514.53 L 13610.52 -3514.69 L 13610.42 -3514.85 L 13610.55 -3514.70 L 13610.76 -3514.80 L 13610.79 -3514.82 Z M 13611.50 -3514.78 L 13611.39 -3514.69 L 13611.28 -3514.81 L 13611.37 -3514.67 L 13611.06 -3514.55 L 13611.00 -3514.69 L 13611.26 -3514.73 L 13611.19 -3514.80 L 13611.39 -3514.90 L 13611.51 -3514.78 L 13611.50 -3514.78 Z M 13610.44 -3514.85 L 13610.52 -3514.93 L 13610.45 -3514.85 L 13610.44 -3514.85 Z M 13611.19 -3514.90 L 13611.24 -3514.83 L 13611.03 -3514.80 L 13611.01 -3514.92 L 13611.18 -3514.92 L 13611.19 -3514.90 Z M 13606.62 -3514.99 L 13606.71 -3514.99 L 13606.62 -3514.98 L 13606.62 -3514.99 Z M 13606.71 -3514.89 L 13606.82 -3514.99 L 13606.70 -3514.89 L 13606.71 -3514.89 Z M 13610.17 -3515.18 L 13610.25 -3515.21 L 13610.17 -3515.18 L 13610.17 -3515.18 Z M 13611.40 -3515.02 L 13611.44 -3514.94 L 13611.26 -3514.84 L 13611.19 -3515.01 L 13611.57 -3515.21 L 13611.80 -3515.11 L 13611.52 -3514.96 L 13611.41 -3515.02 L 13611.40 -3515.02 Z M 13611.14 -3515.07 L 13611.03 -3515.12 L 13611.14 -3515.22 L 13611.31 -3515.13 L 13611.14 -3515.08 L 13611.14 -3515.07 Z M 13610.33 -3515.02 L 13610.29 -3515.23 L 13610.47 -3515.00 L 13610.34 -3515.02 L 13610.33 -3515.02 Z M 13609.28 -3515.27 L 13609.27 -3515.18 L 13609.29 -3515.27 L 13609.28 -3515.27 Z M 13609.82 -3515.23 L 13609.74 -3515.27 L 13609.82 -3515.24 L 13609.82 -3515.23 Z M 13610.13 -3515.50 L 13610.31 -3515.50 L 13610.14 -3515.49 L 13610.13 -3515.50 Z M 13609.82 -3515.56 L 13609.59 -3515.46 L 13609.82 -3515.57 L 13609.82 -3515.56 Z M 13609.16 -3515.73 L 13609.29 -3515.61 L 13609.21 -3515.47 L 13609.17 -3515.73 L 13609.16 -3515.73 Z M 13609.69 -3515.95 L 13609.88 -3515.69 L 13609.77 -3515.64 L 13609.58 -3515.68 L 13609.74 -3515.72 L 13609.56 -3516.08 L 13609.71 -3516.10 L 13609.62 -3516.08 L 13609.68 -3515.95 L 13609.69 -3515.95 Z M 13609.26 -3516.00 L 13609.10 -3516.02 L 13609.16 -3516.14 L 13609.26 -3516.01 L 13609.26 -3516.00 Z M 13609.20 -3516.19 L 13609.31 -3516.16 L 13609.24 -3516.10 L 13609.20 -3516.20 L 13609.20 -3516.19 Z M 13610.06 -3516.14 L 13610.00 -3515.89 L 13610.14 -3515.82 L 13610.22 -3515.89 L 13610.11 -3516.16 L 13610.37 -3515.69 L 13609.89 -3515.71 L 13609.79 -3515.99 L 13609.87 -3516.06 L 13609.69 -3516.13 L 13610.05 -3516.15 L 13610.06 -3516.14 Z M 13608.02 -3511.39 L 13607.96 -3511.31 L 13608.01 -3511.39 L 13608.02 -3511.39 Z M 13608.05 -3511.43 L 13608.09 -3511.35 L 13608.04 -3511.42 L 13608.05 -3511.43 Z M 13607.84 -3511.56 L 13607.86 -3511.46 L 13607.82 -3511.56 L 13607.84 -3511.56 Z M 13608.17 -3511.58 L 13608.04 -3511.45 L 13608.16 -3511.58 L 13608.17 -3511.58 Z M 13608.54 -3511.72 L 13608.67 -3511.57 L 13608.31 -3511.48 L 13608.54 -3511.70 L 13608.54 -3511.72 Z M 13607.82 -3511.71 L 13607.71 -3511.62 L 13607.67 -3511.71 L 13607.81 -3511.70 L 13607.82 -3511.71 Z M 13608.54 -3511.72 L 13608.34 -3511.62 L 13608.46 -3511.79 L 13608.25 -3511.68 L 13608.42 -3511.89 L 13608.54 -3511.73 L 13608.54 -3511.72 Z M 13607.48 -3511.88 L 13607.46 -3511.96 L 13607.60 -3511.92 L 13607.55 -3511.80 L 13607.49 -3511.87 L 13607.48 -3511.88 Z M 13607.21 -3511.99 L 13607.19 -3511.90 L 13607.07 -3511.95 L 13607.20 -3511.99 L 13607.21 -3511.99 Z M 13611.21 -3512.03 L 13611.28 -3511.95 L 13611.21 -3512.03 L 13611.21 -3512.03 Z M 13607.84 -3512.04 L 13607.89 -3511.97 L 13607.83 -3512.03 L 13607.84 -3512.04 Z M 13607.42 -3512.07 L 13607.51 -3512.00 L 13607.41 -3511.96 L 13607.31 -3512.11 L 13607.42 -3512.06 L 13607.42 -3512.07 Z M 13607.05 -3512.18 L 13607.16 -3512.04 L 13607.03 -3512.03 L 13607.04 -3512.18 L 13607.05 -3512.18 Z M 13607.18 -3512.23 L 13607.22 -3512.16 L 13607.12 -3512.11 L 13607.05 -3512.19 L 13607.17 -3512.24 L 13607.18 -3512.23 Z M 13608.34 -3512.11 L 13608.22 -3512.26 L 13608.36 -3512.11 L 13608.34 -3512.11 Z M 13611.39 -3512.23 L 13611.49 -3512.21 L 13611.39 -3512.22 L 13611.39 -3512.23 Z M 13608.46 -3512.28 L 13608.46 -3512.18 L 13608.46 -3512.29 L 13608.46 -3512.28 Z M 13607.04 -3512.26 L 13606.97 -3512.28 L 13607.05 -3512.35 L 13607.05 -3512.26 L 13607.04 -3512.26 Z M 13608.64 -3512.30 L 13608.54 -3512.40 L 13608.64 -3512.31 L 13608.64 -3512.30 Z M 13608.02 -3512.75 L 13608.06 -3512.87 L 13608.14 -3512.81 L 13608.03 -3512.75 L 13608.02 -3512.75 Z M 13611.19 -3512.98 L 13611.21 -3512.86 L 13611.19 -3512.98 L 13611.19 -3512.98 Z M 13609.17 -3513.08 L 13609.26 -3513.10 L 13609.17 -3513.08 L 13609.17 -3513.08 Z M 13608.21 -3513.15 L 13608.22 -3513.05 L 13608.15 -3513.08 L 13608.20 -3513.15 L 13608.21 -3513.15 Z M 13607.97 -3513.20 L 13607.89 -3513.13 L 13607.79 -3513.23 L 13607.97 -3513.20 L 13607.97 -3513.20 Z M 13609.42 -3513.53 L 13609.51 -3513.47 L 13609.36 -3513.37 L 13609.42 -3513.53 L 13609.42 -3513.53 Z M 13610.87 -3513.90 L 13610.82 -3513.82 L 13610.77 -3513.90 L 13610.87 -3513.90 L 13610.87 -3513.90 Z M 13610.46 -3513.92 L 13610.51 -3513.86 L 13610.46 -3513.92 L 13610.46 -3513.92 Z M 13608.08 -3513.89 L 13608.06 -3513.81 L 13607.95 -3513.86 L 13608.13 -3513.53 L 13608.42 -3513.40 L 13608.35 -3513.28 L 13607.89 -3513.46 L 13607.69 -3513.71 L 13607.81 -3513.91 L 13608.08 -3513.90 L 13608.08 -3513.89 Z M 13608.74 -3514.02 L 13608.98 -3513.97 L 13608.74 -3513.90 L 13608.69 -3514.01 L 13608.66 -3513.87 L 13608.99 -3513.52 L 13608.73 -3513.46 L 13608.59 -3513.55 L 13608.71 -3513.54 L 13608.62 -3513.67 L 13608.41 -3513.58 L 13608.36 -3513.86 L 13608.09 -3513.90 L 13608.71 -3514.04 L 13608.74 -3514.02 Z M 13611.01 -3514.46 L 13611.07 -3514.40 L 13611.01 -3514.47 L 13611.01 -3514.46 Z M 13611.42 -3514.06 L 13611.57 -3513.74 L 13611.03 -3514.50 L 13611.41 -3514.06 L 13611.42 -3514.06 Z M 13610.04 -3514.53 L 13609.89 -3514.45 L 13609.86 -3514.54 L 13610.03 -3514.53 L 13610.04 -3514.53 Z M 13610.75 -3514.57 L 13610.90 -3514.64 L 13611.00 -3514.49 L 13610.80 -3514.38 L 13610.75 -3514.56 L 13610.75 -3514.57 Z M 13610.89 -3514.64 L 13610.69 -3514.54 L 13610.56 -3514.69 L 13610.83 -3514.82 L 13610.89 -3514.65 L 13610.89 -3514.64 Z M 13610.30 -3515.23 L 13610.16 -3515.18 L 13609.97 -3515.43 L 13610.39 -3515.49 L 13610.71 -3515.16 L 13610.82 -3514.84 L 13610.55 -3514.70 L 13610.43 -3514.85 L 13610.53 -3514.92 L 13610.30 -3515.22 L 13610.30 -3515.23 Z M 13607.66 -3515.86 L 13607.55 -3515.81 L 13607.66 -3515.87 L 13607.66 -3515.86 Z M 13607.81 -3515.90 L 13607.80 -3515.69 L 13607.72 -3515.80 L 13607.80 -3515.87 L 13607.69 -3515.84 L 13607.81 -3515.89 L 13607.81 -3515.90 Z M 13609.84 -3516.04 L 13609.81 -3515.93 L 13609.97 -3515.68 L 13609.84 -3515.67 L 13609.71 -3515.87 L 13609.80 -3515.93 L 13609.62 -3516.07 L 13609.84 -3516.05 L 13609.84 -3516.04 Z M 13609.94 -3515.43 L 13610.52 -3514.68 L 13610.12 -3514.48 L 13610.14 -3514.70 L 13609.76 -3514.55 L 13609.69 -3514.40 L 13609.59 -3514.56 L 13609.94 -3514.79 L 13609.65 -3514.72 L 13609.66 -3514.63 L 13609.37 -3514.69 L 13609.26 -3515.34 L 13609.33 -3515.37 L 13609.49 -3515.15 L 13609.37 -3515.38 L 13609.57 -3515.45 L 13609.31 -3515.39 L 13609.27 -3515.62 L 13609.19 -3515.63 L 13609.21 -3515.88 L 13609.36 -3516.13 L 13609.59 -3516.08 L 13609.73 -3515.73 L 13609.59 -3515.68 L 13609.80 -3515.59 L 13609.59 -3515.48 L 13609.82 -3515.56 L 13609.91 -3515.45 L 13609.94 -3515.43 Z M 13609.97 -3516.13 L 13610.03 -3515.98 L 13609.90 -3516.03 L 13609.96 -3516.13 L 13609.97 -3516.13 Z M 13609.93 -3516.18 L 13609.86 -3516.15 L 13609.93 -3516.19 L 13609.93 -3516.18 Z M 13608.45 -3516.51 L 13608.43 -3516.28 L 13607.96 -3516.00 L 13608.04 -3515.35 L 13608.24 -3515.09 L 13607.97 -3514.89 L 13607.72 -3514.86 L 13607.79 -3514.67 L 13607.63 -3514.45 L 13607.51 -3514.59 L 13607.47 -3514.37 L 13607.36 -3514.55 L 13607.31 -3514.40 L 13607.36 -3514.25 L 13607.58 -3514.18 L 13607.59 -3514.27 L 13607.67 -3514.17 L 13607.67 -3514.07 L 13607.47 -3514.12 L 13607.56 -3513.96 L 13607.72 -3513.93 L 13607.45 -3513.74 L 13607.68 -3513.71 L 13607.78 -3513.58 L 13607.64 -3513.50 L 13607.79 -3513.55 L 13607.91 -3513.31 L 13607.76 -3513.25 L 13607.17 -3513.74 L 13608.07 -3512.97 L 13608.00 -3513.05 L 13608.12 -3513.11 L 13608.19 -3512.88 L 13608.29 -3512.87 L 13608.19 -3512.97 L 13608.33 -3513.07 L 13608.48 -3512.87 L 13608.62 -3512.96 L 13608.79 -3512.82 L 13608.75 -3512.94 L 13609.06 -3512.89 L 13609.19 -3513.06 L 13609.39 -3513.07 L 13609.20 -3513.12 L 13609.20 -3513.23 L 13609.29 -3513.13 L 13609.39 -3513.32 L 13609.70 -3513.27 L 13609.71 -3513.40 L 13609.54 -3513.51 L 13609.77 -3513.48 L 13609.82 -3513.62 L 13610.01 -3513.58 L 13609.99 -3513.67 L 13610.32 -3513.57 L 13610.06 -3513.82 L 13610.11 -3513.95 L 13610.31 -3513.88 L 13610.12 -3514.23 L 13610.25 -3514.30 L 13610.11 -3514.25 L 13610.17 -3514.32 L 13610.06 -3514.38 L 13610.58 -3514.62 L 13610.58 -3514.48 L 13610.41 -3514.38 L 13610.67 -3514.42 L 13610.49 -3514.20 L 13610.68 -3514.23 L 13610.66 -3514.06 L 13610.84 -3513.96 L 13610.65 -3513.95 L 13610.64 -3514.05 L 13610.44 -3513.96 L 13610.44 -3513.73 L 13610.67 -3513.60 L 13610.86 -3513.69 L 13610.86 -3513.79 L 13611.26 -3513.77 L 13611.19 -3513.58 L 13610.86 -3513.50 L 13610.61 -3513.23 L 13610.49 -3513.32 L 13610.86 -3512.93 L 13610.72 -3512.67 L 13610.89 -3512.78 L 13611.02 -3512.33 L 13611.54 -3512.35 L 13611.16 -3512.17 L 13611.26 -3512.07 L 13610.73 -3511.93 L 13610.99 -3511.60 L 13610.94 -3511.28 L 13611.31 -3511.12 L 13611.06 -3511.00 L 13610.88 -3511.21 L 13610.78 -3511.18 L 13610.89 -3510.89 L 13611.36 -3511.11 L 13611.49 -3510.90 L 13611.21 -3510.81 L 13611.10 -3510.94 L 13611.01 -3510.82 L 13611.11 -3510.77 L 13611.00 -3510.70 L 13610.76 -3510.80 L 13609.45 -3512.30 L 13610.70 -3510.81 L 13611.30 -3510.44 L 13611.46 -3510.50 L 13611.32 -3510.39 L 13610.95 -3510.68 L 13611.20 -3510.51 L 13611.54 -3510.03 L 13612.02 -3509.71 L 13611.92 -3509.63 L 13612.26 -3509.63 L 13612.31 -3509.48 L 13612.87 -3509.25 L 13613.03 -3508.93 L 13613.65 -3508.58 L 13613.56 -3508.52 L 13613.06 -3508.53 L 13612.33 -3509.17 L 13612.70 -3508.98 L 13612.57 -3509.29 L 13612.14 -3509.53 L 13611.91 -3509.35 L 13612.27 -3509.33 L 13612.29 -3509.20 L 13611.87 -3509.27 L 13611.51 -3508.90 L 13610.89 -3509.30 L 13610.60 -3509.11 L 13610.51 -3509.17 L 13610.56 -3509.05 L 13610.39 -3508.96 L 13610.06 -3509.65 L 13610.24 -3509.77 L 13610.19 -3509.83 L 13610.06 -3509.68 L 13609.92 -3509.78 L 13609.10 -3509.76 L 13608.68 -3509.98 L 13609.01 -3509.81 L 13609.12 -3509.89 L 13609.01 -3510.11 L 13608.54 -3509.97 L 13608.45 -3510.00 L 13608.61 -3510.10 L 13608.62 -3510.24 L 13608.37 -3510.14 L 13608.44 -3510.02 L 13608.31 -3510.12 L 13608.36 -3510.19 L 13608.05 -3510.17 L 13608.37 -3510.21 L 13608.57 -3510.43 L 13608.49 -3510.48 L 13608.66 -3510.64 L 13608.49 -3510.72 L 13608.37 -3510.65 L 13608.54 -3510.79 L 13607.83 -3510.34 L 13607.81 -3510.48 L 13607.65 -3510.45 L 13607.72 -3510.43 L 13607.67 -3510.55 L 13607.36 -3510.81 L 13606.82 -3510.82 L 13606.89 -3510.92 L 13607.22 -3510.93 L 13606.84 -3511.21 L 13606.99 -3511.10 L 13607.06 -3511.35 L 13607.29 -3511.15 L 13607.10 -3511.38 L 13607.32 -3511.58 L 13606.87 -3511.26 L 13606.71 -3511.38 L 13607.20 -3511.61 L 13607.11 -3511.66 L 13607.32 -3511.64 L 13607.16 -3511.75 L 13607.29 -3511.85 L 13607.31 -3512.07 L 13607.61 -3511.72 L 13607.41 -3511.60 L 13607.64 -3511.68 L 13607.87 -3511.39 L 13607.76 -3511.29 L 13607.85 -3511.25 L 13607.86 -3511.12 L 13607.72 -3511.04 L 13607.81 -3510.98 L 13607.82 -3511.08 L 13608.03 -3510.90 L 13608.30 -3510.98 L 13608.36 -3511.04 L 13608.07 -3511.19 L 13608.28 -3511.17 L 13608.31 -3511.36 L 13608.44 -3511.22 L 13608.80 -3511.35 L 13608.57 -3511.42 L 13608.66 -3511.55 L 13608.86 -3511.32 L 13608.95 -3511.38 L 13608.62 -3511.75 L 13608.84 -3511.65 L 13608.71 -3511.92 L 13608.58 -3511.86 L 13608.31 -3512.03 L 13608.40 -3511.90 L 13608.19 -3511.78 L 13608.27 -3511.92 L 13608.04 -3511.91 L 13608.29 -3512.08 L 13607.90 -3512.00 L 13608.11 -3512.20 L 13607.66 -3511.96 L 13607.47 -3512.17 L 13607.53 -3512.24 L 13607.39 -3512.21 L 13607.32 -3512.35 L 13607.34 -3512.22 L 13607.17 -3512.25 L 13607.27 -3512.43 L 13607.69 -3512.57 L 13607.96 -3512.47 L 13607.86 -3512.64 L 13608.24 -3512.79 L 13607.25 -3513.67 L 13606.10 -3514.47 L 13606.52 -3514.97 L 13606.59 -3514.93 L 13606.52 -3515.00 L 13606.71 -3515.62 L 13607.94 -3516.16 L 13608.22 -3516.52 L 13608.43 -3516.51 L 13608.45 -3516.51 Z M 13609.60 -3512.20 L 13610.72 -3510.79 L 13609.57 -3512.22 L 13609.60 -3512.20 Z M 13608.82 -3512.55 L 13608.74 -3512.56 L 13608.82 -3512.55 L 13608.82 -3512.55 Z M 13607.84 -3515.89 L 13607.94 -3515.95 L 13607.81 -3515.65 L 13607.06 -3515.32 L 13607.16 -3515.14 L 13606.77 -3514.98 L 13607.01 -3515.10 L 13606.91 -3515.25 L 13606.59 -3515.11 L 13606.88 -3515.28 L 13606.72 -3515.61 L 13607.47 -3515.92 L 13607.72 -3515.84 L 13607.77 -3515.71 L 13607.63 -3515.69 L 13607.70 -3515.62 L 13607.84 -3515.81 L 13607.73 -3516.02 L 13607.83 -3515.89 L 13607.84 -3515.89 Z M 13607.28 -3515.68 L 13607.19 -3515.62 L 13607.28 -3515.69 L 13607.28 -3515.68 Z M 13607.57 -3515.75 L 13607.66 -3515.60 L 13607.44 -3515.50 L 13607.32 -3515.65 L 13607.54 -3515.75 L 13607.57 -3515.75 Z M 13607.74 -3515.76 L 13607.80 -3515.67 L 13607.67 -3515.62 L 13607.62 -3515.70 L 13607.73 -3515.77 L 13607.74 -3515.76 Z M 13607.47 -3515.88 L 13607.55 -3515.77 L 13607.29 -3515.70 L 13607.46 -3515.87 L 13607.47 -3515.88 Z" />
  </g>
  <g id="hazard-tsunami-inundation" fill="#a855f7" fill-opacity="0.28" stroke="#7e22ce" stroke-opacity="0.70" stroke-width="0.10" pointer-events="none">

  </g>
  <g id="hazard-landslide-warning" fill="#f97316" fill-opacity="0.22" stroke="#c2410c" stroke-opacity="0.80" stroke-width="0.10" pointer-events="none">
    <path d="M 13605.46 -3520.28 L 13605.52 -3520.10 L 13605.89 -3520.24 L 13605.51 -3520.10 L 13605.47 -3520.26 L 13605.46 -3520.28 Z M 13605.40 -3519.91 L 13605.24 -3519.88 L 13605.41 -3519.92 L 13605.40 -3519.91 Z M 13616.11 -3514.47 L 13616.17 -3514.47 L 13616.10 -3514.48 L 13616.11 -3514.47 Z M 13604.25 -3514.27 L 13604.17 -3514.28 L 13604.25 -3514.28 L 13604.25 -3514.27 Z M 13605.87 -3520.19 L 13605.52 -3520.06 L 13605.44 -3520.11 L 13605.47 -3520.28 L 13605.51 -3520.11 L 13605.74 -3520.16 L 13605.95 -3520.30 L 13605.87 -3520.20 L 13605.87 -3520.19 Z M 13605.32 -3520.05 L 13605.48 -3520.06 L 13605.50 -3519.95 L 13605.24 -3519.88 L 13605.44 -3519.95 L 13605.45 -3520.04 L 13605.34 -3520.04 L 13605.32 -3520.05 Z M 13616.11 -3514.47 L 13616.18 -3514.45 L 13616.09 -3514.43 L 13616.06 -3514.49 L 13616.10 -3514.48 L 13616.11 -3514.47 Z M 13604.26 -3514.29 L 13604.14 -3514.26 L 13604.25 -3514.29 L 13604.26 -3514.29 Z M 13616.36 -3513.77 L 13616.27 -3513.77 L 13616.34 -3513.80 L 13616.36 -3513.77 Z M 13608.03 -3516.89 L 13607.99 -3516.83 L 13608.02 -3516.90 L 13608.03 -3516.89 Z M 13608.04 -3516.96 L 13607.98 -3516.91 L 13608.04 -3516.96 L 13608.04 -3516.96 Z M 13608.38 -3518.93 L 13608.35 -3518.88 L 13608.31 -3518.90 L 13608.37 -3518.93 L 13608.38 -3518.93 Z M 13606.27 -3520.55 L 13605.98 -3520.41 L 13606.27 -3520.56 L 13606.27 -3520.55 Z M 13608.33 -3518.87 L 13608.30 -3518.83 L 13608.29 -3518.87 L 13608.33 -3518.87 Z M 13608.13 -3517.34 L 13608.07 -3517.30 L 13608.07 -3517.37 L 13608.12 -3517.35 L 13608.13 -3517.34 Z M 13608.37 -3517.55 L 13608.31 -3517.51 L 13608.36 -3517.55 L 13608.37 -3517.55 Z M 13617.43 -3514.12 L 13617.38 -3513.98 L 13617.28 -3513.97 L 13617.15 -3513.87 L 13617.09 -3513.90 L 13617.32 -3513.98 L 13617.41 -3514.13 L 13617.43 -3514.12 Z M 13614.01 -3513.04 L 13613.97 -3513.06 L 13614.01 -3513.05 L 13614.01 -3513.04 Z M 13615.44 -3514.81 L 13615.38 -3514.82 L 13615.44 -3514.82 L 13615.44 -3514.81 Z M 13612.82 -3509.28 L 13612.61 -3509.36 L 13612.51 -3509.34 L 13612.49 -3509.43 L 13612.53 -3509.35 L 13612.61 -3509.39 L 13612.80 -3509.29 L 13612.82 -3509.28 Z M 13612.44 -3509.45 L 13612.36 -3509.43 L 13612.27 -3509.54 L 13612.44 -3509.46 L 13612.44 -3509.45 Z M 13607.36 -3516.32 L 13607.31 -3516.25 L 13607.36 -3516.32 L 13607.36 -3516.32 Z M 13607.55 -3516.54 L 13607.50 -3516.51 L 13607.54 -3516.54 L 13607.55 -3516.54 Z M 13606.96 -3516.06 L 13606.88 -3516.05 L 13606.93 -3516.09 L 13606.96 -3516.06 Z M 13607.20 -3516.14 L 13607.13 -3516.16 L 13607.20 -3516.17 L 13607.20 -3516.14 Z M 13609.40 -3516.22 L 13609.23 -3516.27 L 13609.22 -3516.34 L 13609.39 -3516.23 L 13609.40 -3516.22 Z M 13609.94 -3516.28 L 13609.76 -3516.24 L 13609.68 -3516.14 L 13609.49 -3516.12 L 13609.43 -3516.19 L 13609.60 -3516.15 L 13609.76 -3516.27 L 13609.93 -3516.28 L 13609.94 -3516.28 Z M 13609.78 -3516.25 L 13609.74 -3516.22 L 13609.76 -3516.25 L 13609.78 -3516.25 Z M 13609.01 -3516.35 L 13608.95 -3516.35 L 13609.00 -3516.36 L 13609.01 -3516.35 Z M 13609.09 -3516.22 L 13609.04 -3516.23 L 13609.01 -3516.33 L 13609.05 -3516.36 L 13609.09 -3516.25 L 13609.09 -3516.22 Z M 13609.97 -3516.33 L 13609.95 -3516.29 L 13609.83 -3516.39 L 13609.96 -3516.38 L 13609.97 -3516.33 Z M 13609.10 -3516.00 L 13609.05 -3515.99 L 13609.08 -3516.02 L 13609.10 -3516.00 Z M 13609.14 -3515.82 L 13609.06 -3515.85 L 13609.13 -3515.85 L 13609.14 -3515.82 Z M 13610.10 -3516.64 L 13609.77 -3516.54 L 13610.06 -3516.66 L 13610.02 -3516.76 L 13610.09 -3516.73 L 13610.08 -3516.67 L 13610.10 -3516.64 Z M 13609.54 -3517.02 L 13609.51 -3516.99 L 13609.52 -3517.02 L 13609.54 -3517.02 Z M 13609.51 -3519.51 L 13609.42 -3519.34 L 13609.49 -3519.51 L 13609.51 -3519.51 Z M 13613.77 -3516.18 L 13613.68 -3516.16 L 13613.62 -3516.26 L 13613.56 -3516.26 L 13613.54 -3516.36 L 13613.60 -3516.38 L 13613.59 -3516.29 L 13613.76 -3516.18 L 13613.77 -3516.18 Z M 13613.54 -3515.43 L 13613.53 -3515.33 L 13613.51 -3515.45 L 13613.54 -3515.43 Z M 13614.50 -3515.33 L 13614.43 -3515.31 L 13614.50 -3515.35 L 13614.50 -3515.33 Z M 13613.83 -3516.11 L 13613.78 -3516.12 L 13613.83 -3516.13 L 13613.83 -3516.11 Z M 13615.00 -3513.24 L 13614.96 -3513.16 L 13614.88 -3513.15 L 13614.98 -3513.26 L 13615.00 -3513.24 Z M 13614.78 -3513.09 L 13614.72 -3513.04 L 13614.64 -3513.07 L 13614.77 -3513.10 L 13614.78 -3513.09 Z M 13614.53 -3513.13 L 13614.50 -3513.08 L 13614.42 -3513.13 L 13614.52 -3513.14 L 13614.53 -3513.13 Z M 13608.49 -3513.45 L 13608.46 -3513.42 L 13608.35 -3513.53 L 13608.42 -3513.54 L 13608.48 -3513.47 L 13608.49 -3513.45 Z M 13606.81 -3515.87 L 13606.72 -3515.78 L 13606.80 -3515.90 L 13606.81 -3515.87 Z M 13606.70 -3515.79 L 13606.66 -3515.75 L 13606.49 -3515.78 L 13606.69 -3515.80 L 13606.70 -3515.79 Z M 13606.42 -3516.24 L 13606.31 -3516.23 L 13606.30 -3516.27 L 13606.41 -3516.25 L 13606.42 -3516.24 Z M 13606.18 -3515.91 L 13605.99 -3515.82 L 13606.18 -3515.93 L 13606.18 -3515.91 Z M 13606.27 -3516.01 L 13606.22 -3515.96 L 13606.19 -3516.00 L 13606.25 -3516.02 L 13606.27 -3516.01 Z M 13606.05 -3515.95 L 13605.99 -3515.94 L 13606.03 -3515.99 L 13606.02 -3515.96 L 13606.05 -3515.95 Z M 13606.45 -3516.25 L 13606.33 -3516.24 L 13606.36 -3516.29 L 13606.44 -3516.25 L 13606.45 -3516.25 Z M 13606.30 -3515.96 L 13606.25 -3515.94 L 13606.24 -3515.98 L 13606.29 -3515.97 L 13606.30 -3515.96 Z M 13606.27 -3516.00 L 13606.21 -3515.97 L 13606.26 -3516.01 L 13606.27 -3516.00 Z M 13612.30 -3510.32 L 13612.25 -3510.31 L 13612.29 -3510.33 L 13612.30 -3510.32 Z M 13612.25 -3510.35 L 13612.18 -3510.35 L 13612.22 -3510.40 L 13612.25 -3510.36 L 13612.25 -3510.35 Z M 13614.10 -3513.20 L 13614.01 -3513.04 L 13614.04 -3513.23 L 13613.89 -3513.22 L 13613.87 -3513.26 L 13614.06 -3513.28 L 13614.10 -3513.23 L 13614.10 -3513.20 Z M 13608.32 -3513.97 L 13608.23 -3513.94 L 13608.29 -3513.98 L 13608.32 -3513.97 Z M 13609.01 -3514.10 L 13608.68 -3514.16 L 13608.60 -3514.12 L 13608.60 -3514.17 L 13608.69 -3514.17 L 13608.99 -3514.12 L 13609.01 -3514.10 Z M 13608.21 -3513.56 L 13608.17 -3513.54 L 13608.20 -3513.58 L 13608.13 -3513.63 L 13608.13 -3513.70 L 13608.21 -3513.59 L 13608.21 -3513.56 Z M 13609.09 -3514.13 L 13608.82 -3514.33 L 13608.87 -3514.36 L 13609.08 -3514.17 L 13609.09 -3514.13 Z M 13608.96 -3514.25 L 13608.85 -3514.33 L 13608.95 -3514.26 L 13608.96 -3514.25 Z M 13607.91 -3514.11 L 13607.87 -3514.04 L 13607.87 -3514.12 L 13607.91 -3514.11 Z M 13608.06 -3513.99 L 13607.82 -3513.88 L 13607.67 -3513.94 L 13607.75 -3514.08 L 13607.78 -3513.99 L 13607.70 -3513.96 L 13607.74 -3513.92 L 13608.04 -3514.03 L 13608.06 -3513.99 Z M 13608.98 -3515.26 L 13608.92 -3515.24 L 13608.97 -3515.27 L 13608.98 -3515.26 Z M 13609.25 -3515.42 L 13609.21 -3515.32 L 13609.09 -3515.25 L 13609.04 -3515.27 L 13609.17 -3515.34 L 13609.19 -3515.42 L 13609.25 -3515.42 Z M 13609.10 -3514.60 L 13608.97 -3514.54 L 13608.81 -3514.59 L 13609.04 -3514.61 L 13608.98 -3514.73 L 13609.05 -3514.84 L 13609.08 -3514.80 L 13609.00 -3514.73 L 13609.06 -3514.66 L 13609.10 -3514.60 Z M 13613.49 -3511.23 L 13613.43 -3511.26 L 13613.46 -3511.33 L 13613.49 -3511.23 L 13613.49 -3511.23 Z M 13613.48 -3511.16 L 13613.38 -3511.10 L 13613.39 -3511.19 L 13613.46 -3511.18 L 13613.48 -3511.16 Z M 13613.65 -3511.27 L 13613.52 -3511.27 L 13613.65 -3511.30 L 13613.65 -3511.27 Z M 13613.75 -3511.09 L 13613.66 -3510.85 L 13613.57 -3510.85 L 13613.67 -3511.12 L 13613.71 -3511.11 L 13613.75 -3511.09 Z M 13613.57 -3510.93 L 13613.54 -3510.82 L 13613.45 -3510.80 L 13613.39 -3510.80 L 13613.33 -3510.93 L 13613.35 -3511.02 L 13613.45 -3511.08 L 13613.45 -3510.89 L 13613.49 -3510.90 L 13613.54 -3511.13 L 13613.56 -3510.98 L 13613.57 -3510.93 Z M 13616.15 -3513.77 L 13615.88 -3513.72 L 13616.05 -3514.05 L 13616.13 -3513.81 L 13616.15 -3513.77 Z M 13616.80 -3513.80 L 13616.65 -3513.76 L 13616.66 -3513.88 L 13616.75 -3513.82 L 13616.80 -3513.80 Z M 13615.87 -3513.72 L 13615.79 -3513.70 L 13615.73 -3513.77 L 13615.83 -3514.00 L 13615.86 -3513.75 L 13615.87 -3513.72 Z M 13616.02 -3513.88 L 13616.01 -3513.74 L 13615.88 -3513.72 L 13615.96 -3513.88 L 13615.91 -3514.09 L 13616.02 -3513.91 L 13616.02 -3513.88 Z M 13616.63 -3513.75 L 13616.41 -3513.69 L 13616.32 -3513.94 L 13616.56 -3513.78 L 13616.63 -3513.75 Z M 13617.24 -3513.88 L 13616.99 -3513.69 L 13617.01 -3513.94 L 13616.94 -3514.01 L 13617.11 -3513.90 L 13617.24 -3513.89 L 13617.24 -3513.88 Z M 13607.95 -3516.74 L 13607.74 -3516.53 L 13607.54 -3516.47 L 13607.44 -3516.85 L 13607.87 -3516.72 L 13607.95 -3516.74 Z M 13608.09 -3516.97 L 13608.04 -3516.90 L 13607.99 -3516.98 L 13607.87 -3517.01 L 13608.04 -3517.00 L 13608.09 -3516.97 Z M 13614.13 -3507.82 L 13614.07 -3507.59 L 13613.90 -3507.67 L 13614.13 -3507.82 L 13614.13 -3507.82 Z M 13613.96 -3507.88 L 13613.84 -3507.77 L 13613.76 -3507.90 L 13613.86 -3507.86 L 13613.96 -3507.91 L 13613.96 -3507.88 Z M 13613.81 -3508.00 L 13613.52 -3508.02 L 13613.63 -3508.20 L 13613.81 -3508.01 L 13613.81 -3508.00 Z M 13605.98 -3520.26 L 13605.90 -3520.19 L 13605.84 -3520.28 L 13605.94 -3520.28 L 13605.98 -3520.26 Z M 13606.07 -3520.43 L 13606.02 -3520.35 L 13605.91 -3520.40 L 13606.07 -3520.43 L 13606.07 -3520.43 Z M 13608.12 -3518.76 L 13608.04 -3518.64 L 13608.00 -3518.66 L 13607.97 -3518.81 L 13608.09 -3518.86 L 13608.12 -3518.76 Z M 13608.19 -3518.65 L 13608.05 -3518.68 L 13607.97 -3518.82 L 13608.02 -3518.89 L 13608.14 -3518.86 L 13608.19 -3518.65 Z M 13605.90 -3520.20 L 13605.72 -3520.12 L 13605.76 -3520.24 L 13605.85 -3520.22 L 13605.90 -3520.20 Z M 13606.82 -3517.75 L 13606.49 -3517.59 L 13606.43 -3517.70 L 13606.82 -3517.79 L 13606.82 -3517.75 Z M 13608.28 -3517.18 L 13608.27 -3517.13 L 13608.07 -3517.04 L 13608.10 -3516.97 L 13608.06 -3516.98 L 13607.69 -3517.32 L 13607.78 -3517.36 L 13607.98 -3517.24 L 13608.24 -3517.25 L 13608.28 -3517.18 L 13608.28 -3517.18 Z M 13608.17 -3517.54 L 13608.08 -3517.48 L 13607.99 -3517.67 L 13607.73 -3517.90 L 13607.76 -3517.93 L 13607.93 -3517.74 L 13608.08 -3517.69 L 13608.15 -3517.54 L 13608.17 -3517.54 Z M 13608.64 -3517.62 L 13608.60 -3517.46 L 13608.52 -3517.44 L 13608.42 -3517.55 L 13608.56 -3517.67 L 13608.63 -3517.63 L 13608.64 -3517.62 Z M 13615.47 -3514.78 L 13615.15 -3514.50 L 13614.95 -3514.41 L 13614.90 -3514.68 L 13614.96 -3514.63 L 13615.19 -3514.63 L 13615.32 -3514.76 L 13615.44 -3514.79 L 13615.47 -3514.78 Z M 13607.62 -3516.47 L 13607.37 -3516.32 L 13607.22 -3516.66 L 13607.27 -3516.68 L 13607.41 -3516.53 L 13607.55 -3516.49 L 13607.62 -3516.47 Z M 13607.59 -3516.41 L 13607.34 -3516.25 L 13607.26 -3516.46 L 13607.51 -3516.45 L 13607.59 -3516.41 Z M 13607.19 -3516.16 L 13606.96 -3516.02 L 13606.91 -3516.05 L 13607.00 -3516.20 L 13607.10 -3516.16 L 13607.19 -3516.16 Z M 13609.63 -3517.07 L 13609.52 -3516.95 L 13609.53 -3517.10 L 13609.63 -3517.07 Z M 13609.90 -3517.18 L 13609.66 -3517.07 L 13609.76 -3517.27 L 13609.90 -3517.18 Z M 13608.45 -3514.03 L 13608.32 -3513.94 L 13608.34 -3514.09 L 13608.45 -3514.03 Z M 13609.05 -3515.09 L 13608.89 -3515.10 L 13608.98 -3515.20 L 13609.05 -3515.10 L 13609.05 -3515.09 Z M 13609.06 -3515.20 L 13609.03 -3514.98 L 13608.86 -3515.13 L 13608.78 -3515.23 L 13609.03 -3515.23 L 13609.06 -3515.20 Z" />
  </g>
  <g id="hazard-landslide-special" fill="#ef4444" fill-opacity="0.35" stroke="#991b1b" stroke-opacity="0.90" stroke-width="0.12" pointer-events="none">
    <path d="M 13616.36 -3513.77 L 13616.28 -3513.78 L 13616.34 -3513.80 L 13616.36 -3513.77 Z M 13608.38 -3518.93 L 13608.35 -3518.88 L 13608.37 -3518.93 L 13608.38 -3518.93 Z M 13606.27 -3520.56 L 13606.07 -3520.47 L 13606.27 -3520.56 L 13606.27 -3520.56 Z M 13608.30 -3518.83 L 13608.26 -3518.86 L 13608.30 -3518.85 L 13608.30 -3518.83 Z M 13608.36 -3517.55 L 13608.32 -3517.52 L 13608.36 -3517.55 L 13608.36 -3517.55 Z M 13614.01 -3513.05 L 13613.97 -3513.06 L 13614.01 -3513.06 L 13614.01 -3513.05 Z M 13606.93 -3516.09 L 13606.87 -3516.06 L 13606.93 -3516.09 L 13606.93 -3516.09 Z M 13607.19 -3516.18 L 13607.13 -3516.15 L 13607.19 -3516.18 L 13607.19 -3516.18 Z M 13608.86 -3516.48 L 13608.81 -3516.51 L 13608.83 -3516.48 L 13608.86 -3516.48 Z M 13609.93 -3516.34 L 13609.83 -3516.39 L 13609.92 -3516.35 L 13609.93 -3516.34 Z M 13609.49 -3519.51 L 13609.42 -3519.34 L 13609.48 -3519.51 L 13609.49 -3519.51 Z M 13613.77 -3516.18 L 13613.58 -3516.28 L 13613.60 -3516.38 L 13613.59 -3516.29 L 13613.76 -3516.18 L 13613.77 -3516.18 Z M 13613.54 -3515.43 L 13613.54 -3515.34 L 13613.54 -3515.44 L 13613.54 -3515.43 Z M 13614.50 -3515.35 L 13614.43 -3515.34 L 13614.50 -3515.35 L 13614.50 -3515.35 Z M 13614.97 -3513.25 L 13614.86 -3513.16 L 13614.97 -3513.26 L 13614.97 -3513.25 Z M 13614.78 -3513.10 L 13614.65 -3513.08 L 13614.77 -3513.10 L 13614.78 -3513.10 Z M 13614.53 -3513.14 L 13614.44 -3513.14 L 13614.52 -3513.14 L 13614.53 -3513.14 Z M 13608.46 -3513.43 L 13608.36 -3513.54 L 13608.44 -3513.51 L 13608.45 -3513.45 L 13608.46 -3513.43 Z M 13606.69 -3515.79 L 13606.66 -3515.78 L 13606.69 -3515.80 L 13606.69 -3515.79 Z M 13606.27 -3516.01 L 13606.20 -3515.99 L 13606.25 -3516.02 L 13606.27 -3516.01 Z M 13606.29 -3515.95 L 13606.24 -3515.95 L 13606.29 -3515.95 L 13606.29 -3515.95 Z M 13612.25 -3510.35 L 13612.22 -3510.33 L 13612.22 -3510.40 L 13612.25 -3510.36 L 13612.25 -3510.35 Z M 13614.05 -3513.20 L 13614.01 -3513.05 L 13614.04 -3513.23 L 13613.89 -3513.22 L 13614.05 -3513.22 L 13614.05 -3513.20 Z M 13608.26 -3513.96 L 13608.21 -3513.96 L 13608.26 -3513.96 L 13608.26 -3513.96 Z M 13609.01 -3514.10 L 13608.60 -3514.17 L 13608.99 -3514.12 L 13609.01 -3514.10 Z M 13608.21 -3513.56 L 13608.12 -3513.70 L 13608.21 -3513.59 L 13608.21 -3513.56 Z M 13609.07 -3514.13 L 13608.81 -3514.32 L 13609.06 -3514.14 L 13609.07 -3514.13 Z M 13607.91 -3514.11 L 13607.87 -3514.04 L 13607.90 -3514.12 L 13607.91 -3514.11 Z M 13608.04 -3514.02 L 13607.81 -3513.91 L 13607.69 -3513.95 L 13607.75 -3514.01 L 13607.70 -3513.96 L 13607.81 -3513.92 L 13608.04 -3514.03 L 13608.04 -3514.02 Z M 13609.21 -3515.42 L 13609.18 -3515.34 L 13609.05 -3515.27 L 13609.19 -3515.42 L 13609.21 -3515.42 Z M 13609.06 -3514.61 L 13609.00 -3514.58 L 13608.97 -3514.60 L 13609.04 -3514.61 L 13609.06 -3514.61 Z M 13609.04 -3514.84 L 13609.01 -3514.71 L 13608.98 -3514.73 L 13609.03 -3514.84 L 13609.04 -3514.84 Z M 13613.46 -3511.16 L 13613.41 -3511.09 L 13613.44 -3511.16 L 13613.46 -3511.16 Z M 13613.73 -3511.09 L 13613.64 -3510.86 L 13613.57 -3510.86 L 13613.63 -3510.86 L 13613.72 -3511.09 L 13613.67 -3511.11 L 13613.71 -3511.10 L 13613.73 -3511.09 Z M 13613.47 -3511.01 L 13613.37 -3510.94 L 13613.44 -3511.08 L 13613.45 -3511.02 L 13613.47 -3511.01 Z M 13613.56 -3510.85 L 13613.39 -3510.85 L 13613.50 -3510.90 L 13613.55 -3510.86 L 13613.56 -3510.85 Z M 13614.13 -3507.82 L 13614.08 -3507.77 L 13614.12 -3507.83 L 13614.13 -3507.82 Z M 13613.95 -3507.91 L 13613.93 -3507.88 L 13613.95 -3507.91 L 13613.95 -3507.91 Z M 13613.81 -3508.01 L 13613.68 -3508.08 L 13613.81 -3508.02 L 13613.81 -3508.01 Z M 13608.06 -3518.69 L 13608.01 -3518.65 L 13608.04 -3518.70 L 13608.06 -3518.69 Z M 13615.47 -3514.78 L 13615.34 -3514.72 L 13615.46 -3514.78 L 13615.47 -3514.78 Z M 13607.34 -3516.58 L 13607.25 -3516.65 L 13607.31 -3516.62 L 13607.34 -3516.58 Z" />
  </g>
</svg>
