<?xml version="1.0" encoding="UTF-8"?>
<svg xmlns="http://www.w3.org/2000/svg"
     viewBox="12243.4 -4605.6 3205.3 2251.0"
     pointer-events="none">
  <globalCoordinateSystem srsName="http://purl.org/crs/84" transform="matrix(100,0,0,-100,0,0)" />

  <g id="hazard-flood" fill="#3b82f6" fill-opacity="0.28" stroke="#1d4ed8" stroke-opacity="0.70" stroke-width="0.10" pointer-events="none">

  </g>
  <g id="hazard-tsunami-inundation" fill="#a855f7" fill-opacity="0.28" stroke="#7e22ce" stroke-opacity="0.70" stroke-width="0.10" pointer-events="none">

  </g>
  <g id="hazard-landslide-warning" fill="#f97316" fill-opacity="0.22" stroke="#c2410c" stroke-opacity="0.80" stroke-width="0.10" pointer-events="none">
    <path d="M 13093.28 -3369.66 L 13093.19 -3369.64 L 13093.28 -3369.66 L 13093.28 -3369.66 Z M 13093.63 -3372.81 L 13093.66 -3372.83 L 13093.63 -3372.80 L 13093.63 -3372.81 Z M 13094.68 -3371.80 L 13094.64 -3371.78 L 13094.68 -3371.80 L 13094.68 -3371.80 Z M 13094.57 -3371.81 L 13094.61 -3371.78 L 13094.57 -3371.81 L 13094.57 -3371.81 Z M 13094.72 -3372.16 L 13094.75 -3372.20 L 13094.76 -3372.16 L 13094.71 -3372.15 L 13094.72 -3372.16 Z M 13090.96 -3374.04 L 13090.99 -3374.00 L 13090.96 -3374.03 L 13090.96 -3374.04 Z M 13091.29 -3374.26 L 13091.14 -3374.23 L 13091.05 -3374.27 L 13091.22 -3374.31 L 13091.29 -3374.26 L 13091.29 -3374.26 Z M 13091.03 -3373.44 L 13091.11 -3373.39 L 13091.01 -3373.39 L 13090.96 -3373.46 L 13091.02 -3373.46 L 13091.03 -3373.44 Z M 13091.10 -3374.03 L 13091.05 -3374.03 L 13091.07 -3374.07 L 13091.10 -3374.03 L 13091.10 -3374.03 Z M 13090.89 -3373.35 L 13090.93 -3373.36 L 13090.90 -3373.33 L 13090.89 -3373.35 Z M 13091.14 -3374.21 L 13091.01 -3374.20 L 13091.07 -3374.25 L 13091.19 -3374.25 L 13091.16 -3374.21 L 13091.14 -3374.21 Z M 13091.29 -3374.21 L 13091.32 -3374.27 L 13091.35 -3374.23 L 13091.31 -3374.22 L 13091.29 -3374.21 Z M 13092.12 -3373.56 L 13092.25 -3373.59 L 13092.13 -3373.55 L 13092.12 -3373.56 Z M 13092.81 -3373.22 L 13092.80 -3373.26 L 13092.82 -3373.22 L 13092.81 -3373.22 Z M 13090.75 -3371.68 L 13090.85 -3371.71 L 13090.80 -3371.64 L 13090.73 -3371.65 L 13090.75 -3371.70 L 13090.75 -3371.68 Z M 13094.72 -3371.83 L 13094.68 -3371.81 L 13094.71 -3371.84 L 13094.72 -3371.83 Z M 13094.74 -3371.40 L 13094.70 -3371.40 L 13094.68 -3371.51 L 13094.73 -3371.50 L 13094.74 -3371.42 L 13094.74 -3371.40 Z M 13094.61 -3371.15 L 13094.67 -3371.19 L 13094.63 -3371.15 L 13094.61 -3371.15 Z M 13093.42 -3369.74 L 13093.39 -3369.68 L 13093.27 -3369.70 L 13093.41 -3369.74 L 13093.42 -3369.74 Z M 13093.41 -3369.77 L 13093.56 -3369.79 L 13093.44 -3369.72 L 13093.41 -3369.77 L 13093.41 -3369.77 Z M 13093.75 -3369.89 L 13093.60 -3369.76 L 13093.64 -3369.87 L 13093.73 -3369.90 L 13093.75 -3369.89 Z M 13091.53 -3374.30 L 13091.61 -3374.32 L 13091.69 -3374.25 L 13091.62 -3374.21 L 13091.53 -3374.29 L 13091.53 -3374.30 Z M 13092.88 -3373.34 L 13092.82 -3373.36 L 13092.89 -3373.35 L 13092.88 -3373.34 Z M 13092.96 -3373.33 L 13092.90 -3373.31 L 13092.95 -3373.34 L 13092.96 -3373.33 Z M 13090.50 -3372.99 L 13090.44 -3372.93 L 13090.42 -3372.99 L 13090.51 -3373.00 L 13090.50 -3372.99 Z M 13090.46 -3372.98 L 13090.48 -3373.03 L 13090.52 -3372.98 L 13090.48 -3372.98 L 13090.46 -3372.98 Z M 13090.96 -3373.29 L 13090.93 -3373.32 L 13090.96 -3373.30 L 13090.96 -3373.29 Z M 13090.99 -3372.88 L 13091.10 -3372.89 L 13091.00 -3372.87 L 13090.99 -3372.88 Z M 13091.04 -3372.99 L 13091.08 -3373.01 L 13090.93 -3373.04 L 13090.98 -3373.07 L 13091.15 -3373.02 L 13091.14 -3372.97 L 13091.04 -3372.98 L 13091.04 -3372.99 Z M 13094.48 -3370.69 L 13094.53 -3370.71 L 13094.49 -3370.68 L 13094.48 -3370.69 Z M 13094.69 -3370.95 L 13094.68 -3370.89 L 13094.60 -3370.88 L 13094.67 -3370.96 L 13094.69 -3370.95 Z M 13094.68 -3371.01 L 13094.63 -3371.11 L 13094.69 -3371.02 L 13094.68 -3371.01 Z M 13093.18 -3369.68 L 13093.05 -3369.64 L 13093.05 -3369.69 L 13093.14 -3369.72 L 13093.18 -3369.68 L 13093.18 -3369.68 Z M 13101.21 -3375.02 L 13101.28 -3375.12 L 13101.26 -3375.01 L 13101.38 -3374.94 L 13101.43 -3374.83 L 13101.29 -3374.87 L 13101.23 -3375.00 L 13101.21 -3375.02 Z M 13101.36 -3374.77 L 13101.54 -3374.69 L 13101.48 -3374.62 L 13101.55 -3374.57 L 13101.50 -3374.57 L 13101.36 -3374.75 L 13101.36 -3374.77 Z M 13101.58 -3374.62 L 13101.63 -3374.67 L 13101.63 -3374.61 L 13101.58 -3374.61 L 13101.58 -3374.62 Z M 13101.85 -3374.59 L 13101.91 -3374.50 L 13101.76 -3374.35 L 13101.63 -3374.39 L 13101.62 -3374.52 L 13101.67 -3374.55 L 13101.73 -3374.44 L 13101.86 -3374.53 L 13101.84 -3374.59 L 13101.85 -3374.59 Z M 13101.23 -3372.98 L 13101.28 -3373.06 L 13101.35 -3373.05 L 13101.29 -3373.01 L 13101.37 -3372.80 L 13101.25 -3372.86 L 13101.23 -3372.97 L 13101.23 -3372.98 Z M 13101.34 -3373.08 L 13101.44 -3373.14 L 13101.47 -3373.06 L 13101.34 -3373.08 L 13101.34 -3373.08 Z M 13100.86 -3372.15 L 13100.96 -3372.21 L 13100.97 -3372.09 L 13101.02 -3372.08 L 13100.92 -3372.00 L 13100.86 -3372.12 L 13100.86 -3372.15 Z M 13100.88 -3371.99 L 13101.00 -3372.04 L 13101.05 -3371.88 L 13100.89 -3371.96 L 13100.88 -3371.99 Z M 13094.80 -3369.30 L 13094.90 -3369.41 L 13094.81 -3369.29 L 13094.80 -3369.30 Z M 13097.82 -3369.51 L 13097.90 -3369.54 L 13097.90 -3369.46 L 13097.83 -3369.51 L 13097.82 -3369.51 Z M 13098.02 -3369.71 L 13097.97 -3369.71 L 13097.99 -3369.76 L 13098.07 -3369.76 L 13098.04 -3369.72 L 13098.02 -3369.71 Z M 13099.65 -3369.44 L 13099.78 -3369.49 L 13099.85 -3369.45 L 13099.65 -3369.43 L 13099.65 -3369.44 Z M 13100.74 -3370.22 L 13100.81 -3370.25 L 13100.82 -3370.18 L 13100.77 -3370.22 L 13100.74 -3370.22 Z M 13101.15 -3370.11 L 13101.33 -3370.04 L 13101.16 -3370.08 L 13101.15 -3370.11 Z M 13094.71 -3369.02 L 13094.76 -3369.02 L 13094.72 -3369.00 L 13094.71 -3369.02 Z M 13095.76 -3368.77 L 13095.80 -3368.77 L 13095.76 -3368.75 L 13095.76 -3368.77 Z M 13096.30 -3369.46 L 13096.38 -3369.50 L 13096.41 -3369.45 L 13096.34 -3369.37 L 13096.30 -3369.44 L 13096.30 -3369.46 Z M 13096.26 -3369.32 L 13096.29 -3369.34 L 13096.26 -3369.32 L 13096.26 -3369.32 Z M 13101.64 -3374.77 L 13101.70 -3374.77 L 13101.68 -3374.73 L 13101.65 -3374.77 L 13101.64 -3374.77 Z M 13102.01 -3372.46 L 13102.09 -3372.52 L 13102.02 -3372.45 L 13102.01 -3372.46 Z M 13102.03 -3372.42 L 13102.06 -3372.44 L 13102.10 -3372.37 L 13102.07 -3372.34 L 13102.03 -3372.40 L 13102.03 -3372.42 Z M 13102.09 -3372.33 L 13102.28 -3372.33 L 13102.09 -3372.32 L 13102.09 -3372.33 Z M 13101.69 -3372.37 L 13101.80 -3372.33 L 13101.78 -3372.27 L 13101.71 -3372.28 L 13101.76 -3372.31 L 13101.72 -3372.36 L 13101.69 -3372.37 Z M 13094.22 -3368.85 L 13094.19 -3368.82 L 13094.21 -3368.85 L 13094.22 -3368.85 Z M 13094.36 -3369.01 L 13094.39 -3369.04 L 13094.37 -3369.01 L 13094.36 -3369.01 Z M 13094.46 -3368.97 L 13094.51 -3368.95 L 13094.46 -3368.92 L 13094.46 -3368.96 L 13094.46 -3368.97 Z M 13094.66 -3368.35 L 13094.70 -3368.32 L 13094.65 -3368.29 L 13094.60 -3368.33 L 13094.66 -3368.35 L 13094.66 -3368.35 Z M 13093.78 -3368.20 L 13093.88 -3368.18 L 13093.85 -3368.11 L 13093.78 -3368.15 L 13093.79 -3368.19 L 13093.78 -3368.20 Z M 13094.51 -3368.40 L 13094.59 -3368.33 L 13094.51 -3368.39 L 13094.51 -3368.40 Z M 13098.13 -3369.79 L 13098.19 -3369.76 L 13098.14 -3369.73 L 13098.14 -3369.78 L 13098.13 -3369.79 Z M 13094.43 -3368.60 L 13094.46 -3368.63 L 13094.44 -3368.60 L 13094.43 -3368.60 Z M 13094.65 -3368.43 L 13094.66 -3368.38 L 13094.60 -3368.38 L 13094.52 -3368.49 L 13094.55 -3368.53 L 13094.65 -3368.43 L 13094.65 -3368.43 Z M 13093.98 -3370.03 L 13093.81 -3369.94 L 13093.99 -3370.06 L 13093.98 -3370.03 Z M 13092.25 -3374.31 L 13092.18 -3374.26 L 13091.96 -3374.55 L 13091.88 -3374.54 L 13091.81 -3374.61 L 13091.99 -3374.68 L 13092.08 -3374.58 L 13092.39 -3374.53 L 13092.25 -3374.32 L 13092.25 -3374.31 Z M 13091.20 -3372.71 L 13091.19 -3372.56 L 13090.60 -3372.68 L 13090.28 -3372.64 L 13090.69 -3372.95 L 13091.08 -3372.89 L 13091.14 -3372.94 L 13091.20 -3372.74 L 13091.20 -3372.71 Z M 13090.92 -3372.52 L 13090.78 -3372.65 L 13090.58 -3372.68 L 13090.56 -3372.63 L 13090.34 -3372.80 L 13091.01 -3372.88 L 13091.01 -3372.71 L 13090.92 -3372.53 L 13090.92 -3372.52 Z M 13091.17 -3372.50 L 13091.09 -3372.40 L 13091.02 -3372.42 L 13090.77 -3372.65 L 13090.56 -3372.67 L 13090.41 -3372.88 L 13091.28 -3372.91 L 13091.18 -3372.51 L 13091.17 -3372.50 Z M 13091.26 -3372.92 L 13091.07 -3373.03 L 13090.66 -3373.11 L 13090.48 -3373.23 L 13090.80 -3373.20 L 13091.34 -3373.31 L 13091.28 -3372.94 L 13091.26 -3372.92 Z M 13091.53 -3373.54 L 13091.05 -3373.76 L 13091.04 -3373.81 L 13091.57 -3373.99 L 13091.62 -3373.77 L 13091.54 -3373.54 L 13091.53 -3373.54 Z M 13091.17 -3374.13 L 13091.14 -3374.08 L 13090.96 -3374.21 L 13090.73 -3374.23 L 13090.85 -3374.27 L 13091.19 -3374.18 L 13091.17 -3374.14 L 13091.17 -3374.13 Z M 13091.37 -3374.14 L 13091.32 -3374.17 L 13091.23 -3374.13 L 13091.57 -3374.50 L 13091.59 -3374.46 L 13091.59 -3374.28 L 13091.69 -3373.94 L 13091.55 -3374.14 L 13091.38 -3374.12 L 13091.37 -3374.14 Z M 13093.61 -3368.27 L 13093.75 -3368.30 L 13093.87 -3368.12 L 13093.90 -3367.98 L 13093.87 -3367.93 L 13093.83 -3368.02 L 13093.58 -3368.16 L 13093.61 -3368.25 L 13093.61 -3368.27 Z M 13094.47 -3368.43 L 13094.55 -3368.50 L 13094.65 -3368.37 L 13094.66 -3368.23 L 13094.55 -3368.28 L 13094.50 -3368.41 L 13094.47 -3368.43 Z M 13096.20 -3369.30 L 13096.25 -3369.47 L 13096.48 -3369.33 L 13096.22 -3369.30 L 13096.20 -3369.30 Z M 13096.32 -3369.49 L 13096.41 -3369.65 L 13096.55 -3369.48 L 13096.34 -3369.49 L 13096.32 -3369.49 Z M 13101.29 -3372.68 L 13101.43 -3372.87 L 13101.52 -3372.67 L 13101.31 -3372.67 L 13101.29 -3372.68 Z M 13093.60 -3368.20 L 13093.79 -3368.19 L 13093.64 -3367.93 L 13093.57 -3368.13 L 13093.59 -3368.19 L 13093.60 -3368.20 Z M 13093.60 -3368.22 L 13093.78 -3368.20 L 13093.70 -3367.95 L 13093.62 -3367.97 L 13093.59 -3368.19 L 13093.60 -3368.22 Z" />
  </g>
  <g id="hazard-landslide-special" fill="#ef4444" fill-opacity="0.35" stroke="#991b1b" stroke-opacity="0.90" stroke-width="0.12" pointer-events="none">
    <path d="M 13094.70 -3371.78 L 13094.65 -3371.78 L 13094.70 -3371.79 L 13094.70 -3371.78 Z M 13094.61 -3371.79 L 13094.56 -3371.80 L 13094.61 -3371.79 L 13094.61 -3371.79 Z M 13091.27 -3374.27 L 13091.04 -3374.25 L 13091.25 -3374.28 L 13091.27 -3374.27 Z M 13090.51 -3372.95 L 13090.55 -3372.99 L 13090.52 -3372.95 L 13090.51 -3372.95 Z M 13091.11 -3374.04 L 13091.05 -3374.05 L 13091.11 -3374.04 L 13091.11 -3374.04 Z M 13091.19 -3374.23 L 13091.01 -3374.20 L 13091.19 -3374.23 L 13091.19 -3374.23 Z M 13091.31 -3374.25 L 13091.35 -3374.24 L 13091.31 -3374.24 L 13091.31 -3374.25 Z M 13092.13 -3373.55 L 13092.25 -3373.58 L 13092.13 -3373.54 L 13092.13 -3373.55 Z M 13090.83 -3371.71 L 13090.72 -3371.67 L 13090.83 -3371.72 L 13090.83 -3371.71 Z M 13093.41 -3369.71 L 13093.28 -3369.71 L 13093.41 -3369.74 L 13093.41 -3369.71 Z M 13093.55 -3369.78 L 13093.40 -3369.75 L 13093.55 -3369.79 L 13093.55 -3369.78 Z M 13093.61 -3369.78 L 13093.71 -3369.90 L 13093.62 -3369.78 L 13093.61 -3369.78 Z M 13091.56 -3374.32 L 13091.68 -3374.26 L 13091.61 -3374.24 L 13091.56 -3374.31 L 13091.56 -3374.32 Z M 13090.47 -3372.99 L 13090.48 -3373.03 L 13090.47 -3372.99 L 13090.47 -3372.99 Z M 13091.00 -3372.88 L 13091.10 -3372.89 L 13091.00 -3372.88 L 13091.00 -3372.88 Z M 13091.04 -3372.99 L 13091.13 -3373.01 L 13091.04 -3372.99 L 13091.04 -3372.99 Z M 13094.63 -3371.10 L 13094.69 -3371.05 L 13094.63 -3371.09 L 13094.63 -3371.10 Z M 13093.16 -3369.69 L 13093.05 -3369.65 L 13093.16 -3369.69 L 13093.16 -3369.69 Z M 13101.22 -3375.02 L 13101.37 -3374.93 L 13101.41 -3374.86 L 13101.35 -3374.87 L 13101.23 -3375.01 L 13101.22 -3375.02 Z M 13101.38 -3374.75 L 13101.49 -3374.71 L 13101.52 -3374.68 L 13101.46 -3374.61 L 13101.55 -3374.59 L 13101.46 -3374.60 L 13101.38 -3374.73 L 13101.38 -3374.75 Z M 13101.59 -3374.63 L 13101.64 -3374.64 L 13101.59 -3374.62 L 13101.59 -3374.63 Z M 13101.63 -3374.50 L 13101.69 -3374.53 L 13101.66 -3374.49 L 13101.72 -3374.43 L 13101.87 -3374.53 L 13101.83 -3374.59 L 13101.88 -3374.52 L 13101.76 -3374.39 L 13101.64 -3374.48 L 13101.63 -3374.50 Z M 13101.25 -3372.98 L 13101.34 -3373.06 L 13101.28 -3372.95 L 13101.35 -3372.80 L 13101.27 -3372.87 L 13101.25 -3372.96 L 13101.25 -3372.98 Z M 13101.36 -3373.08 L 13101.46 -3373.11 L 13101.47 -3373.08 L 13101.36 -3373.07 L 13101.36 -3373.08 Z M 13100.90 -3372.15 L 13100.96 -3372.22 L 13100.94 -3372.11 L 13101.01 -3372.06 L 13100.94 -3372.03 L 13100.90 -3372.12 L 13100.90 -3372.15 Z M 13100.92 -3371.98 L 13101.00 -3372.04 L 13100.96 -3371.99 L 13101.04 -3371.88 L 13100.93 -3371.97 L 13100.92 -3371.98 Z M 13094.81 -3369.32 L 13094.89 -3369.41 L 13094.81 -3369.30 L 13094.81 -3369.32 Z M 13097.84 -3369.50 L 13097.90 -3369.54 L 13097.84 -3369.50 L 13097.84 -3369.50 Z M 13099.69 -3369.43 L 13099.82 -3369.46 L 13099.69 -3369.43 L 13099.69 -3369.43 Z M 13101.23 -3370.08 L 13101.28 -3370.06 L 13101.23 -3370.06 L 13101.23 -3370.08 Z M 13096.32 -3369.38 L 13096.38 -3369.50 L 13096.38 -3369.40 L 13096.32 -3369.38 L 13096.32 -3369.38 Z M 13096.26 -3369.32 L 13096.30 -3369.33 L 13096.26 -3369.32 L 13096.26 -3369.32 Z M 13102.03 -3372.46 L 13102.08 -3372.52 L 13102.03 -3372.45 L 13102.03 -3372.46 Z M 13102.09 -3372.33 L 13102.27 -3372.36 L 13102.10 -3372.32 L 13102.09 -3372.33 Z M 13101.70 -3372.39 L 13101.79 -3372.33 L 13101.73 -3372.27 L 13101.78 -3372.31 L 13101.73 -3372.37 L 13101.70 -3372.39 Z M 13094.38 -3369.00 L 13094.38 -3369.04 L 13094.38 -3369.00 L 13094.38 -3369.00 Z M 13094.51 -3368.39 L 13094.58 -3368.33 L 13094.51 -3368.39 L 13094.51 -3368.39 Z M 13098.15 -3369.80 L 13098.16 -3369.72 L 13098.16 -3369.79 L 13098.15 -3369.80 Z M 13094.53 -3368.52 L 13094.64 -3368.38 L 13094.53 -3368.51 L 13094.53 -3368.52 Z M 13093.86 -3369.95 L 13093.98 -3370.04 L 13093.86 -3369.95 L 13093.86 -3369.95 Z M 13090.27 -3372.66 L 13090.41 -3372.70 L 13090.28 -3372.65 L 13090.27 -3372.66 Z M 13090.35 -3372.82 L 13090.40 -3372.79 L 13090.35 -3372.81 L 13090.35 -3372.82 Z M 13090.39 -3372.86 L 13090.47 -3372.84 L 13090.39 -3372.86 L 13090.39 -3372.86 Z M 13091.04 -3373.79 L 13091.10 -3373.80 L 13091.04 -3373.79 L 13091.04 -3373.79 Z M 13090.73 -3374.24 L 13091.04 -3374.19 L 13090.73 -3374.23 L 13090.73 -3374.24 Z M 13091.55 -3374.49 L 13091.58 -3374.40 L 13091.54 -3374.49 L 13091.55 -3374.49 Z M 13093.68 -3368.28 L 13093.74 -3368.30 L 13093.89 -3368.01 L 13093.87 -3367.94 L 13093.68 -3368.26 L 13093.68 -3368.28 Z M 13094.64 -3368.22 L 13094.64 -3368.28 L 13094.65 -3368.22 L 13094.64 -3368.22 Z M 13096.56 -3369.50 L 13096.49 -3369.50 L 13096.56 -3369.50 L 13096.56 -3369.50 Z M 13093.69 -3367.93 L 13093.66 -3367.97 L 13093.69 -3367.93 L 13093.69 -3367.93 Z" />
  </g>
</svg>
