<?xml version="1.0" encoding="UTF-8"?>
<svg xmlns="http://www.w3.org/2000/svg"
     viewBox="12243.4 -4605.6 3205.3 2251.0"
     pointer-events="none">
  <globalCoordinateSystem srsName="http://purl.org/crs/84" transform="matrix(100,0,0,-100,0,0)" />

  <g id="hazard-flood" fill="#3b82f6" fill-opacity="0.28" stroke="#1d4ed8" stroke-opacity="0.70" stroke-width="0.10" pointer-events="none">

  </g>
  <g id="hazard-tsunami-inundation" fill="#a855f7" fill-opacity="0.28" stroke="#7e22ce" stroke-opacity="0.70" stroke-width="0.10" pointer-events="none">

  </g>
  <g id="hazard-landslide-warning" fill="#f97316" fill-opacity="0.22" stroke="#c2410c" stroke-opacity="0.80" stroke-width="0.10" pointer-events="none">
    <path d="M 13081.13 -3285.97 L 13081.45 -3286.01 L 13081.45 -3285.92 L 13081.13 -3285.91 L 13081.13 -3285.96 L 13081.13 -3285.97 Z M 13082.02 -3285.97 L 13082.19 -3285.96 L 13082.03 -3285.96 L 13082.02 -3285.97 Z M 13080.88 -3285.94 L 13081.13 -3285.97 L 13081.08 -3285.91 L 13080.88 -3285.93 L 13080.88 -3285.94 Z M 13079.24 -3285.53 L 13079.51 -3285.56 L 13079.80 -3285.77 L 13080.03 -3285.83 L 13080.04 -3285.78 L 13079.60 -3285.54 L 13079.44 -3285.49 L 13079.24 -3285.52 L 13079.24 -3285.53 Z M 13080.28 -3285.93 L 13080.71 -3285.96 L 13080.71 -3285.90 L 13080.44 -3285.88 L 13080.36 -3285.83 L 13080.29 -3285.87 L 13080.28 -3285.93 Z M 13086.11 -3285.29 L 13086.22 -3285.32 L 13086.11 -3285.28 L 13086.11 -3285.29 Z M 13085.85 -3285.25 L 13086.00 -3285.27 L 13085.92 -3285.21 L 13085.86 -3285.24 L 13085.85 -3285.25 Z M 13085.59 -3285.24 L 13085.83 -3285.25 L 13085.63 -3285.22 L 13085.59 -3285.24 Z M 13082.02 -3285.29 L 13082.28 -3285.28 L 13082.02 -3285.28 L 13082.02 -3285.29 Z M 13085.42 -3285.21 L 13085.55 -3285.28 L 13085.63 -3285.25 L 13085.42 -3285.20 L 13085.42 -3285.21 Z M 13084.69 -3283.84 L 13084.74 -3283.83 L 13084.69 -3283.83 L 13084.69 -3283.84 Z" />
  </g>
  <g id="hazard-landslide-special" fill="#ef4444" fill-opacity="0.35" stroke="#991b1b" stroke-opacity="0.90" stroke-width="0.12" pointer-events="none">
    <path d="M 13081.13 -3285.95 L 13081.45 -3285.98 L 13081.13 -3285.94 L 13081.13 -3285.95 Z M 13082.03 -3285.96 L 13082.19 -3285.95 L 13082.03 -3285.96 L 13082.03 -3285.96 Z M 13080.89 -3285.92 L 13081.13 -3285.95 L 13080.90 -3285.92 L 13080.89 -3285.92 Z M 13079.24 -3285.52 L 13079.53 -3285.55 L 13079.81 -3285.75 L 13080.03 -3285.82 L 13079.51 -3285.53 L 13079.25 -3285.50 L 13079.24 -3285.52 Z M 13080.28 -3285.90 L 13080.72 -3285.92 L 13080.29 -3285.87 L 13080.28 -3285.90 Z M 13086.12 -3285.28 L 13086.22 -3285.32 L 13086.12 -3285.28 L 13086.12 -3285.28 Z M 13085.63 -3285.22 L 13085.82 -3285.24 L 13085.63 -3285.22 L 13085.63 -3285.22 Z M 13082.02 -3285.29 L 13082.27 -3285.30 L 13082.03 -3285.28 L 13082.02 -3285.29 Z M 13084.69 -3283.83 L 13084.73 -3283.84 L 13084.69 -3283.83 L 13084.69 -3283.83 Z" />
  </g>
</svg>
