<?xml version="1.0" encoding="UTF-8"?>
<svg xmlns="http://www.w3.org/2000/svg"
     xmlns:xlink="http://www.w3.org/1999/xlink"
     viewBox="139.63770 35.68914 1.26428 1.30615">
  <title>茨城県 市区町村概要</title>
  <globalCoordinateSystem srsName="http://purl.org/crs/84" transform="matrix(100,0,0,-100,0,0)" />
  <defs>
    <style>
      .prefecture {
        fill: rgba(100, 150, 200, 0.15);
        stroke: rgba(50, 100, 150, 0.7);
        stroke-width: 0.008;
        cursor: pointer;
      }
      .prefecture:hover { fill: rgba(100, 150, 200, 0.40); }
      .prefecture[data-level-1] { fill: rgba(200, 100, 80, 0.35); }
      .prefecture[data-level-2] { fill: rgba(220, 140, 50, 0.30); }
      .prefecture[data-level-3] { fill: rgba(240, 200, 50, 0.25); }
      .prefecture[data-level-4] { fill: rgba(100, 180, 100, 0.20); }
      .municipality {
        fill: rgba(100, 150, 200, 0.10);
        stroke: rgba(50, 100, 150, 0.50);
        stroke-width: 0.003;
        cursor: pointer;
      }
      .municipality:hover { fill: rgba(100, 150, 200, 0.35); }
      .municipality[data-level-1] { fill: rgba(200, 100, 80, 0.30); }
      .municipality[data-level-2] { fill: rgba(220, 140, 50, 0.25); }
      .municipality[data-level-3] { fill: rgba(240, 200, 50, 0.20); }
      .municipality[data-level-4] { fill: rgba(100, 180, 100, 0.15); }
    </style>
  </defs>
  <path id="muni_08201" class="municipality" data-n03-code="08201" data-name="水戸市" data-pref="茨城県" data-pref-code="08" data-team-count="0" data-feature="{&quot;id&quot;: &quot;municipality:08201&quot;, &quot;layerId&quot;: &quot;municipalityOverview&quot;, &quot;kind&quot;: &quot;municipality&quot;, &quot;title&quot;: &quot;水戸市&quot;, &quot;category&quot;: &quot;municipality&quot;, &quot;n03Code&quot;: &quot;08201&quot;, &quot;prefCode&quot;: &quot;08&quot;, &quot;teamActivityCount&quot;: 0}" d="M 140.41445 36.46087 L 140.41096 36.44808 L 140.38134 36.46428 L 140.39861 36.44179 L 140.37406 36.42652 L 140.33714 36.42914 L 140.35456 36.40006 L 140.32200 36.38379 L 140.34171 36.36405 L 140.33338 36.33577 L 140.34430 36.32405 L 140.39334 36.31291 L 140.38568 36.32588 L 140.40908 36.34543 L 140.42509 36.31548 L 140.48760 36.32205 L 140.50694 36.30072 L 140.58681 36.33668 L 140.50270 36.38233 L 140.49277 36.37467 L 140.48391 36.40755 L 140.47456 36.39907 L 140.45192 36.42527 L 140.45101 36.44845 L 140.42638 36.44574 L 140.41445 36.46087 Z"><title>茨城県 水戸市</title></path>
  <path id="muni_08202" class="municipality" data-n03-code="08202" data-name="日立市" data-pref="茨城県" data-pref-code="08" data-team-count="0" data-feature="{&quot;id&quot;: &quot;municipality:08202&quot;, &quot;layerId&quot;: &quot;municipalityOverview&quot;, &quot;kind&quot;: &quot;municipality&quot;, &quot;title&quot;: &quot;日立市&quot;, &quot;category&quot;: &quot;municipality&quot;, &quot;n03Code&quot;: &quot;08202&quot;, &quot;prefCode&quot;: &quot;08&quot;, &quot;teamActivityCount&quot;: 0}" d="M 140.63011 36.48646 L 140.62980 36.48627 L 140.63339 36.48162 L 140.63361 36.48180 L 140.63031 36.48597 L 140.63011 36.48646 Z M 140.71651 36.69265 L 140.54096 36.70913 L 140.54979 36.66753 L 140.51741 36.64343 L 140.54274 36.61315 L 140.58771 36.62098 L 140.57836 36.57357 L 140.60158 36.52528 L 140.55980 36.49462 L 140.62341 36.48193 L 140.61214 36.48658 L 140.62845 36.49586 L 140.65284 36.57294 L 140.71662 36.66169 L 140.71651 36.69265 Z"><title>茨城県 日立市</title></path>
  <path id="muni_08203" class="municipality" data-n03-code="08203" data-name="土浦市" data-pref="茨城県" data-pref-code="08" data-team-count="0" data-feature="{&quot;id&quot;: &quot;municipality:08203&quot;, &quot;layerId&quot;: &quot;municipalityOverview&quot;, &quot;kind&quot;: &quot;municipality&quot;, &quot;title&quot;: &quot;土浦市&quot;, &quot;category&quot;: &quot;municipality&quot;, &quot;n03Code&quot;: &quot;08203&quot;, &quot;prefCode&quot;: &quot;08&quot;, &quot;teamActivityCount&quot;: 0}" d="M 140.17654 36.17180 L 140.13520 36.17415 L 140.14445 36.13341 L 140.12460 36.13238 L 140.16133 36.10618 L 140.15091 36.09164 L 140.17302 36.06561 L 140.13823 36.04553 L 140.15861 36.01476 L 140.17305 36.04038 L 140.18874 36.03093 L 140.21118 36.05508 L 140.26229 36.05220 L 140.25969 36.09341 L 140.28432 36.10504 L 140.19367 36.12933 L 140.20675 36.14486 L 140.17654 36.17180 Z"><title>茨城県 土浦市</title></path>
  <path id="muni_08204" class="municipality" data-n03-code="08204" data-name="古河市" data-pref="茨城県" data-pref-code="08" data-team-count="0" data-feature="{&quot;id&quot;: &quot;municipality:08204&quot;, &quot;layerId&quot;: &quot;municipalityOverview&quot;, &quot;kind&quot;: &quot;municipality&quot;, &quot;title&quot;: &quot;古河市&quot;, &quot;category&quot;: &quot;municipality&quot;, &quot;n03Code&quot;: &quot;08204&quot;, &quot;prefCode&quot;: &quot;08&quot;, &quot;teamActivityCount&quot;: 0}" d="M 139.85396 36.21338 L 139.84289 36.22294 L 139.82251 36.20508 L 139.82161 36.23970 L 139.72902 36.20229 L 139.69154 36.20619 L 139.69539 36.15800 L 139.71013 36.13594 L 139.75906 36.12610 L 139.76217 36.13846 L 139.78024 36.13390 L 139.77637 36.15357 L 139.80229 36.15583 L 139.81390 36.13679 L 139.82702 36.15508 L 139.85630 36.14718 L 139.85061 36.18253 L 139.86160 36.17745 L 139.86596 36.19190 L 139.85396 36.21338 Z"><title>茨城県 古河市</title></path>
  <path id="muni_08205" class="municipality" data-n03-code="08205" data-name="石岡市" data-pref="茨城県" data-pref-code="08" data-team-count="0" data-feature="{&quot;id&quot;: &quot;municipality:08205&quot;, &quot;layerId&quot;: &quot;municipalityOverview&quot;, &quot;kind&quot;: &quot;municipality&quot;, &quot;title&quot;: &quot;石岡市&quot;, &quot;category&quot;: &quot;municipality&quot;, &quot;n03Code&quot;: &quot;08205&quot;, &quot;prefCode&quot;: &quot;08&quot;, &quot;teamActivityCount&quot;: 0}" d="M 140.30410 36.27302 L 140.26807 36.26797 L 140.21234 36.31720 L 140.17114 36.32144 L 140.14326 36.30605 L 140.15236 36.28746 L 140.13232 36.24298 L 140.11045 36.23016 L 140.14318 36.17191 L 140.22314 36.19252 L 140.21011 36.20902 L 140.23663 36.20547 L 140.27973 36.16469 L 140.24606 36.13296 L 140.33016 36.12526 L 140.34581 36.13068 L 140.30975 36.15589 L 140.30791 36.18275 L 140.34409 36.18886 L 140.27212 36.22769 L 140.28061 36.25488 L 140.31566 36.26481 L 140.30410 36.27302 Z"><title>茨城県 石岡市</title></path>
  <path id="muni_08207" class="municipality" data-n03-code="08207" data-name="結城市" data-pref="茨城県" data-pref-code="08" data-team-count="0" data-feature="{&quot;id&quot;: &quot;municipality:08207&quot;, &quot;layerId&quot;: &quot;municipalityOverview&quot;, &quot;kind&quot;: &quot;municipality&quot;, &quot;title&quot;: &quot;結城市&quot;, &quot;category&quot;: &quot;municipality&quot;, &quot;n03Code&quot;: &quot;08207&quot;, &quot;prefCode&quot;: &quot;08&quot;, &quot;teamActivityCount&quot;: 0}" d="M 139.90301 36.29864 L 139.87974 36.32306 L 139.84551 36.30788 L 139.81649 36.22506 L 139.82251 36.20508 L 139.84289 36.22294 L 139.88505 36.21229 L 139.89881 36.22368 L 139.90563 36.23763 L 139.88827 36.25295 L 139.90840 36.27973 L 139.90301 36.29864 Z"><title>茨城県 結城市</title></path>
  <path id="muni_08208" class="municipality" data-n03-code="08208" data-name="龍ケ崎市" data-pref="茨城県" data-pref-code="08" data-team-count="0" data-feature="{&quot;id&quot;: &quot;municipality:08208&quot;, &quot;layerId&quot;: &quot;municipalityOverview&quot;, &quot;kind&quot;: &quot;municipality&quot;, &quot;title&quot;: &quot;龍ケ崎市&quot;, &quot;category&quot;: &quot;municipality&quot;, &quot;n03Code&quot;: &quot;08208&quot;, &quot;prefCode&quot;: &quot;08&quot;, &quot;teamActivityCount&quot;: 0}" d="M 140.17327 35.94658 L 140.17222 35.94663 L 140.17284 35.94441 L 140.17535 35.94449 L 140.17463 35.94639 L 140.17327 35.94658 Z M 140.11473 35.97981 L 140.09589 36.00781 L 140.12242 35.94734 L 140.08883 35.98305 L 140.08902 35.96818 L 140.15192 35.90299 L 140.13065 35.88079 L 140.18481 35.88844 L 140.19624 35.87235 L 140.26103 35.93059 L 140.19440 35.96504 L 140.17482 35.93282 L 140.15842 35.95508 L 140.15086 35.94282 L 140.11987 35.95908 L 140.11473 35.97981 Z"><title>茨城県 龍ケ崎市</title></path>
  <path id="muni_08210" class="municipality" data-n03-code="08210" data-name="下妻市" data-pref="茨城県" data-pref-code="08" data-team-count="0" data-feature="{&quot;id&quot;: &quot;municipality:08210&quot;, &quot;layerId&quot;: &quot;municipalityOverview&quot;, &quot;kind&quot;: &quot;municipality&quot;, &quot;title&quot;: &quot;下妻市&quot;, &quot;category&quot;: &quot;municipality&quot;, &quot;n03Code&quot;: &quot;08210&quot;, &quot;prefCode&quot;: &quot;08&quot;, &quot;teamActivityCount&quot;: 0}" d="M 140.03640 36.19956 L 140.00266 36.20783 L 139.99837 36.23873 L 139.96760 36.22209 L 139.93605 36.24545 L 139.90547 36.23043 L 139.94412 36.16805 L 139.93464 36.15212 L 139.93254 36.16673 L 139.91487 36.16276 L 139.92355 36.13237 L 139.95917 36.14721 L 139.99805 36.13573 L 140.01952 36.19173 L 140.03640 36.19956 Z"><title>茨城県 下妻市</title></path>
  <path id="muni_08211" class="municipality" data-n03-code="08211" data-name="常総市" data-pref="茨城県" data-pref-code="08" data-team-count="0" data-feature="{&quot;id&quot;: &quot;municipality:08211&quot;, &quot;layerId&quot;: &quot;municipalityOverview&quot;, &quot;kind&quot;: &quot;municipality&quot;, &quot;title&quot;: &quot;常総市&quot;, &quot;category&quot;: &quot;municipality&quot;, &quot;n03Code&quot;: &quot;08211&quot;, &quot;prefCode&quot;: &quot;08&quot;, &quot;teamActivityCount&quot;: 0}" d="M 139.99805 36.13573 L 139.95917 36.14721 L 139.89373 36.13690 L 139.89819 36.11227 L 139.93777 36.08959 L 139.94404 36.05365 L 139.95918 36.05128 L 139.94676 36.05138 L 139.94942 36.02681 L 139.91965 36.02174 L 139.92366 35.97044 L 139.97141 35.97752 L 139.97253 36.00348 L 140.00189 36.00098 L 139.99428 36.01591 L 140.02926 36.03363 L 140.00152 36.07413 L 139.99805 36.13573 Z"><title>茨城県 常総市</title></path>
  <path id="muni_08212" class="municipality" data-n03-code="08212" data-name="常陸太田市" data-pref="茨城県" data-pref-code="08" data-team-count="0" data-feature="{&quot;id&quot;: &quot;municipality:08212&quot;, &quot;layerId&quot;: &quot;municipalityOverview&quot;, &quot;kind&quot;: &quot;municipality&quot;, &quot;title&quot;: &quot;常陸太田市&quot;, &quot;category&quot;: &quot;municipality&quot;, &quot;n03Code&quot;: &quot;08212&quot;, &quot;prefCode&quot;: &quot;08&quot;, &quot;teamActivityCount&quot;: 0}" d="M 140.55477 36.71355 L 140.55848 36.75996 L 140.53580 36.77457 L 140.56564 36.86402 L 140.53797 36.85877 L 140.51398 36.82351 L 140.46231 36.79053 L 140.46809 36.74591 L 140.44753 36.74892 L 140.44477 36.72939 L 140.41524 36.73227 L 140.45521 36.68749 L 140.44318 36.67560 L 140.45229 36.66081 L 140.41458 36.63183 L 140.43552 36.61351 L 140.43079 36.56696 L 140.45804 36.51197 L 140.48932 36.49363 L 140.54812 36.50475 L 140.55980 36.49462 L 140.60158 36.52528 L 140.57836 36.57357 L 140.58771 36.62098 L 140.54274 36.61315 L 140.51741 36.64343 L 140.54979 36.66753 L 140.53750 36.69727 L 140.55477 36.71355 Z"><title>茨城県 常陸太田市</title></path>
  <path id="muni_08214" class="municipality" data-n03-code="08214" data-name="高萩市" data-pref="茨城県" data-pref-code="08" data-team-count="0" data-feature="{&quot;id&quot;: &quot;municipality:08214&quot;, &quot;layerId&quot;: &quot;municipalityOverview&quot;, &quot;kind&quot;: &quot;municipality&quot;, &quot;title&quot;: &quot;高萩市&quot;, &quot;category&quot;: &quot;municipality&quot;, &quot;n03Code&quot;: &quot;08214&quot;, &quot;prefCode&quot;: &quot;08&quot;, &quot;teamActivityCount&quot;: 0}" d="M 140.59187 36.87292 L 140.56747 36.86320 L 140.54012 36.80430 L 140.53624 36.77247 L 140.55848 36.75996 L 140.55477 36.71355 L 140.71651 36.69265 L 140.73315 36.74866 L 140.64407 36.77196 L 140.67990 36.80120 L 140.59187 36.87292 Z"><title>茨城県 高萩市</title></path>
  <path id="muni_08215" class="municipality" data-n03-code="08215" data-name="北茨城市" data-pref="茨城県" data-pref-code="08" data-team-count="0" data-feature="{&quot;id&quot;: &quot;municipality:08215&quot;, &quot;layerId&quot;: &quot;municipalityOverview&quot;, &quot;kind&quot;: &quot;municipality&quot;, &quot;title&quot;: &quot;北茨城市&quot;, &quot;category&quot;: &quot;municipality&quot;, &quot;n03Code&quot;: &quot;08215&quot;, &quot;prefCode&quot;: &quot;08&quot;, &quot;teamActivityCount&quot;: 0}" d="M 140.79350 36.85946 L 140.61552 36.90327 L 140.58611 36.94528 L 140.56744 36.93668 L 140.56496 36.91286 L 140.60402 36.85267 L 140.67990 36.80120 L 140.64407 36.77196 L 140.68831 36.75039 L 140.73315 36.74866 L 140.76849 36.81833 L 140.80574 36.83122 L 140.79350 36.85946 Z"><title>茨城県 北茨城市</title></path>
  <path id="muni_08216" class="municipality" data-n03-code="08216" data-name="笠間市" data-pref="茨城県" data-pref-code="08" data-team-count="0" data-feature="{&quot;id&quot;: &quot;municipality:08216&quot;, &quot;layerId&quot;: &quot;municipalityOverview&quot;, &quot;kind&quot;: &quot;municipality&quot;, &quot;title&quot;: &quot;笠間市&quot;, &quot;category&quot;: &quot;municipality&quot;, &quot;n03Code&quot;: &quot;08216&quot;, &quot;prefCode&quot;: &quot;08&quot;, &quot;teamActivityCount&quot;: 0}" d="M 140.33714 36.42914 L 140.29568 36.44915 L 140.25373 36.43085 L 140.20204 36.43281 L 140.16431 36.33696 L 140.21234 36.31720 L 140.26807 36.26797 L 140.31247 36.28085 L 140.34294 36.26583 L 140.36986 36.31193 L 140.33338 36.33577 L 140.34213 36.36220 L 140.32174 36.39265 L 140.35552 36.40410 L 140.33714 36.42914 Z"><title>茨城県 笠間市</title></path>
  <path id="muni_08217" class="municipality" data-n03-code="08217" data-name="取手市" data-pref="茨城県" data-pref-code="08" data-team-count="0" data-feature="{&quot;id&quot;: &quot;municipality:08217&quot;, &quot;layerId&quot;: &quot;municipalityOverview&quot;, &quot;kind&quot;: &quot;municipality&quot;, &quot;title&quot;: &quot;取手市&quot;, &quot;category&quot;: &quot;municipality&quot;, &quot;n03Code&quot;: &quot;08217&quot;, &quot;prefCode&quot;: &quot;08&quot;, &quot;teamActivityCount&quot;: 0}" d="M 140.11437 35.94791 L 140.04463 35.93156 L 140.02001 35.95421 L 139.99520 35.90957 L 140.12714 35.87086 L 140.13047 35.89118 L 140.15321 35.89614 L 140.11437 35.94791 Z"><title>茨城県 取手市</title></path>
  <path id="muni_08219" class="municipality" data-n03-code="08219" data-name="牛久市" data-pref="茨城県" data-pref-code="08" data-team-count="0" data-feature="{&quot;id&quot;: &quot;municipality:08219&quot;, &quot;layerId&quot;: &quot;municipalityOverview&quot;, &quot;kind&quot;: &quot;municipality&quot;, &quot;title&quot;: &quot;牛久市&quot;, &quot;category&quot;: &quot;municipality&quot;, &quot;n03Code&quot;: &quot;08219&quot;, &quot;prefCode&quot;: &quot;08&quot;, &quot;teamActivityCount&quot;: 0}" d="M 140.15861 36.01476 L 140.14430 36.02797 L 140.14105 35.98813 L 140.11473 35.97981 L 140.12921 35.95298 L 140.15086 35.94282 L 140.15842 35.95508 L 140.17482 35.93282 L 140.19440 35.96504 L 140.27293 35.94343 L 140.25375 35.98579 L 140.21871 35.98409 L 140.20506 35.96849 L 140.15861 36.01476 Z M 140.17327 35.94658 L 140.17463 35.94639 L 140.17535 35.94449 L 140.17284 35.94441 L 140.17222 35.94663 L 140.17327 35.94658 Z"><title>茨城県 牛久市</title></path>
  <path id="muni_08220" class="municipality" data-n03-code="08220" data-name="つくば市" data-pref="茨城県" data-pref-code="08" data-team-count="0" data-feature="{&quot;id&quot;: &quot;municipality:08220&quot;, &quot;layerId&quot;: &quot;municipalityOverview&quot;, &quot;kind&quot;: &quot;municipality&quot;, &quot;title&quot;: &quot;つくば市&quot;, &quot;category&quot;: &quot;municipality&quot;, &quot;n03Code&quot;: &quot;08220&quot;, &quot;prefCode&quot;: &quot;08&quot;, &quot;teamActivityCount&quot;: 0}" d="M 140.06041 36.23465 L 140.05014 36.23060 L 140.06014 36.21343 L 140.04484 36.21418 L 140.04975 36.20396 L 140.00741 36.17147 L 139.99832 36.08861 L 140.00574 36.06274 L 140.04976 36.03162 L 140.04518 36.01225 L 140.06515 36.01301 L 140.09198 35.96636 L 140.12242 35.94734 L 140.09403 36.00472 L 140.11473 35.97981 L 140.13868 35.98584 L 140.13823 36.04553 L 140.17302 36.06561 L 140.15091 36.09164 L 140.16133 36.10618 L 140.12487 36.12635 L 140.14445 36.13341 L 140.11809 36.22650 L 140.06041 36.23465 Z"><title>茨城県 つくば市</title></path>
  <path id="muni_08221" class="municipality" data-n03-code="08221" data-name="ひたちなか市" data-pref="茨城県" data-pref-code="08" data-team-count="0" data-feature="{&quot;id&quot;: &quot;municipality:08221&quot;, &quot;layerId&quot;: &quot;municipalityOverview&quot;, &quot;kind&quot;: &quot;municipality&quot;, &quot;title&quot;: &quot;ひたちなか市&quot;, &quot;category&quot;: &quot;municipality&quot;, &quot;n03Code&quot;: &quot;08221&quot;, &quot;prefCode&quot;: &quot;08&quot;, &quot;teamActivityCount&quot;: 0}" d="M 140.54247 36.45918 L 140.52992 36.46318 L 140.51871 36.42794 L 140.48592 36.41049 L 140.48468 36.38344 L 140.60324 36.33950 L 140.62732 36.37716 L 140.61913 36.40930 L 140.60969 36.40518 L 140.61816 36.42709 L 140.55438 36.43884 L 140.54247 36.45918 Z"><title>茨城県 ひたちなか市</title></path>
  <path id="muni_08222" class="municipality" data-n03-code="08222" data-name="鹿嶋市" data-pref="茨城県" data-pref-code="08" data-team-count="0" data-feature="{&quot;id&quot;: &quot;municipality:08222&quot;, &quot;layerId&quot;: &quot;municipalityOverview&quot;, &quot;kind&quot;: &quot;municipality&quot;, &quot;title&quot;: &quot;鹿嶋市&quot;, &quot;category&quot;: &quot;municipality&quot;, &quot;n03Code&quot;: &quot;08222&quot;, &quot;prefCode&quot;: &quot;08&quot;, &quot;teamActivityCount&quot;: 0}" d="M 140.71155 35.94064 L 140.71263 35.95466 L 140.71155 35.94064 Z M 140.69787 35.93498 L 140.68490 35.96443 L 140.70079 35.96251 L 140.67057 35.97287 L 140.61126 36.08215 L 140.55387 36.06170 L 140.56658 36.01209 L 140.62042 35.93574 L 140.69787 35.93498 Z"><title>茨城県 鹿嶋市</title></path>
  <path id="muni_08223" class="municipality" data-n03-code="08223" data-name="潮来市" data-pref="茨城県" data-pref-code="08" data-team-count="0" data-feature="{&quot;id&quot;: &quot;municipality:08223&quot;, &quot;layerId&quot;: &quot;municipalityOverview&quot;, &quot;kind&quot;: &quot;municipality&quot;, &quot;title&quot;: &quot;潮来市&quot;, &quot;category&quot;: &quot;municipality&quot;, &quot;n03Code&quot;: &quot;08223&quot;, &quot;prefCode&quot;: &quot;08&quot;, &quot;teamActivityCount&quot;: 0}" d="M 140.62042 35.93574 L 140.56658 36.01209 L 140.53818 35.98971 L 140.50975 36.00263 L 140.51277 35.98000 L 140.48528 35.96996 L 140.59886 35.90317 L 140.62042 35.93574 Z"><title>茨城県 潮来市</title></path>
  <path id="muni_08224" class="municipality" data-n03-code="08224" data-name="守谷市" data-pref="茨城県" data-pref-code="08" data-team-count="0" data-feature="{&quot;id&quot;: &quot;municipality:08224&quot;, &quot;layerId&quot;: &quot;municipalityOverview&quot;, &quot;kind&quot;: &quot;municipality&quot;, &quot;title&quot;: &quot;守谷市&quot;, &quot;category&quot;: &quot;municipality&quot;, &quot;n03Code&quot;: &quot;08224&quot;, &quot;prefCode&quot;: &quot;08&quot;, &quot;teamActivityCount&quot;: 0}" d="M 139.97141 35.97752 L 139.93999 35.97820 L 139.93166 35.95077 L 139.99520 35.90957 L 140.02001 35.95421 L 139.97141 35.97752 Z"><title>茨城県 守谷市</title></path>
  <path id="muni_08225" class="municipality" data-n03-code="08225" data-name="常陸大宮市" data-pref="茨城県" data-pref-code="08" data-team-count="0" data-feature="{&quot;id&quot;: &quot;municipality:08225&quot;, &quot;layerId&quot;: &quot;municipalityOverview&quot;, &quot;kind&quot;: &quot;municipality&quot;, &quot;title&quot;: &quot;常陸大宮市&quot;, &quot;category&quot;: &quot;municipality&quot;, &quot;n03Code&quot;: &quot;08225&quot;, &quot;prefCode&quot;: &quot;08&quot;, &quot;teamActivityCount&quot;: 0}" d="M 140.44299 36.70370 L 140.40636 36.67888 L 140.33341 36.70816 L 140.32782 36.72450 L 140.22988 36.69883 L 140.22014 36.68433 L 140.24093 36.65092 L 140.25455 36.52240 L 140.29650 36.52504 L 140.32497 36.54972 L 140.36804 36.52807 L 140.39456 36.49066 L 140.41758 36.51520 L 140.45979 36.50992 L 140.43079 36.56696 L 140.43552 36.61351 L 140.41458 36.63183 L 140.45229 36.66081 L 140.44299 36.70370 Z"><title>茨城県 常陸大宮市</title></path>
  <path id="muni_08226" class="municipality" data-n03-code="08226" data-name="那珂市" data-pref="茨城県" data-pref-code="08" data-team-count="0" data-feature="{&quot;id&quot;: &quot;municipality:08226&quot;, &quot;layerId&quot;: &quot;municipalityOverview&quot;, &quot;kind&quot;: &quot;municipality&quot;, &quot;title&quot;: &quot;那珂市&quot;, &quot;category&quot;: &quot;municipality&quot;, &quot;n03Code&quot;: &quot;08226&quot;, &quot;prefCode&quot;: &quot;08&quot;, &quot;teamActivityCount&quot;: 0}" d="M 140.45979 36.50992 L 140.41758 36.51520 L 140.38685 36.48508 L 140.40804 36.48293 L 140.42638 36.44574 L 140.44867 36.45079 L 140.47456 36.39907 L 140.51871 36.42794 L 140.51499 36.44725 L 140.52992 36.46318 L 140.54266 36.45686 L 140.54168 36.47518 L 140.56629 36.49428 L 140.52108 36.50385 L 140.50222 36.49023 L 140.45979 36.50992 Z"><title>茨城県 那珂市</title></path>
  <path id="muni_08227" class="municipality" data-n03-code="08227" data-name="筑西市" data-pref="茨城県" data-pref-code="08" data-team-count="0" data-feature="{&quot;id&quot;: &quot;municipality:08227&quot;, &quot;layerId&quot;: &quot;municipalityOverview&quot;, &quot;kind&quot;: &quot;municipality&quot;, &quot;title&quot;: &quot;筑西市&quot;, &quot;category&quot;: &quot;municipality&quot;, &quot;n03Code&quot;: &quot;08227&quot;, &quot;prefCode&quot;: &quot;08&quot;, &quot;teamActivityCount&quot;: 0}" d="M 140.04147 36.37523 L 139.98993 36.36721 L 139.97390 36.37848 L 139.96450 36.35094 L 139.91433 36.33671 L 139.91478 36.30786 L 139.89721 36.29287 L 139.90840 36.27973 L 139.88827 36.25295 L 139.90547 36.23043 L 139.93605 36.24545 L 139.96760 36.22209 L 139.99837 36.23873 L 140.00266 36.20783 L 140.02655 36.19838 L 140.06014 36.21343 L 140.05014 36.23060 L 140.06744 36.27579 L 140.05065 36.27544 L 140.04147 36.37523 Z"><title>茨城県 筑西市</title></path>
  <path id="muni_08228" class="municipality" data-n03-code="08228" data-name="坂東市" data-pref="茨城県" data-pref-code="08" data-team-count="0" data-feature="{&quot;id&quot;: &quot;municipality:08228&quot;, &quot;layerId&quot;: &quot;municipalityOverview&quot;, &quot;kind&quot;: &quot;municipality&quot;, &quot;title&quot;: &quot;坂東市&quot;, &quot;category&quot;: &quot;municipality&quot;, &quot;n03Code&quot;: &quot;08228&quot;, &quot;prefCode&quot;: &quot;08&quot;, &quot;teamActivityCount&quot;: 0}" d="M 139.83937 36.09589 L 139.83933 36.09660 L 139.83730 36.09576 L 139.83779 36.09487 L 139.83587 36.09427 L 139.83756 36.09013 L 139.83804 36.09036 L 139.83750 36.09209 L 139.83789 36.09255 L 139.83800 36.09401 L 139.83899 36.09477 L 139.83937 36.09589 Z M 139.83776 36.11326 L 139.83793 36.11419 L 139.83625 36.11430 L 139.83542 36.11368 L 139.83592 36.11311 L 139.83776 36.11326 Z M 139.85630 36.14718 L 139.82637 36.15375 L 139.84981 36.12873 L 139.83826 36.08935 L 139.85462 36.06851 L 139.82017 36.05718 L 139.88684 35.98653 L 139.92366 35.97024 L 139.91965 36.02174 L 139.94942 36.02681 L 139.94676 36.05138 L 139.95918 36.05128 L 139.94404 36.05365 L 139.93777 36.08959 L 139.85630 36.14718 Z M 139.84028 36.09020 L 139.84107 36.09065 L 139.84300 36.09029 L 139.84370 36.08828 L 139.84234 36.08690 L 139.83996 36.08777 L 139.84058 36.08884 L 139.83992 36.08964 L 139.84028 36.09020 Z"><title>茨城県 坂東市</title></path>
  <path id="muni_08229" class="municipality" data-n03-code="08229" data-name="稲敷市" data-pref="茨城県" data-pref-code="08" data-team-count="0" data-feature="{&quot;id&quot;: &quot;municipality:08229&quot;, &quot;layerId&quot;: &quot;municipalityOverview&quot;, &quot;kind&quot;: &quot;municipality&quot;, &quot;title&quot;: &quot;稲敷市&quot;, &quot;category&quot;: &quot;municipality&quot;, &quot;n03Code&quot;: &quot;08229&quot;, &quot;prefCode&quot;: &quot;08&quot;, &quot;teamActivityCount&quot;: 0}" d="M 140.48528 35.96996 L 140.40950 36.02330 L 140.38009 35.99306 L 140.33031 36.00513 L 140.30656 35.97570 L 140.25755 35.97913 L 140.27293 35.94343 L 140.24715 35.91079 L 140.31296 35.88148 L 140.32583 35.90485 L 140.36960 35.91598 L 140.37896 35.90313 L 140.42113 35.90645 L 140.45844 35.92654 L 140.50170 35.90552 L 140.48718 35.92859 L 140.51125 35.95873 L 140.48528 35.96996 Z"><title>茨城県 稲敷市</title></path>
  <path id="muni_08230" class="municipality" data-n03-code="08230" data-name="かすみがうら市" data-pref="茨城県" data-pref-code="08" data-team-count="0" data-feature="{&quot;id&quot;: &quot;municipality:08230&quot;, &quot;layerId&quot;: &quot;municipalityOverview&quot;, &quot;kind&quot;: &quot;municipality&quot;, &quot;title&quot;: &quot;かすみがうら市&quot;, &quot;category&quot;: &quot;municipality&quot;, &quot;n03Code&quot;: &quot;08230&quot;, &quot;prefCode&quot;: &quot;08&quot;, &quot;teamActivityCount&quot;: 0}" d="M 140.34581 36.13068 L 140.24606 36.13296 L 140.27973 36.16469 L 140.23663 36.20547 L 140.21011 36.20902 L 140.22314 36.19252 L 140.17654 36.17180 L 140.20675 36.14486 L 140.19367 36.12933 L 140.28260 36.11057 L 140.25969 36.09341 L 140.26229 36.05220 L 140.39599 36.03748 L 140.40470 36.08263 L 140.36664 36.13051 L 140.34581 36.13068 Z"><title>茨城県 かすみがうら市</title></path>
  <path id="muni_08231" class="municipality" data-n03-code="08231" data-name="桜川市" data-pref="茨城県" data-pref-code="08" data-team-count="0" data-feature="{&quot;id&quot;: &quot;municipality:08231&quot;, &quot;layerId&quot;: &quot;municipalityOverview&quot;, &quot;kind&quot;: &quot;municipality&quot;, &quot;title&quot;: &quot;桜川市&quot;, &quot;category&quot;: &quot;municipality&quot;, &quot;n03Code&quot;: &quot;08231&quot;, &quot;prefCode&quot;: &quot;08&quot;, &quot;teamActivityCount&quot;: 0}" d="M 140.14426 36.41405 L 140.11410 36.41081 L 140.11122 36.39805 L 140.06650 36.40381 L 140.06361 36.38206 L 140.04147 36.37523 L 140.05065 36.27544 L 140.06744 36.27579 L 140.06021 36.22567 L 140.13232 36.24298 L 140.15236 36.28746 L 140.14326 36.30605 L 140.18284 36.32441 L 140.16235 36.34161 L 140.18661 36.39608 L 140.14426 36.41405 Z"><title>茨城県 桜川市</title></path>
  <path id="muni_08232" class="municipality" data-n03-code="08232" data-name="神栖市" data-pref="茨城県" data-pref-code="08" data-team-count="0" data-feature="{&quot;id&quot;: &quot;municipality:08232&quot;, &quot;layerId&quot;: &quot;municipalityOverview&quot;, &quot;kind&quot;: &quot;municipality&quot;, &quot;title&quot;: &quot;神栖市&quot;, &quot;category&quot;: &quot;municipality&quot;, &quot;n03Code&quot;: &quot;08232&quot;, &quot;prefCode&quot;: &quot;08&quot;, &quot;teamActivityCount&quot;: 0}" d="M 140.65546 35.92930 L 140.67689 35.91913 L 140.69441 35.93285 L 140.65546 35.92930 Z M 140.69586 35.93058 L 140.69549 35.93227 L 140.69417 35.93190 L 140.69403 35.93078 L 140.69479 35.92936 L 140.69621 35.93015 L 140.69586 35.93058 Z M 140.85197 35.74467 L 140.75108 35.85407 L 140.70788 35.92136 L 140.71155 35.94064 L 140.67721 35.91183 L 140.68688 35.88101 L 140.65353 35.92831 L 140.62042 35.93574 L 140.60111 35.91770 L 140.63069 35.85912 L 140.69718 35.84238 L 140.73455 35.79119 L 140.81535 35.74151 L 140.85197 35.74467 Z"><title>茨城県 神栖市</title></path>
  <path id="muni_08233" class="municipality" data-n03-code="08233" data-name="行方市" data-pref="茨城県" data-pref-code="08" data-team-count="0" data-feature="{&quot;id&quot;: &quot;municipality:08233&quot;, &quot;layerId&quot;: &quot;municipalityOverview&quot;, &quot;kind&quot;: &quot;municipality&quot;, &quot;title&quot;: &quot;行方市&quot;, &quot;category&quot;: &quot;municipality&quot;, &quot;n03Code&quot;: &quot;08233&quot;, &quot;prefCode&quot;: &quot;08&quot;, &quot;teamActivityCount&quot;: 0}" d="M 140.55387 36.06170 L 140.52395 36.12376 L 140.45016 36.13107 L 140.45578 36.15856 L 140.43656 36.16598 L 140.40676 36.13759 L 140.39473 36.15595 L 140.36275 36.15656 L 140.40470 36.08263 L 140.39599 36.03748 L 140.46611 35.97522 L 140.50666 35.97648 L 140.50975 36.00263 L 140.53818 35.98971 L 140.56658 36.01209 L 140.55387 36.06170 Z"><title>茨城県 行方市</title></path>
  <path id="muni_08234" class="municipality" data-n03-code="08234" data-name="鉾田市" data-pref="茨城県" data-pref-code="08" data-team-count="0" data-feature="{&quot;id&quot;: &quot;municipality:08234&quot;, &quot;layerId&quot;: &quot;municipalityOverview&quot;, &quot;kind&quot;: &quot;municipality&quot;, &quot;title&quot;: &quot;鉾田市&quot;, &quot;category&quot;: &quot;municipality&quot;, &quot;n03Code&quot;: &quot;08234&quot;, &quot;prefCode&quot;: &quot;08&quot;, &quot;teamActivityCount&quot;: 0}" d="M 140.55955 36.25579 L 140.52241 36.27823 L 140.49623 36.27597 L 140.49633 36.24597 L 140.44728 36.22882 L 140.44114 36.23885 L 140.41462 36.21986 L 140.44792 36.19455 L 140.43656 36.16598 L 140.45578 36.15856 L 140.45016 36.13107 L 140.52395 36.12376 L 140.55387 36.06170 L 140.61126 36.08215 L 140.55955 36.25579 Z"><title>茨城県 鉾田市</title></path>
  <path id="muni_08235" class="municipality" data-n03-code="08235" data-name="つくばみらい市" data-pref="茨城県" data-pref-code="08" data-team-count="0" data-feature="{&quot;id&quot;: &quot;municipality:08235&quot;, &quot;layerId&quot;: &quot;municipalityOverview&quot;, &quot;kind&quot;: &quot;municipality&quot;, &quot;title&quot;: &quot;つくばみらい市&quot;, &quot;category&quot;: &quot;municipality&quot;, &quot;n03Code&quot;: &quot;08235&quot;, &quot;prefCode&quot;: &quot;08&quot;, &quot;teamActivityCount&quot;: 0}" d="M 140.08883 35.98305 L 140.06423 36.01367 L 140.04518 36.01225 L 140.04976 36.03162 L 140.02678 36.04551 L 140.02773 36.03196 L 139.99139 36.01201 L 140.00189 36.00098 L 139.97253 36.00348 L 139.97443 35.97287 L 140.04463 35.93156 L 140.11068 35.94299 L 140.08883 35.98305 Z"><title>茨城県 つくばみらい市</title></path>
  <path id="muni_08236" class="municipality" data-n03-code="08236" data-name="小美玉市" data-pref="茨城県" data-pref-code="08" data-team-count="0" data-feature="{&quot;id&quot;: &quot;municipality:08236&quot;, &quot;layerId&quot;: &quot;municipalityOverview&quot;, &quot;kind&quot;: &quot;municipality&quot;, &quot;title&quot;: &quot;小美玉市&quot;, &quot;category&quot;: &quot;municipality&quot;, &quot;n03Code&quot;: &quot;08236&quot;, &quot;prefCode&quot;: &quot;08&quot;, &quot;teamActivityCount&quot;: 0}" d="M 140.34294 36.26583 L 140.31247 36.28085 L 140.31566 36.26481 L 140.28061 36.25488 L 140.27237 36.23349 L 140.34409 36.18886 L 140.30859 36.18568 L 140.30975 36.15589 L 140.34581 36.13068 L 140.36664 36.13051 L 140.36326 36.15714 L 140.42031 36.14279 L 140.44767 36.19509 L 140.38440 36.23990 L 140.38442 36.25644 L 140.34294 36.26583 Z"><title>茨城県 小美玉市</title></path>
  <path id="muni_08302" class="municipality" data-n03-code="08302" data-name="茨城町" data-pref="茨城県" data-pref-code="08" data-team-count="0" data-feature="{&quot;id&quot;: &quot;municipality:08302&quot;, &quot;layerId&quot;: &quot;municipalityOverview&quot;, &quot;kind&quot;: &quot;municipality&quot;, &quot;title&quot;: &quot;茨城町&quot;, &quot;category&quot;: &quot;municipality&quot;, &quot;n03Code&quot;: &quot;08302&quot;, &quot;prefCode&quot;: &quot;08&quot;, &quot;teamActivityCount&quot;: 0}" d="M 140.53088 36.30519 L 140.50392 36.30137 L 140.48405 36.32242 L 140.42509 36.31548 L 140.40698 36.34560 L 140.38568 36.32588 L 140.39566 36.31458 L 140.35679 36.30707 L 140.34294 36.26583 L 140.38442 36.25644 L 140.38440 36.23990 L 140.41561 36.21972 L 140.44114 36.23885 L 140.44728 36.22882 L 140.49633 36.24597 L 140.49623 36.27597 L 140.52241 36.27823 L 140.53088 36.30519 Z"><title>茨城県 茨城町</title></path>
  <path id="muni_08309" class="municipality" data-n03-code="08309" data-name="大洗町" data-pref="茨城県" data-pref-code="08" data-team-count="0" data-feature="{&quot;id&quot;: &quot;municipality:08309&quot;, &quot;layerId&quot;: &quot;municipalityOverview&quot;, &quot;kind&quot;: &quot;municipality&quot;, &quot;title&quot;: &quot;大洗町&quot;, &quot;category&quot;: &quot;municipality&quot;, &quot;n03Code&quot;: &quot;08309&quot;, &quot;prefCode&quot;: &quot;08&quot;, &quot;teamActivityCount&quot;: 0}" d="M 140.58662 36.29134 L 140.58500 36.30182 L 140.58662 36.29134 Z M 140.59432 36.33631 L 140.53071 36.30645 L 140.52712 36.26635 L 140.55955 36.25579 L 140.56054 36.29167 L 140.59432 36.33631 Z"><title>茨城県 大洗町</title></path>
  <path id="muni_08310" class="municipality" data-n03-code="08310" data-name="城里町" data-pref="茨城県" data-pref-code="08" data-team-count="0" data-feature="{&quot;id&quot;: &quot;municipality:08310&quot;, &quot;layerId&quot;: &quot;municipalityOverview&quot;, &quot;kind&quot;: &quot;municipality&quot;, &quot;title&quot;: &quot;城里町&quot;, &quot;category&quot;: &quot;municipality&quot;, &quot;n03Code&quot;: &quot;08310&quot;, &quot;prefCode&quot;: &quot;08&quot;, &quot;teamActivityCount&quot;: 0}" d="M 140.39456 36.49066 L 140.36804 36.52807 L 140.32497 36.54972 L 140.22943 36.50188 L 140.20204 36.43281 L 140.25373 36.43085 L 140.29568 36.44915 L 140.37406 36.42652 L 140.39861 36.44179 L 140.38134 36.46428 L 140.41166 36.44917 L 140.39456 36.49066 Z"><title>茨城県 城里町</title></path>
  <path id="muni_08341" class="municipality" data-n03-code="08341" data-name="東海村" data-pref="茨城県" data-pref-code="08" data-team-count="0" data-feature="{&quot;id&quot;: &quot;municipality:08341&quot;, &quot;layerId&quot;: &quot;municipalityOverview&quot;, &quot;kind&quot;: &quot;municipality&quot;, &quot;title&quot;: &quot;東海村&quot;, &quot;category&quot;: &quot;municipality&quot;, &quot;n03Code&quot;: &quot;08341&quot;, &quot;prefCode&quot;: &quot;08&quot;, &quot;teamActivityCount&quot;: 0}" d="M 140.62780 36.43759 L 140.62751 36.43729 L 140.62748 36.43412 L 140.62776 36.43412 L 140.62780 36.43759 Z M 140.63712 36.40280 L 140.63619 36.44535 L 140.63712 36.40280 Z M 140.61391 36.48165 L 140.56629 36.49428 L 140.54168 36.47518 L 140.54489 36.44749 L 140.59160 36.42672 L 140.62720 36.43120 L 140.60889 36.44106 L 140.61391 36.48165 Z"><title>茨城県 東海村</title></path>
  <path id="muni_08364" class="municipality" data-n03-code="08364" data-name="大子町" data-pref="茨城県" data-pref-code="08" data-team-count="0" data-feature="{&quot;id&quot;: &quot;municipality:08364&quot;, &quot;layerId&quot;: &quot;municipalityOverview&quot;, &quot;kind&quot;: &quot;municipality&quot;, &quot;title&quot;: &quot;大子町&quot;, &quot;category&quot;: &quot;municipality&quot;, &quot;n03Code&quot;: &quot;08364&quot;, &quot;prefCode&quot;: &quot;08&quot;, &quot;teamActivityCount&quot;: 0}" d="M 140.46373 36.79160 L 140.43831 36.82156 L 140.37721 36.83792 L 140.36521 36.88432 L 140.32653 36.89130 L 140.29270 36.93320 L 140.24896 36.92321 L 140.25154 36.85246 L 140.26716 36.82365 L 140.25494 36.76022 L 140.29216 36.71266 L 140.32782 36.72450 L 140.38446 36.68260 L 140.42702 36.68494 L 140.44299 36.70370 L 140.41524 36.73227 L 140.44477 36.72939 L 140.44753 36.74892 L 140.46809 36.74591 L 140.46373 36.79160 Z"><title>茨城県 大子町</title></path>
  <path id="muni_08442" class="municipality" data-n03-code="08442" data-name="美浦村" data-pref="茨城県" data-pref-code="08" data-team-count="0" data-feature="{&quot;id&quot;: &quot;municipality:08442&quot;, &quot;layerId&quot;: &quot;municipalityOverview&quot;, &quot;kind&quot;: &quot;municipality&quot;, &quot;title&quot;: &quot;美浦村&quot;, &quot;category&quot;: &quot;municipality&quot;, &quot;n03Code&quot;: &quot;08442&quot;, &quot;prefCode&quot;: &quot;08&quot;, &quot;teamActivityCount&quot;: 0}" d="M 140.39599 36.03748 L 140.26988 36.05114 L 140.26857 36.03090 L 140.28096 35.98763 L 140.30256 35.97480 L 140.33031 36.00513 L 140.38791 35.99619 L 140.40950 36.02330 L 140.39599 36.03748 Z"><title>茨城県 美浦村</title></path>
  <path id="muni_08443" class="municipality" data-n03-code="08443" data-name="阿見町" data-pref="茨城県" data-pref-code="08" data-team-count="0" data-feature="{&quot;id&quot;: &quot;municipality:08443&quot;, &quot;layerId&quot;: &quot;municipalityOverview&quot;, &quot;kind&quot;: &quot;municipality&quot;, &quot;title&quot;: &quot;阿見町&quot;, &quot;category&quot;: &quot;municipality&quot;, &quot;n03Code&quot;: &quot;08443&quot;, &quot;prefCode&quot;: &quot;08&quot;, &quot;teamActivityCount&quot;: 0}" d="M 140.26229 36.05220 L 140.21118 36.05508 L 140.18874 36.03093 L 140.17305 36.04038 L 140.15861 36.01476 L 140.20506 35.96849 L 140.21871 35.98409 L 140.28781 35.98260 L 140.26229 36.05220 Z"><title>茨城県 阿見町</title></path>
  <path id="muni_08447" class="municipality" data-n03-code="08447" data-name="河内町" data-pref="茨城県" data-pref-code="08" data-team-count="0" data-feature="{&quot;id&quot;: &quot;municipality:08447&quot;, &quot;layerId&quot;: &quot;municipalityOverview&quot;, &quot;kind&quot;: &quot;municipality&quot;, &quot;title&quot;: &quot;河内町&quot;, &quot;category&quot;: &quot;municipality&quot;, &quot;n03Code&quot;: &quot;08447&quot;, &quot;prefCode&quot;: &quot;08&quot;, &quot;teamActivityCount&quot;: 0}" d="M 140.37896 35.90313 L 140.36960 35.91598 L 140.32583 35.90485 L 140.31296 35.88148 L 140.25012 35.90725 L 140.19869 35.87783 L 140.23259 35.85411 L 140.27830 35.87404 L 140.31941 35.86464 L 140.37896 35.90313 Z"><title>茨城県 河内町</title></path>
  <path id="muni_08521" class="municipality" data-n03-code="08521" data-name="八千代町" data-pref="茨城県" data-pref-code="08" data-team-count="0" data-feature="{&quot;id&quot;: &quot;municipality:08521&quot;, &quot;layerId&quot;: &quot;municipalityOverview&quot;, &quot;kind&quot;: &quot;municipality&quot;, &quot;title&quot;: &quot;八千代町&quot;, &quot;category&quot;: &quot;municipality&quot;, &quot;n03Code&quot;: &quot;08521&quot;, &quot;prefCode&quot;: &quot;08&quot;, &quot;teamActivityCount&quot;: 0}" d="M 139.91845 36.14578 L 139.92005 36.16871 L 139.93304 36.16581 L 139.92659 36.15149 L 139.94412 36.16805 L 139.90568 36.23461 L 139.88505 36.21229 L 139.85609 36.21991 L 139.85630 36.14718 L 139.89559 36.12107 L 139.89373 36.13690 L 139.91656 36.13294 L 139.91845 36.14578 Z"><title>茨城県 八千代町</title></path>
  <path id="muni_08542" class="municipality" data-n03-code="08542" data-name="五霞町" data-pref="茨城県" data-pref-code="08" data-team-count="0" data-feature="{&quot;id&quot;: &quot;municipality:08542&quot;, &quot;layerId&quot;: &quot;municipalityOverview&quot;, &quot;kind&quot;: &quot;municipality&quot;, &quot;title&quot;: &quot;五霞町&quot;, &quot;category&quot;: &quot;municipality&quot;, &quot;n03Code&quot;: &quot;08542&quot;, &quot;prefCode&quot;: &quot;08&quot;, &quot;teamActivityCount&quot;: 0}" d="M 139.75906 36.12610 L 139.71013 36.13594 L 139.73028 36.08725 L 139.76825 36.08058 L 139.78678 36.10410 L 139.75906 36.12610 Z"><title>茨城県 五霞町</title></path>
  <path id="muni_08546" class="municipality" data-n03-code="08546" data-name="境町" data-pref="茨城県" data-pref-code="08" data-team-count="0" data-feature="{&quot;id&quot;: &quot;municipality:08546&quot;, &quot;layerId&quot;: &quot;municipalityOverview&quot;, &quot;kind&quot;: &quot;municipality&quot;, &quot;title&quot;: &quot;境町&quot;, &quot;category&quot;: &quot;municipality&quot;, &quot;n03Code&quot;: &quot;08546&quot;, &quot;prefCode&quot;: &quot;08&quot;, &quot;teamActivityCount&quot;: 0}" d="M 139.84028 36.09020 L 139.83992 36.08964 L 139.84058 36.08884 L 139.83996 36.08777 L 139.84234 36.08690 L 139.84370 36.08828 L 139.84300 36.09029 L 139.84107 36.09065 L 139.84028 36.09020 Z M 139.82936 36.14127 L 139.77637 36.15357 L 139.78024 36.13390 L 139.76217 36.13846 L 139.75906 36.12610 L 139.82017 36.05718 L 139.85462 36.06851 L 139.83826 36.08935 L 139.84981 36.12873 L 139.82936 36.14127 Z M 139.83776 36.11326 L 139.83592 36.11311 L 139.83542 36.11368 L 139.83625 36.11430 L 139.83793 36.11419 L 139.83776 36.11326 Z M 139.83937 36.09589 L 139.83899 36.09477 L 139.83800 36.09401 L 139.83789 36.09255 L 139.83750 36.09209 L 139.83804 36.09036 L 139.83756 36.09013 L 139.83587 36.09427 L 139.83779 36.09487 L 139.83730 36.09576 L 139.83933 36.09660 L 139.83937 36.09589 Z"><title>茨城県 境町</title></path>
  <path id="muni_08564" class="municipality" data-n03-code="08564" data-name="利根町" data-pref="茨城県" data-pref-code="08" data-team-count="0" data-feature="{&quot;id&quot;: &quot;municipality:08564&quot;, &quot;layerId&quot;: &quot;municipalityOverview&quot;, &quot;kind&quot;: &quot;municipality&quot;, &quot;title&quot;: &quot;利根町&quot;, &quot;category&quot;: &quot;municipality&quot;, &quot;n03Code&quot;: &quot;08564&quot;, &quot;prefCode&quot;: &quot;08&quot;, &quot;teamActivityCount&quot;: 0}" d="M 140.12738 35.88210 L 140.15388 35.84274 L 140.21718 35.86768 L 140.18481 35.88844 L 140.12738 35.88210 Z"><title>茨城県 利根町</title></path>
</svg>
