<?xml version="1.0" encoding="UTF-8"?>
<svg xmlns="http://www.w3.org/2000/svg"
     xmlns:xlink="http://www.w3.org/1999/xlink"
     viewBox="137.42411 34.52376 1.80244 1.17220">
  <title>静岡県 市区町村概要</title>
  <globalCoordinateSystem srsName="http://purl.org/crs/84" transform="matrix(100,0,0,-100,0,0)" />
  <defs>
    <style>
      .prefecture {
        fill: rgba(100, 150, 200, 0.15);
        stroke: rgba(50, 100, 150, 0.7);
        stroke-width: 0.008;
        cursor: pointer;
      }
      .prefecture:hover { fill: rgba(100, 150, 200, 0.40); }
      .prefecture[data-level-1] { fill: rgba(200, 100, 80, 0.35); }
      .prefecture[data-level-2] { fill: rgba(220, 140, 50, 0.30); }
      .prefecture[data-level-3] { fill: rgba(240, 200, 50, 0.25); }
      .prefecture[data-level-4] { fill: rgba(100, 180, 100, 0.20); }
      .municipality {
        fill: rgba(100, 150, 200, 0.10);
        stroke: rgba(50, 100, 150, 0.50);
        stroke-width: 0.003;
        cursor: pointer;
      }
      .municipality:hover { fill: rgba(100, 150, 200, 0.35); }
      .municipality[data-level-1] { fill: rgba(200, 100, 80, 0.30); }
      .municipality[data-level-2] { fill: rgba(220, 140, 50, 0.25); }
      .municipality[data-level-3] { fill: rgba(240, 200, 50, 0.20); }
      .municipality[data-level-4] { fill: rgba(100, 180, 100, 0.15); }
    </style>
  </defs>
  <path id="muni_22101" class="municipality" data-n03-code="22101" data-name="葵区" data-pref="静岡県" data-pref-code="22" data-team-count="0" data-feature="{&quot;id&quot;: &quot;municipality:22101&quot;, &quot;layerId&quot;: &quot;municipalityOverview&quot;, &quot;kind&quot;: &quot;municipality&quot;, &quot;title&quot;: &quot;葵区&quot;, &quot;category&quot;: &quot;municipality&quot;, &quot;n03Code&quot;: &quot;22101&quot;, &quot;prefCode&quot;: &quot;22&quot;, &quot;teamActivityCount&quot;: 0}" d="M 138.33564 35.32650 L 138.28169 35.30487 L 138.25480 35.31982 L 138.25126 35.36353 L 138.23202 35.37123 L 138.25810 35.40739 L 138.24407 35.45898 L 138.26898 35.51412 L 138.24046 35.57632 L 138.23231 35.64010 L 138.21867 35.64455 L 138.18949 35.57678 L 138.16205 35.58129 L 138.14279 35.55564 L 138.15942 35.54493 L 138.13828 35.52153 L 138.14018 35.49973 L 138.16462 35.49387 L 138.16025 35.46780 L 138.11934 35.44598 L 138.15118 35.38997 L 138.14114 35.36949 L 138.09699 35.35427 L 138.08296 35.32482 L 138.13724 35.28375 L 138.14574 35.25628 L 138.19794 35.24640 L 138.18349 35.19280 L 138.21457 35.20377 L 138.23937 35.17760 L 138.18366 35.13641 L 138.18873 35.09358 L 138.20957 35.07069 L 138.18876 35.01544 L 138.26061 34.99190 L 138.29203 34.94960 L 138.35758 34.97045 L 138.37102 34.95710 L 138.43685 35.00793 L 138.43629 35.07657 L 138.39767 35.10022 L 138.40205 35.17878 L 138.36703 35.27019 L 138.37248 35.29941 L 138.33564 35.32650 Z"><title>静岡県 葵区</title></path>
  <path id="muni_22102" class="municipality" data-n03-code="22102" data-name="駿河区" data-pref="静岡県" data-pref-code="22" data-team-count="0" data-feature="{&quot;id&quot;: &quot;municipality:22102&quot;, &quot;layerId&quot;: &quot;municipalityOverview&quot;, &quot;kind&quot;: &quot;municipality&quot;, &quot;title&quot;: &quot;駿河区&quot;, &quot;category&quot;: &quot;municipality&quot;, &quot;n03Code&quot;: &quot;22102&quot;, &quot;prefCode&quot;: &quot;22&quot;, &quot;teamActivityCount&quot;: 0}" d="M 138.47457 34.96183 L 138.43656 35.00635 L 138.37102 34.95710 L 138.35758 34.97045 L 138.29183 34.94461 L 138.34839 34.89855 L 138.36682 34.92426 L 138.47457 34.96183 Z"><title>静岡県 駿河区</title></path>
  <path id="muni_22103" class="municipality" data-n03-code="22103" data-name="清水区" data-pref="静岡県" data-pref-code="22" data-team-count="0" data-feature="{&quot;id&quot;: &quot;municipality:22103&quot;, &quot;layerId&quot;: &quot;municipalityOverview&quot;, &quot;kind&quot;: &quot;municipality&quot;, &quot;title&quot;: &quot;清水区&quot;, &quot;category&quot;: &quot;municipality&quot;, &quot;n03Code&quot;: &quot;22103&quot;, &quot;prefCode&quot;: &quot;22&quot;, &quot;teamActivityCount&quot;: 0}" d="M 138.52234 35.03676 L 138.51897 35.02857 L 138.51915 35.02853 L 138.52234 35.03676 Z M 138.52242 35.19916 L 138.49149 35.16838 L 138.39870 35.20027 L 138.39767 35.10022 L 138.43508 35.07924 L 138.42761 35.01495 L 138.47457 34.96183 L 138.52665 34.99494 L 138.53316 35.01453 L 138.51578 35.02090 L 138.50069 34.98740 L 138.49088 35.02234 L 138.52369 35.04267 L 138.55578 35.09907 L 138.63854 35.11649 L 138.62993 35.13367 L 138.61187 35.12892 L 138.55840 35.15931 L 138.53858 35.15168 L 138.52242 35.19916 Z"><title>静岡県 清水区</title></path>
  <path id="muni_22131" class="municipality" data-n03-code="22131" data-name="中区" data-pref="静岡県" data-pref-code="22" data-team-count="0" data-feature="{&quot;id&quot;: &quot;municipality:22131&quot;, &quot;layerId&quot;: &quot;municipalityOverview&quot;, &quot;kind&quot;: &quot;municipality&quot;, &quot;title&quot;: &quot;中区&quot;, &quot;category&quot;: &quot;municipality&quot;, &quot;n03Code&quot;: &quot;22131&quot;, &quot;prefCode&quot;: &quot;22&quot;, &quot;teamActivityCount&quot;: 0}" d="M 137.73345 34.75394 L 137.69877 34.78344 L 137.68196 34.77635 L 137.70219 34.74876 L 137.68904 34.70317 L 137.72341 34.68049 L 137.76100 34.70346 L 137.75343 34.74084 L 137.73345 34.75394 Z"><title>静岡県 中区</title></path>
  <path id="muni_22132" class="municipality" data-n03-code="22132" data-name="東区" data-pref="静岡県" data-pref-code="22" data-team-count="0" data-feature="{&quot;id&quot;: &quot;municipality:22132&quot;, &quot;layerId&quot;: &quot;municipalityOverview&quot;, &quot;kind&quot;: &quot;municipality&quot;, &quot;title&quot;: &quot;東区&quot;, &quot;category&quot;: &quot;municipality&quot;, &quot;n03Code&quot;: &quot;22132&quot;, &quot;prefCode&quot;: &quot;22&quot;, &quot;teamActivityCount&quot;: 0}" d="M 137.82268 34.77499 L 137.80659 34.78638 L 137.79079 34.77321 L 137.73673 34.77997 L 137.75394 34.70681 L 137.80293 34.71575 L 137.82268 34.77499 Z"><title>静岡県 東区</title></path>
  <path id="muni_22133" class="municipality" data-n03-code="22133" data-name="西区" data-pref="静岡県" data-pref-code="22" data-team-count="0" data-feature="{&quot;id&quot;: &quot;municipality:22133&quot;, &quot;layerId&quot;: &quot;municipalityOverview&quot;, &quot;kind&quot;: &quot;municipality&quot;, &quot;title&quot;: &quot;西区&quot;, &quot;category&quot;: &quot;municipality&quot;, &quot;n03Code&quot;: &quot;22133&quot;, &quot;prefCode&quot;: &quot;22&quot;, &quot;teamActivityCount&quot;: 0}" d="M 137.69877 34.78344 L 137.62113 34.78134 L 137.58763 34.76557 L 137.56591 34.74049 L 137.59864 34.67634 L 137.67677 34.66986 L 137.67242 34.69299 L 137.70013 34.69524 L 137.68780 34.72677 L 137.70219 34.74876 L 137.68080 34.77182 L 137.69877 34.78344 Z"><title>静岡県 西区</title></path>
  <path id="muni_22134" class="municipality" data-n03-code="22134" data-name="南区" data-pref="静岡県" data-pref-code="22" data-team-count="0" data-feature="{&quot;id&quot;: &quot;municipality:22134&quot;, &quot;layerId&quot;: &quot;municipalityOverview&quot;, &quot;kind&quot;: &quot;municipality&quot;, &quot;title&quot;: &quot;南区&quot;, &quot;category&quot;: &quot;municipality&quot;, &quot;n03Code&quot;: &quot;22134&quot;, &quot;prefCode&quot;: &quot;22&quot;, &quot;teamActivityCount&quot;: 0}" d="M 137.80293 34.71575 L 137.77623 34.71160 L 137.78279 34.72064 L 137.72512 34.68040 L 137.71044 34.69550 L 137.67502 34.69508 L 137.67677 34.66986 L 137.79863 34.64634 L 137.78731 34.66641 L 137.80293 34.71575 Z"><title>静岡県 南区</title></path>
  <path id="muni_22135" class="municipality" data-n03-code="22135" data-name="北区" data-pref="静岡県" data-pref-code="22" data-team-count="0" data-feature="{&quot;id&quot;: &quot;municipality:22135&quot;, &quot;layerId&quot;: &quot;municipalityOverview&quot;, &quot;kind&quot;: &quot;municipality&quot;, &quot;title&quot;: &quot;北区&quot;, &quot;category&quot;: &quot;municipality&quot;, &quot;n03Code&quot;: &quot;22135&quot;, &quot;prefCode&quot;: &quot;22&quot;, &quot;teamActivityCount&quot;: 0}" d="M 137.70422 34.96995 L 137.65951 34.94458 L 137.64125 34.89308 L 137.59753 34.87250 L 137.58702 34.85004 L 137.49997 34.83129 L 137.48701 34.81175 L 137.49389 34.78576 L 137.54795 34.76978 L 137.56591 34.74049 L 137.59399 34.77057 L 137.68021 34.78840 L 137.73345 34.75394 L 137.76208 34.83354 L 137.73091 34.84647 L 137.74613 34.89659 L 137.70294 34.93118 L 137.70422 34.96995 Z"><title>静岡県 北区</title></path>
  <path id="muni_22136" class="municipality" data-n03-code="22136" data-name="浜北区" data-pref="静岡県" data-pref-code="22" data-team-count="0" data-feature="{&quot;id&quot;: &quot;municipality:22136&quot;, &quot;layerId&quot;: &quot;municipalityOverview&quot;, &quot;kind&quot;: &quot;municipality&quot;, &quot;title&quot;: &quot;浜北区&quot;, &quot;category&quot;: &quot;municipality&quot;, &quot;n03Code&quot;: &quot;22136&quot;, &quot;prefCode&quot;: &quot;22&quot;, &quot;teamActivityCount&quot;: 0}" d="M 137.82259 34.85557 L 137.80860 34.84028 L 137.80195 34.85530 L 137.78092 34.84814 L 137.74563 34.89446 L 137.73091 34.84647 L 137.76208 34.83354 L 137.73828 34.78035 L 137.79079 34.77321 L 137.80659 34.78638 L 137.82268 34.77499 L 137.82259 34.85557 Z"><title>静岡県 浜北区</title></path>
  <path id="muni_22137" class="municipality" data-n03-code="22137" data-name="天竜区" data-pref="静岡県" data-pref-code="22" data-team-count="0" data-feature="{&quot;id&quot;: &quot;municipality:22137&quot;, &quot;layerId&quot;: &quot;municipalityOverview&quot;, &quot;kind&quot;: &quot;municipality&quot;, &quot;title&quot;: &quot;天竜区&quot;, &quot;category&quot;: &quot;municipality&quot;, &quot;n03Code&quot;: &quot;22137&quot;, &quot;prefCode&quot;: &quot;22&quot;, &quot;teamActivityCount&quot;: 0}" d="M 138.01878 35.30107 L 137.92925 35.27547 L 137.91861 35.25437 L 137.88402 35.24994 L 137.87255 35.21888 L 137.82753 35.21075 L 137.80320 35.18312 L 137.82896 35.15191 L 137.79314 35.13522 L 137.80099 35.10571 L 137.77827 35.09962 L 137.77568 35.07798 L 137.70492 35.01476 L 137.70193 34.93296 L 137.78092 34.84814 L 137.80195 34.85530 L 137.80860 34.84028 L 137.81078 34.85495 L 137.91699 34.89102 L 137.90758 34.92887 L 138.00238 34.96457 L 138.03583 34.99888 L 138.01339 35.02274 L 138.04710 35.03869 L 138.03843 35.06747 L 138.05870 35.10514 L 137.99932 35.14638 L 138.03636 35.21095 L 138.00044 35.26157 L 138.01878 35.30107 Z"><title>静岡県 天竜区</title></path>
  <path id="muni_22203" class="municipality" data-n03-code="22203" data-name="沼津市" data-pref="静岡県" data-pref-code="22" data-team-count="0" data-feature="{&quot;id&quot;: &quot;municipality:22203&quot;, &quot;layerId&quot;: &quot;municipalityOverview&quot;, &quot;kind&quot;: &quot;municipality&quot;, &quot;title&quot;: &quot;沼津市&quot;, &quot;category&quot;: &quot;municipality&quot;, &quot;n03Code&quot;: &quot;22203&quot;, &quot;prefCode&quot;: &quot;22&quot;, &quot;teamActivityCount&quot;: 0}" d="M 138.88652 35.03605 L 138.88596 35.03478 L 138.88596 35.03302 L 138.88638 35.03234 L 138.88805 35.03106 L 138.88940 35.03081 L 138.89049 35.03103 L 138.89040 35.03337 L 138.88866 35.03427 L 138.88652 35.03605 Z M 138.88838 35.11286 L 138.89134 35.13501 L 138.81393 35.21802 L 138.77059 35.18763 L 138.76295 35.16665 L 138.77791 35.16510 L 138.75252 35.13151 L 138.82611 35.10793 L 138.88604 35.04618 L 138.90627 35.04852 L 138.89165 35.01708 L 138.78683 35.02979 L 138.77669 34.97058 L 138.76222 34.97239 L 138.77603 34.93918 L 138.83744 34.94358 L 138.83703 34.97344 L 138.90779 35.00790 L 138.90623 35.05939 L 138.92417 35.07508 L 138.88875 35.07892 L 138.88838 35.11286 Z"><title>静岡県 沼津市</title></path>
  <path id="muni_22205" class="municipality" data-n03-code="22205" data-name="熱海市" data-pref="静岡県" data-pref-code="22" data-team-count="0" data-feature="{&quot;id&quot;: &quot;municipality:22205&quot;, &quot;layerId&quot;: &quot;municipalityOverview&quot;, &quot;kind&quot;: &quot;municipality&quot;, &quot;title&quot;: &quot;熱海市&quot;, &quot;category&quot;: &quot;municipality&quot;, &quot;n03Code&quot;: &quot;22205&quot;, &quot;prefCode&quot;: &quot;22&quot;, &quot;teamActivityCount&quot;: 0}" d="M 139.16966 35.04311 L 139.16968 35.04259 L 139.16740 35.04266 L 139.16555 35.04333 L 139.16426 35.04325 L 139.16418 35.04241 L 139.16504 35.04176 L 139.16651 35.04141 L 139.16715 35.04037 L 139.16686 35.03803 L 139.16738 35.03685 L 139.16796 35.03655 L 139.17079 35.03645 L 139.17235 35.03667 L 139.17546 35.03839 L 139.17655 35.03967 L 139.17474 35.04066 L 139.17330 35.04236 L 139.17205 35.04279 L 139.16984 35.04262 L 139.16966 35.04311 Z M 139.11160 35.14137 L 139.03043 35.14975 L 139.04478 35.12372 L 139.02785 35.08163 L 139.03806 35.03463 L 139.09854 35.03143 L 139.09956 35.04609 L 139.06938 35.05404 L 139.07692 35.09795 L 139.11160 35.14137 Z"><title>静岡県 熱海市</title></path>
  <path id="muni_22206" class="municipality" data-n03-code="22206" data-name="三島市" data-pref="静岡県" data-pref-code="22" data-team-count="0" data-feature="{&quot;id&quot;: &quot;municipality:22206&quot;, &quot;layerId&quot;: &quot;municipalityOverview&quot;, &quot;kind&quot;: &quot;municipality&quot;, &quot;title&quot;: &quot;三島市&quot;, &quot;category&quot;: &quot;municipality&quot;, &quot;n03Code&quot;: &quot;22206&quot;, &quot;prefCode&quot;: &quot;22&quot;, &quot;teamActivityCount&quot;: 0}" d="M 139.01383 35.18237 L 138.92307 35.17105 L 138.90597 35.15189 L 138.90736 35.08324 L 138.92327 35.07554 L 138.94542 35.08983 L 139.01383 35.18237 Z"><title>静岡県 三島市</title></path>
  <path id="muni_22207" class="municipality" data-n03-code="22207" data-name="富士宮市" data-pref="静岡県" data-pref-code="22" data-team-count="0" data-feature="{&quot;id&quot;: &quot;municipality:22207&quot;, &quot;layerId&quot;: &quot;municipalityOverview&quot;, &quot;kind&quot;: &quot;municipality&quot;, &quot;title&quot;: &quot;富士宮市&quot;, &quot;category&quot;: &quot;municipality&quot;, &quot;n03Code&quot;: &quot;22207&quot;, &quot;prefCode&quot;: &quot;22&quot;, &quot;teamActivityCount&quot;: 0}" d="M 138.63896 35.39828 L 138.60914 35.39318 L 138.58189 35.44573 L 138.53183 35.40941 L 138.53509 35.33056 L 138.51209 35.31356 L 138.53227 35.22339 L 138.51828 35.18460 L 138.53858 35.15168 L 138.55600 35.15548 L 138.55838 35.18466 L 138.57634 35.19588 L 138.64464 35.18440 L 138.63200 35.20620 L 138.66422 35.21003 L 138.65903 35.24108 L 138.71773 35.27522 L 138.74140 35.32615 L 138.73078 35.36280 L 138.68054 35.35768 L 138.67118 35.39283 L 138.63896 35.39828 Z"><title>静岡県 富士宮市</title></path>
  <path id="muni_22208" class="municipality" data-n03-code="22208" data-name="伊東市" data-pref="静岡県" data-pref-code="22" data-team-count="0" data-feature="{&quot;id&quot;: &quot;municipality:22208&quot;, &quot;layerId&quot;: &quot;municipalityOverview&quot;, &quot;kind&quot;: &quot;municipality&quot;, &quot;title&quot;: &quot;伊東市&quot;, &quot;category&quot;: &quot;municipality&quot;, &quot;n03Code&quot;: &quot;22208&quot;, &quot;prefCode&quot;: &quot;22&quot;, &quot;teamActivityCount&quot;: 0}" d="M 139.09854 35.03143 L 139.05126 35.03037 L 139.03862 35.00506 L 139.03812 34.99066 L 139.06873 34.97984 L 139.04412 34.93938 L 139.05804 34.90924 L 139.03458 34.88351 L 139.07354 34.85174 L 139.13142 34.87882 L 139.14800 34.93094 L 139.14687 34.95422 L 139.09747 34.97440 L 139.08322 35.00028 L 139.09998 35.00887 L 139.09854 35.03143 Z"><title>静岡県 伊東市</title></path>
  <path id="muni_22209" class="municipality" data-n03-code="22209" data-name="島田市" data-pref="静岡県" data-pref-code="22" data-team-count="0" data-feature="{&quot;id&quot;: &quot;municipality:22209&quot;, &quot;layerId&quot;: &quot;municipalityOverview&quot;, &quot;kind&quot;: &quot;municipality&quot;, &quot;title&quot;: &quot;島田市&quot;, &quot;category&quot;: &quot;municipality&quot;, &quot;n03Code&quot;: &quot;22209&quot;, &quot;prefCode&quot;: &quot;22&quot;, &quot;teamActivityCount&quot;: 0}" d="M 138.19949 35.05014 L 138.18348 35.06428 L 138.15960 35.04722 L 138.14982 35.06122 L 138.10356 34.97701 L 138.08239 34.97251 L 138.05539 35.00109 L 138.01149 34.98111 L 138.01206 34.94044 L 138.05787 34.90644 L 138.04790 34.85922 L 138.09319 34.83961 L 138.12266 34.79290 L 138.12976 34.80740 L 138.14797 34.79091 L 138.15867 34.80159 L 138.23150 34.78604 L 138.23374 34.80233 L 138.25079 34.80293 L 138.21840 34.82487 L 138.23355 34.83921 L 138.21326 34.83718 L 138.19891 34.88070 L 138.15257 34.92188 L 138.19949 35.05014 Z"><title>静岡県 島田市</title></path>
  <path id="muni_22210" class="municipality" data-n03-code="22210" data-name="富士市" data-pref="静岡県" data-pref-code="22" data-team-count="0" data-feature="{&quot;id&quot;: &quot;municipality:22210&quot;, &quot;layerId&quot;: &quot;municipalityOverview&quot;, &quot;kind&quot;: &quot;municipality&quot;, &quot;title&quot;: &quot;富士市&quot;, &quot;category&quot;: &quot;municipality&quot;, &quot;n03Code&quot;: &quot;22210&quot;, &quot;prefCode&quot;: &quot;22&quot;, &quot;teamActivityCount&quot;: 0}" d="M 138.81184 35.22114 L 138.79567 35.22776 L 138.73214 35.35912 L 138.74221 35.32819 L 138.72851 35.29535 L 138.65903 35.24108 L 138.66422 35.21003 L 138.63200 35.20620 L 138.64464 35.18440 L 138.57634 35.19588 L 138.55838 35.18466 L 138.55833 35.15757 L 138.61187 35.12892 L 138.62993 35.13367 L 138.63854 35.11649 L 138.69767 35.13439 L 138.68560 35.14497 L 138.75252 35.13151 L 138.77791 35.16510 L 138.76295 35.16665 L 138.77059 35.18763 L 138.81184 35.22114 Z"><title>静岡県 富士市</title></path>
  <path id="muni_22211" class="municipality" data-n03-code="22211" data-name="磐田市" data-pref="静岡県" data-pref-code="22" data-team-count="0" data-feature="{&quot;id&quot;: &quot;municipality:22211&quot;, &quot;layerId&quot;: &quot;municipalityOverview&quot;, &quot;kind&quot;: &quot;municipality&quot;, &quot;title&quot;: &quot;磐田市&quot;, &quot;category&quot;: &quot;municipality&quot;, &quot;n03Code&quot;: &quot;22211&quot;, &quot;prefCode&quot;: &quot;22&quot;, &quot;teamActivityCount&quot;: 0}" d="M 137.87255 34.82236 L 137.90919 34.89106 L 137.82271 34.85659 L 137.82952 34.78950 L 137.78757 34.66998 L 137.79863 34.64634 L 137.91193 34.66648 L 137.91047 34.69110 L 137.89432 34.69382 L 137.90206 34.73561 L 137.88654 34.77445 L 137.86419 34.77905 L 137.84983 34.80846 L 137.87255 34.82236 Z"><title>静岡県 磐田市</title></path>
  <path id="muni_22212" class="municipality" data-n03-code="22212" data-name="焼津市" data-pref="静岡県" data-pref-code="22" data-team-count="0" data-feature="{&quot;id&quot;: &quot;municipality:22212&quot;, &quot;layerId&quot;: &quot;municipalityOverview&quot;, &quot;kind&quot;: &quot;municipality&quot;, &quot;title&quot;: &quot;焼津市&quot;, &quot;category&quot;: &quot;municipality&quot;, &quot;n03Code&quot;: &quot;22212&quot;, &quot;prefCode&quot;: &quot;22&quot;, &quot;teamActivityCount&quot;: 0}" d="M 138.33750 34.86864 L 138.32943 34.85491 L 138.33750 34.86864 Z M 138.34839 34.89855 L 138.31904 34.91956 L 138.32551 34.90838 L 138.29344 34.89661 L 138.29605 34.87840 L 138.27587 34.86473 L 138.28382 34.82824 L 138.23678 34.81581 L 138.29426 34.76737 L 138.30421 34.77727 L 138.28870 34.78124 L 138.30106 34.77918 L 138.33723 34.82844 L 138.32440 34.87259 L 138.34839 34.89855 Z"><title>静岡県 焼津市</title></path>
  <path id="muni_22213" class="municipality" data-n03-code="22213" data-name="掛川市" data-pref="静岡県" data-pref-code="22" data-team-count="0" data-feature="{&quot;id&quot;: &quot;municipality:22213&quot;, &quot;layerId&quot;: &quot;municipalityOverview&quot;, &quot;kind&quot;: &quot;municipality&quot;, &quot;title&quot;: &quot;掛川市&quot;, &quot;category&quot;: &quot;municipality&quot;, &quot;n03Code&quot;: &quot;22213&quot;, &quot;prefCode&quot;: &quot;22&quot;, &quot;teamActivityCount&quot;: 0}" d="M 138.04192 34.92008 L 138.01064 34.91368 L 137.96183 34.86141 L 137.93751 34.78994 L 137.95736 34.75600 L 138.00964 34.73724 L 137.95252 34.68803 L 137.97017 34.66536 L 138.07825 34.64233 L 138.08685 34.67285 L 138.06910 34.67663 L 138.06682 34.69513 L 138.07872 34.70162 L 138.04374 34.73661 L 138.06190 34.74563 L 138.05418 34.77016 L 138.10230 34.81681 L 138.09319 34.83961 L 138.04790 34.85922 L 138.05787 34.90644 L 138.04192 34.92008 Z"><title>静岡県 掛川市</title></path>
  <path id="muni_22214" class="municipality" data-n03-code="22214" data-name="藤枝市" data-pref="静岡県" data-pref-code="22" data-team-count="0" data-feature="{&quot;id&quot;: &quot;municipality:22214&quot;, &quot;layerId&quot;: &quot;municipalityOverview&quot;, &quot;kind&quot;: &quot;municipality&quot;, &quot;title&quot;: &quot;藤枝市&quot;, &quot;category&quot;: &quot;municipality&quot;, &quot;n03Code&quot;: &quot;22214&quot;, &quot;prefCode&quot;: &quot;22&quot;, &quot;teamActivityCount&quot;: 0}" d="M 138.29203 34.94960 L 138.26061 34.99190 L 138.21503 35.00377 L 138.21524 35.01568 L 138.18403 35.01237 L 138.15257 34.92188 L 138.19891 34.88070 L 138.21326 34.83718 L 138.23355 34.83921 L 138.21840 34.82487 L 138.24462 34.81611 L 138.28382 34.82824 L 138.27587 34.86473 L 138.29605 34.87840 L 138.29344 34.89661 L 138.32749 34.91335 L 138.29203 34.94960 Z"><title>静岡県 藤枝市</title></path>
  <path id="muni_22215" class="municipality" data-n03-code="22215" data-name="御殿場市" data-pref="静岡県" data-pref-code="22" data-team-count="0" data-feature="{&quot;id&quot;: &quot;municipality:22215&quot;, &quot;layerId&quot;: &quot;municipalityOverview&quot;, &quot;kind&quot;: &quot;municipality&quot;, &quot;title&quot;: &quot;御殿場市&quot;, &quot;category&quot;: &quot;municipality&quot;, &quot;n03Code&quot;: &quot;22215&quot;, &quot;prefCode&quot;: &quot;22&quot;, &quot;teamActivityCount&quot;: 0}" d="M 138.99319 35.28489 L 138.96557 35.31091 L 138.97153 35.32978 L 138.89197 35.34633 L 138.90503 35.35386 L 138.88863 35.36197 L 138.88432 35.33299 L 138.73169 35.36014 L 138.79817 35.27320 L 138.82508 35.26376 L 138.87470 35.27986 L 138.92198 35.21521 L 138.97607 35.23555 L 138.99319 35.28489 Z"><title>静岡県 御殿場市</title></path>
  <path id="muni_22216" class="municipality" data-n03-code="22216" data-name="袋井市" data-pref="静岡県" data-pref-code="22" data-team-count="0" data-feature="{&quot;id&quot;: &quot;municipality:22216&quot;, &quot;layerId&quot;: &quot;municipalityOverview&quot;, &quot;kind&quot;: &quot;municipality&quot;, &quot;title&quot;: &quot;袋井市&quot;, &quot;category&quot;: &quot;municipality&quot;, &quot;n03Code&quot;: &quot;22216&quot;, &quot;prefCode&quot;: &quot;22&quot;, &quot;teamActivityCount&quot;: 0}" d="M 137.94100 34.82080 L 137.88441 34.78429 L 137.89086 34.81352 L 137.87255 34.82236 L 137.84983 34.80846 L 137.86419 34.77905 L 137.88654 34.77445 L 137.90206 34.73561 L 137.89432 34.69382 L 137.91047 34.69110 L 137.91193 34.66648 L 137.97017 34.66536 L 137.95252 34.68803 L 138.00964 34.73724 L 137.95736 34.75600 L 137.93751 34.78994 L 137.94100 34.82080 Z"><title>静岡県 袋井市</title></path>
  <path id="muni_22219" class="municipality" data-n03-code="22219" data-name="下田市" data-pref="静岡県" data-pref-code="22" data-team-count="0" data-feature="{&quot;id&quot;: &quot;municipality:22219&quot;, &quot;layerId&quot;: &quot;municipalityOverview&quot;, &quot;kind&quot;: &quot;municipality&quot;, &quot;title&quot;: &quot;下田市&quot;, &quot;category&quot;: &quot;municipality&quot;, &quot;n03Code&quot;: &quot;22219&quot;, &quot;prefCode&quot;: &quot;22&quot;, &quot;teamActivityCount&quot;: 0}" d="M 138.94097 34.57654 L 138.94039 34.57635 L 138.94055 34.57513 L 138.94156 34.57487 L 138.94150 34.57376 L 138.94306 34.57381 L 138.94234 34.57562 L 138.94097 34.57654 Z M 138.96494 34.65268 L 138.96436 34.65224 L 138.96467 34.65105 L 138.96585 34.65172 L 138.96494 34.65268 Z M 138.94739 34.66531 L 138.94566 34.66414 L 138.94574 34.66289 L 138.94739 34.66264 L 138.94811 34.66321 L 138.94739 34.66531 Z M 138.99283 34.71782 L 138.96526 34.72261 L 138.94382 34.76689 L 138.90431 34.77398 L 138.84613 34.71513 L 138.89218 34.69945 L 138.88377 34.68048 L 138.90325 34.66970 L 138.89088 34.64982 L 138.90478 34.62925 L 138.94825 34.67381 L 138.96416 34.67276 L 138.95834 34.65274 L 138.98734 34.65895 L 138.97337 34.69105 L 138.99283 34.71782 Z"><title>静岡県 下田市</title></path>
  <path id="muni_22220" class="municipality" data-n03-code="22220" data-name="裾野市" data-pref="静岡県" data-pref-code="22" data-team-count="0" data-feature="{&quot;id&quot;: &quot;municipality:22220&quot;, &quot;layerId&quot;: &quot;municipalityOverview&quot;, &quot;kind&quot;: &quot;municipality&quot;, &quot;title&quot;: &quot;裾野市&quot;, &quot;category&quot;: &quot;municipality&quot;, &quot;n03Code&quot;: &quot;22220&quot;, &quot;prefCode&quot;: &quot;22&quot;, &quot;teamActivityCount&quot;: 0}" d="M 138.97607 35.23555 L 138.92198 35.21521 L 138.87470 35.27986 L 138.81234 35.26428 L 138.74947 35.33100 L 138.79567 35.22776 L 138.86310 35.19547 L 138.90144 35.14940 L 138.92307 35.17105 L 139.00159 35.18980 L 138.97607 35.23555 Z"><title>静岡県 裾野市</title></path>
  <path id="muni_22221" class="municipality" data-n03-code="22221" data-name="湖西市" data-pref="静岡県" data-pref-code="22" data-team-count="0" data-feature="{&quot;id&quot;: &quot;municipality:22221&quot;, &quot;layerId&quot;: &quot;municipalityOverview&quot;, &quot;kind&quot;: &quot;municipality&quot;, &quot;title&quot;: &quot;湖西市&quot;, &quot;category&quot;: &quot;municipality&quot;, &quot;n03Code&quot;: &quot;22221&quot;, &quot;prefCode&quot;: &quot;22&quot;, &quot;teamActivityCount&quot;: 0}" d="M 137.56591 34.74049 L 137.54215 34.77338 L 137.48203 34.78228 L 137.48496 34.67410 L 137.59777 34.67797 L 137.56591 34.74049 Z"><title>静岡県 湖西市</title></path>
  <path id="muni_22222" class="municipality" data-n03-code="22222" data-name="伊豆市" data-pref="静岡県" data-pref-code="22" data-team-count="0" data-feature="{&quot;id&quot;: &quot;municipality:22222&quot;, &quot;layerId&quot;: &quot;municipalityOverview&quot;, &quot;kind&quot;: &quot;municipality&quot;, &quot;title&quot;: &quot;伊豆市&quot;, &quot;category&quot;: &quot;municipality&quot;, &quot;n03Code&quot;: &quot;22222&quot;, &quot;prefCode&quot;: &quot;22&quot;, &quot;teamActivityCount&quot;: 0}" d="M 139.04722 35.01329 L 138.99372 35.01246 L 138.93820 34.98942 L 138.89004 35.00379 L 138.83703 34.97344 L 138.83744 34.94358 L 138.77603 34.93918 L 138.78927 34.90639 L 138.75661 34.88541 L 138.75428 34.86650 L 138.77884 34.85959 L 138.77899 34.87085 L 138.83089 34.88286 L 138.83975 34.86525 L 138.92205 34.82648 L 138.97668 34.85738 L 139.02083 34.86003 L 139.05804 34.90924 L 139.04412 34.93938 L 139.06883 34.98371 L 139.03812 34.99066 L 139.04722 35.01329 Z"><title>静岡県 伊豆市</title></path>
  <path id="muni_22223" class="municipality" data-n03-code="22223" data-name="御前崎市" data-pref="静岡県" data-pref-code="22" data-team-count="0" data-feature="{&quot;id&quot;: &quot;municipality:22223&quot;, &quot;layerId&quot;: &quot;municipalityOverview&quot;, &quot;kind&quot;: &quot;municipality&quot;, &quot;title&quot;: &quot;御前崎市&quot;, &quot;category&quot;: &quot;municipality&quot;, &quot;n03Code&quot;: &quot;22223&quot;, &quot;prefCode&quot;: &quot;22&quot;, &quot;teamActivityCount&quot;: 0}" d="M 138.20911 34.62174 L 138.22184 34.62247 L 138.20911 34.62174 Z M 138.22831 34.61971 L 138.23372 34.63461 L 138.22831 34.61971 Z M 138.20688 34.62035 L 138.16980 34.62342 L 138.18251 34.66922 L 138.13690 34.70060 L 138.10198 34.65765 L 138.08101 34.65724 L 138.07825 34.64233 L 138.23310 34.59944 L 138.20688 34.62035 Z"><title>静岡県 御前崎市</title></path>
  <path id="muni_22224" class="municipality" data-n03-code="22224" data-name="菊川市" data-pref="静岡県" data-pref-code="22" data-team-count="0" data-feature="{&quot;id&quot;: &quot;municipality:22224&quot;, &quot;layerId&quot;: &quot;municipalityOverview&quot;, &quot;kind&quot;: &quot;municipality&quot;, &quot;title&quot;: &quot;菊川市&quot;, &quot;category&quot;: &quot;municipality&quot;, &quot;n03Code&quot;: &quot;22224&quot;, &quot;prefCode&quot;: &quot;22&quot;, &quot;teamActivityCount&quot;: 0}" d="M 138.13871 34.79353 L 138.10559 34.81329 L 138.05065 34.76497 L 138.06190 34.74563 L 138.04379 34.73593 L 138.07810 34.70297 L 138.06857 34.67774 L 138.08558 34.67684 L 138.08620 34.65998 L 138.10198 34.65765 L 138.11376 34.68605 L 138.14556 34.69763 L 138.13871 34.79353 Z"><title>静岡県 菊川市</title></path>
  <path id="muni_22225" class="municipality" data-n03-code="22225" data-name="伊豆の国市" data-pref="静岡県" data-pref-code="22" data-team-count="0" data-feature="{&quot;id&quot;: &quot;municipality:22225&quot;, &quot;layerId&quot;: &quot;municipalityOverview&quot;, &quot;kind&quot;: &quot;municipality&quot;, &quot;title&quot;: &quot;伊豆の国市&quot;, &quot;category&quot;: &quot;municipality&quot;, &quot;n03Code&quot;: &quot;22225&quot;, &quot;prefCode&quot;: &quot;22&quot;, &quot;teamActivityCount&quot;: 0}" d="M 139.02785 35.08163 L 138.90623 35.05939 L 138.90918 34.99727 L 138.94146 34.98966 L 138.99372 35.01246 L 139.04722 35.01329 L 139.02785 35.08163 Z"><title>静岡県 伊豆の国市</title></path>
  <path id="muni_22226" class="municipality" data-n03-code="22226" data-name="牧之原市" data-pref="静岡県" data-pref-code="22" data-team-count="0" data-feature="{&quot;id&quot;: &quot;municipality:22226&quot;, &quot;layerId&quot;: &quot;municipalityOverview&quot;, &quot;kind&quot;: &quot;municipality&quot;, &quot;title&quot;: &quot;牧之原市&quot;, &quot;category&quot;: &quot;municipality&quot;, &quot;n03Code&quot;: &quot;22226&quot;, &quot;prefCode&quot;: &quot;22&quot;, &quot;teamActivityCount&quot;: 0}" d="M 138.21482 34.62533 L 138.21056 34.63000 L 138.20804 34.62845 L 138.20820 34.62652 L 138.21070 34.62374 L 138.20857 34.62240 L 138.20911 34.62174 L 138.21482 34.62533 Z M 138.22362 34.78663 L 138.13871 34.79353 L 138.14556 34.69763 L 138.18345 34.66670 L 138.16980 34.62342 L 138.20688 34.62035 L 138.19540 34.66465 L 138.25127 34.75767 L 138.22362 34.78663 Z"><title>静岡県 牧之原市</title></path>
  <path id="muni_22301" class="municipality" data-n03-code="22301" data-name="東伊豆町" data-pref="静岡県" data-pref-code="22" data-team-count="0" data-feature="{&quot;id&quot;: &quot;municipality:22301&quot;, &quot;layerId&quot;: &quot;municipalityOverview&quot;, &quot;kind&quot;: &quot;municipality&quot;, &quot;title&quot;: &quot;東伊豆町&quot;, &quot;category&quot;: &quot;municipality&quot;, &quot;n03Code&quot;: &quot;22301&quot;, &quot;prefCode&quot;: &quot;22&quot;, &quot;teamActivityCount&quot;: 0}" d="M 139.08265 34.85269 L 139.03458 34.88351 L 139.02083 34.86003 L 138.96118 34.84986 L 139.02576 34.76423 L 139.04851 34.76867 L 139.08265 34.85269 Z"><title>静岡県 東伊豆町</title></path>
  <path id="muni_22302" class="municipality" data-n03-code="22302" data-name="河津町" data-pref="静岡県" data-pref-code="22" data-team-count="0" data-feature="{&quot;id&quot;: &quot;municipality:22302&quot;, &quot;layerId&quot;: &quot;municipalityOverview&quot;, &quot;kind&quot;: &quot;municipality&quot;, &quot;title&quot;: &quot;河津町&quot;, &quot;category&quot;: &quot;municipality&quot;, &quot;n03Code&quot;: &quot;22302&quot;, &quot;prefCode&quot;: &quot;22&quot;, &quot;teamActivityCount&quot;: 0}" d="M 139.02576 34.76423 L 138.96628 34.84174 L 138.88381 34.82898 L 138.87629 34.78187 L 138.94382 34.76689 L 138.94012 34.75231 L 138.97112 34.71904 L 138.99283 34.71782 L 138.99766 34.74283 L 139.02576 34.76423 Z"><title>静岡県 河津町</title></path>
  <path id="muni_22304" class="municipality" data-n03-code="22304" data-name="南伊豆町" data-pref="静岡県" data-pref-code="22" data-team-count="0" data-feature="{&quot;id&quot;: &quot;municipality:22304&quot;, &quot;layerId&quot;: &quot;municipalityOverview&quot;, &quot;kind&quot;: &quot;municipality&quot;, &quot;title&quot;: &quot;南伊豆町&quot;, &quot;category&quot;: &quot;municipality&quot;, &quot;n03Code&quot;: &quot;22304&quot;, &quot;prefCode&quot;: &quot;22&quot;, &quot;teamActivityCount&quot;: 0}" d="M 138.82302 34.60755 L 138.82260 34.60639 L 138.82529 34.60390 L 138.82472 34.60601 L 138.82302 34.60755 Z M 138.85150 34.70767 L 138.81191 34.70157 L 138.77369 34.71594 L 138.73941 34.69113 L 138.78967 34.66952 L 138.77599 34.64117 L 138.84346 34.60095 L 138.89042 34.63446 L 138.90478 34.62925 L 138.89088 34.64982 L 138.90325 34.66970 L 138.88377 34.68048 L 138.89218 34.69945 L 138.85150 34.70767 Z"><title>静岡県 南伊豆町</title></path>
  <path id="muni_22305" class="municipality" data-n03-code="22305" data-name="松崎町" data-pref="静岡県" data-pref-code="22" data-team-count="0" data-feature="{&quot;id&quot;: &quot;municipality:22305&quot;, &quot;layerId&quot;: &quot;municipalityOverview&quot;, &quot;kind&quot;: &quot;municipality&quot;, &quot;title&quot;: &quot;松崎町&quot;, &quot;category&quot;: &quot;municipality&quot;, &quot;n03Code&quot;: &quot;22305&quot;, &quot;prefCode&quot;: &quot;22&quot;, &quot;teamActivityCount&quot;: 0}" d="M 138.87640 34.78874 L 138.84955 34.78197 L 138.84987 34.80056 L 138.83581 34.79991 L 138.83985 34.78870 L 138.77734 34.76394 L 138.73930 34.72662 L 138.74070 34.70031 L 138.77724 34.71626 L 138.81191 34.70157 L 138.85150 34.70767 L 138.85908 34.73737 L 138.89713 34.77168 L 138.87640 34.78874 Z"><title>静岡県 松崎町</title></path>
  <path id="muni_22306" class="municipality" data-n03-code="22306" data-name="西伊豆町" data-pref="静岡県" data-pref-code="22" data-team-count="0" data-feature="{&quot;id&quot;: &quot;municipality:22306&quot;, &quot;layerId&quot;: &quot;municipalityOverview&quot;, &quot;kind&quot;: &quot;municipality&quot;, &quot;title&quot;: &quot;西伊豆町&quot;, &quot;category&quot;: &quot;municipality&quot;, &quot;n03Code&quot;: &quot;22306&quot;, &quot;prefCode&quot;: &quot;22&quot;, &quot;teamActivityCount&quot;: 0}" d="M 138.75610 34.78161 L 138.75636 34.78315 L 138.75548 34.78286 L 138.75610 34.78161 Z M 138.75946 34.78393 L 138.75673 34.78261 L 138.75750 34.78156 L 138.75918 34.78264 L 138.75946 34.78393 Z M 138.75579 34.80643 L 138.75436 34.80552 L 138.75427 34.80473 L 138.75538 34.80431 L 138.75579 34.80643 Z M 138.89267 34.83510 L 138.83331 34.88221 L 138.77899 34.87085 L 138.76016 34.84225 L 138.76915 34.82300 L 138.75116 34.82070 L 138.76584 34.80930 L 138.75254 34.80040 L 138.76315 34.77058 L 138.79220 34.76645 L 138.84491 34.80198 L 138.84955 34.78197 L 138.87640 34.78874 L 138.89267 34.83510 Z"><title>静岡県 西伊豆町</title></path>
  <path id="muni_22325" class="municipality" data-n03-code="22325" data-name="函南町" data-pref="静岡県" data-pref-code="22" data-team-count="0" data-feature="{&quot;id&quot;: &quot;municipality:22325&quot;, &quot;layerId&quot;: &quot;municipalityOverview&quot;, &quot;kind&quot;: &quot;municipality&quot;, &quot;title&quot;: &quot;函南町&quot;, &quot;category&quot;: &quot;municipality&quot;, &quot;n03Code&quot;: &quot;22325&quot;, &quot;prefCode&quot;: &quot;22&quot;, &quot;teamActivityCount&quot;: 0}" d="M 139.02653 35.17543 L 139.01383 35.18237 L 138.91308 35.06244 L 139.03323 35.08398 L 139.04478 35.12372 L 139.02653 35.17543 Z"><title>静岡県 函南町</title></path>
  <path id="muni_22341" class="municipality" data-n03-code="22341" data-name="清水町" data-pref="静岡県" data-pref-code="22" data-team-count="0" data-feature="{&quot;id&quot;: &quot;municipality:22341&quot;, &quot;layerId&quot;: &quot;municipalityOverview&quot;, &quot;kind&quot;: &quot;municipality&quot;, &quot;title&quot;: &quot;清水町&quot;, &quot;category&quot;: &quot;municipality&quot;, &quot;n03Code&quot;: &quot;22341&quot;, &quot;prefCode&quot;: &quot;22&quot;, &quot;teamActivityCount&quot;: 0}" d="M 138.90736 35.08324 L 138.90653 35.11921 L 138.89081 35.11816 L 138.88875 35.07892 L 138.90736 35.08324 Z"><title>静岡県 清水町</title></path>
  <path id="muni_22342" class="municipality" data-n03-code="22342" data-name="長泉町" data-pref="静岡県" data-pref-code="22" data-team-count="0" data-feature="{&quot;id&quot;: &quot;municipality:22342&quot;, &quot;layerId&quot;: &quot;municipalityOverview&quot;, &quot;kind&quot;: &quot;municipality&quot;, &quot;title&quot;: &quot;長泉町&quot;, &quot;category&quot;: &quot;municipality&quot;, &quot;n03Code&quot;: &quot;22342&quot;, &quot;prefCode&quot;: &quot;22&quot;, &quot;teamActivityCount&quot;: 0}" d="M 138.90543 35.14861 L 138.86310 35.19547 L 138.81184 35.22114 L 138.89134 35.13501 L 138.88838 35.11286 L 138.91152 35.12985 L 138.90543 35.14861 Z"><title>静岡県 長泉町</title></path>
  <path id="muni_22344" class="municipality" data-n03-code="22344" data-name="小山町" data-pref="静岡県" data-pref-code="22" data-team-count="0" data-feature="{&quot;id&quot;: &quot;municipality:22344&quot;, &quot;layerId&quot;: &quot;municipalityOverview&quot;, &quot;kind&quot;: &quot;municipality&quot;, &quot;title&quot;: &quot;小山町&quot;, &quot;category&quot;: &quot;municipality&quot;, &quot;n03Code&quot;: &quot;22344&quot;, &quot;prefCode&quot;: &quot;22&quot;, &quot;teamActivityCount&quot;: 0}" d="M 139.01853 35.32985 L 138.99528 35.40333 L 138.73078 35.36280 L 138.88432 35.33299 L 138.88863 35.36197 L 138.90503 35.35386 L 138.89197 35.34633 L 138.97153 35.32978 L 138.96557 35.31091 L 138.99319 35.28489 L 139.01853 35.32985 Z"><title>静岡県 小山町</title></path>
  <path id="muni_22424" class="municipality" data-n03-code="22424" data-name="吉田町" data-pref="静岡県" data-pref-code="22" data-team-count="0" data-feature="{&quot;id&quot;: &quot;municipality:22424&quot;, &quot;layerId&quot;: &quot;municipalityOverview&quot;, &quot;kind&quot;: &quot;municipality&quot;, &quot;title&quot;: &quot;吉田町&quot;, &quot;category&quot;: &quot;municipality&quot;, &quot;n03Code&quot;: &quot;22424&quot;, &quot;prefCode&quot;: &quot;22&quot;, &quot;teamActivityCount&quot;: 0}" d="M 138.29426 34.76737 L 138.25079 34.80293 L 138.22362 34.78663 L 138.25142 34.75923 L 138.24571 34.74073 L 138.29426 34.76737 Z"><title>静岡県 吉田町</title></path>
  <path id="muni_22429" class="municipality" data-n03-code="22429" data-name="川根本町" data-pref="静岡県" data-pref-code="22" data-team-count="0" data-feature="{&quot;id&quot;: &quot;municipality:22429&quot;, &quot;layerId&quot;: &quot;municipalityOverview&quot;, &quot;kind&quot;: &quot;municipality&quot;, &quot;title&quot;: &quot;川根本町&quot;, &quot;category&quot;: &quot;municipality&quot;, &quot;n03Code&quot;: &quot;22429&quot;, &quot;prefCode&quot;: &quot;22&quot;, &quot;teamActivityCount&quot;: 0}" d="M 138.08748 35.33800 L 138.06134 35.34720 L 138.02606 35.32021 L 138.00044 35.26157 L 138.03636 35.21095 L 137.99843 35.15586 L 138.01131 35.12781 L 138.05870 35.10514 L 138.03843 35.06747 L 138.04710 35.03869 L 138.01339 35.02274 L 138.03583 34.99888 L 138.07135 34.99682 L 138.08889 34.97233 L 138.14982 35.06122 L 138.15960 35.04722 L 138.18348 35.06428 L 138.20006 35.05055 L 138.20957 35.07069 L 138.18873 35.09358 L 138.18366 35.13641 L 138.23981 35.17648 L 138.21457 35.20377 L 138.18349 35.19280 L 138.20264 35.23985 L 138.17780 35.25995 L 138.14574 35.25628 L 138.13724 35.28375 L 138.08296 35.32482 L 138.08748 35.33800 Z"><title>静岡県 川根本町</title></path>
  <path id="muni_22461" class="municipality" data-n03-code="22461" data-name="森町" data-pref="静岡県" data-pref-code="22" data-team-count="0" data-feature="{&quot;id&quot;: &quot;municipality:22461&quot;, &quot;layerId&quot;: &quot;municipalityOverview&quot;, &quot;kind&quot;: &quot;municipality&quot;, &quot;title&quot;: &quot;森町&quot;, &quot;category&quot;: &quot;municipality&quot;, &quot;n03Code&quot;: &quot;22461&quot;, &quot;prefCode&quot;: &quot;22&quot;, &quot;teamActivityCount&quot;: 0}" d="M 138.04192 34.92008 L 138.01206 34.94044 L 138.00996 34.97562 L 137.90758 34.92887 L 137.92013 34.89325 L 137.87280 34.83713 L 137.87430 34.81752 L 137.89086 34.81352 L 137.88441 34.78429 L 137.92115 34.79772 L 138.01064 34.91368 L 138.04192 34.92008 Z"><title>静岡県 森町</title></path>
</svg>
