<?xml version="1.0" encoding="UTF-8"?>
<svg xmlns="http://www.w3.org/2000/svg"
     viewBox="12243.4 -4605.6 3205.3 2251.0"
     pointer-events="none">
  <globalCoordinateSystem srsName="http://purl.org/crs/84" transform="matrix(100,0,0,-100,0,0)" />

  <g id="hazard-flood" fill="#3b82f6" fill-opacity="0.28" stroke="#1d4ed8" stroke-opacity="0.70" stroke-width="0.10" pointer-events="none">

  </g>
  <g id="hazard-tsunami-inundation" fill="#a855f7" fill-opacity="0.28" stroke="#7e22ce" stroke-opacity="0.70" stroke-width="0.10" pointer-events="none">
    <path d="M 14004.42 -3565.97 L 14004.43 -3565.89 L 14004.40 -3565.97 L 14004.42 -3565.97 Z M 14004.61 -3565.73 L 14004.45 -3565.80 L 14004.52 -3565.82 L 14004.43 -3565.86 L 14004.50 -3565.86 L 14004.46 -3565.90 L 14004.54 -3565.91 L 14004.46 -3566.01 L 14004.61 -3566.05 L 14004.54 -3565.98 L 14004.61 -3565.91 L 14004.71 -3565.97 L 14004.59 -3565.76 L 14004.61 -3565.73 Z M 14004.83 -3566.07 L 14004.92 -3566.02 L 14004.84 -3565.97 L 14004.83 -3566.05 L 14004.83 -3566.07 Z M 14004.66 -3566.12 L 14004.73 -3566.05 L 14004.83 -3566.07 L 14004.74 -3566.02 L 14004.65 -3566.11 L 14004.66 -3566.12 Z M 14004.71 -3566.17 L 14004.76 -3566.13 L 14004.62 -3566.15 L 14004.72 -3566.18 L 14004.71 -3566.17 Z M 14004.70 -3566.35 L 14004.65 -3566.27 L 14004.68 -3566.35 L 14004.70 -3566.35 Z M 14001.00 -3568.27 L 14000.97 -3568.22 L 14000.91 -3568.32 L 14001.01 -3568.28 L 14001.00 -3568.27 Z M 14000.87 -3568.34 L 14000.88 -3568.28 L 14000.80 -3568.32 L 14000.87 -3568.36 L 14000.87 -3568.34 Z M 14000.78 -3568.38 L 14000.70 -3568.35 L 14000.72 -3568.44 L 14000.77 -3568.39 L 14000.78 -3568.38 Z M 14000.68 -3568.40 L 14000.59 -3568.39 L 14000.62 -3568.45 L 14000.67 -3568.40 L 14000.68 -3568.40 Z M 13999.38 -3569.92 L 13999.36 -3569.87 L 13999.37 -3569.92 L 13999.38 -3569.92 Z M 13999.40 -3570.34 L 13999.36 -3570.22 L 13999.28 -3570.23 L 13999.28 -3570.32 L 13999.38 -3570.34 L 13999.40 -3570.34 Z M 13998.88 -3570.47 L 13998.78 -3570.44 L 13998.90 -3570.42 L 13998.84 -3570.36 L 13998.75 -3570.51 L 13998.88 -3570.49 L 13998.88 -3570.47 Z M 14004.43 -3565.83 L 14004.37 -3565.87 L 14004.43 -3565.82 L 14004.43 -3565.83 Z M 14004.47 -3565.92 L 14004.43 -3565.87 L 14004.46 -3565.92 L 14004.47 -3565.92 Z M 14004.38 -3565.95 L 14004.43 -3565.89 L 14004.37 -3565.95 L 14004.38 -3565.95 Z M 14004.50 -3565.93 L 14004.42 -3565.96 L 14004.53 -3565.98 L 14004.50 -3565.94 L 14004.50 -3565.93 Z M 14004.65 -3566.14 L 14004.78 -3566.07 L 14004.64 -3566.14 L 14004.65 -3566.14 Z M 14000.69 -3568.35 L 14000.60 -3568.39 L 14000.72 -3568.41 L 14000.70 -3568.36 L 14000.69 -3568.35 Z M 13999.37 -3569.97 L 13999.31 -3570.02 L 13999.41 -3570.05 L 13999.38 -3569.97 L 13999.37 -3569.97 Z M 13999.39 -3570.05 L 13999.33 -3570.05 L 13999.39 -3570.06 L 13999.39 -3570.05 Z M 13999.35 -3570.19 L 13999.18 -3570.16 L 13999.11 -3570.24 L 13999.35 -3570.21 L 13999.35 -3570.19 Z M 13999.20 -3570.31 L 13999.36 -3570.34 L 13999.28 -3570.26 L 13999.20 -3570.29 L 13999.20 -3570.31 Z M 13999.27 -3570.34 L 13999.14 -3570.30 L 13999.26 -3570.34 L 13999.27 -3570.34 Z M 13999.21 -3570.36 L 13999.15 -3570.41 L 13999.21 -3570.37 L 13999.21 -3570.36 Z M 13998.90 -3570.30 L 13998.90 -3570.41 L 13998.97 -3570.37 L 13998.92 -3570.30 L 13998.90 -3570.30 Z M 13999.40 -3570.74 L 13999.35 -3570.74 L 13999.40 -3570.75 L 13999.40 -3570.74 Z M 14004.36 -3565.89 L 14004.31 -3565.89 L 14004.36 -3565.90 L 14004.36 -3565.89 Z M 14004.67 -3566.25 L 14004.58 -3566.22 L 14004.67 -3566.26 L 14004.67 -3566.25 Z M 13999.28 -3569.77 L 13999.28 -3570.07 L 13999.38 -3569.97 L 13999.29 -3569.78 L 13999.28 -3569.77 Z M 13999.10 -3570.31 L 13999.11 -3570.41 L 13999.28 -3570.34 L 13999.13 -3570.34 L 13999.26 -3570.24 L 13999.10 -3570.29 L 13999.10 -3570.31 Z M 13999.04 -3570.44 L 13998.98 -3570.44 L 13999.04 -3570.45 L 13999.04 -3570.44 Z M 13998.96 -3570.46 L 13998.93 -3570.40 L 13999.00 -3570.39 L 13998.93 -3570.38 L 13998.88 -3570.43 L 13998.95 -3570.47 L 13998.96 -3570.46 Z M 13999.53 -3570.69 L 13999.59 -3570.69 L 13999.53 -3570.68 L 13999.53 -3570.69 Z M 13999.18 -3570.70 L 13999.18 -3570.65 L 13999.17 -3570.70 L 13999.18 -3570.70 Z M 14004.76 -3565.60 L 14004.70 -3565.63 L 14004.76 -3565.61 L 14004.76 -3565.60 Z M 14004.55 -3565.73 L 14004.49 -3565.76 L 14004.55 -3565.74 L 14004.55 -3565.73 Z M 14004.49 -3565.77 L 14004.42 -3565.80 L 14004.49 -3565.78 L 14004.49 -3565.77 Z M 13999.09 -3570.30 L 13999.18 -3570.15 L 13998.94 -3570.16 L 13999.03 -3570.35 L 13999.08 -3570.31 L 13999.09 -3570.30 Z" />
  </g>
  <g id="hazard-landslide-warning" fill="#f97316" fill-opacity="0.22" stroke="#c2410c" stroke-opacity="0.80" stroke-width="0.10" pointer-events="none">
    <path d="M 14003.78 -3569.29 L 14003.54 -3569.27 L 14003.78 -3569.29 L 14003.78 -3569.29 Z M 14003.91 -3569.33 L 14004.06 -3569.49 L 14003.92 -3569.34 L 14003.91 -3569.33 Z M 14002.52 -3567.83 L 14002.60 -3567.99 L 14002.53 -3567.84 L 14002.52 -3567.83 Z M 14006.56 -3569.02 L 14006.49 -3569.00 L 14006.56 -3569.02 L 14006.56 -3569.02 Z M 14006.62 -3569.03 L 14006.58 -3568.90 L 14006.63 -3569.01 L 14006.56 -3569.02 L 14006.61 -3569.03 L 14006.62 -3569.03 Z M 14006.74 -3569.07 L 14006.76 -3569.13 L 14006.74 -3569.07 L 14006.74 -3569.07 Z M 14006.74 -3568.94 L 14006.76 -3569.01 L 14006.73 -3568.94 L 14006.74 -3568.94 Z M 14006.51 -3569.35 L 14006.46 -3569.34 L 14006.51 -3569.35 L 14006.51 -3569.35 Z M 14006.78 -3569.24 L 14006.70 -3569.24 L 14006.78 -3569.24 L 14006.78 -3569.24 Z M 14006.46 -3568.30 L 14006.47 -3568.36 L 14006.47 -3568.31 L 14006.46 -3568.30 Z M 14006.50 -3568.14 L 14006.48 -3568.00 L 14006.51 -3568.15 L 14006.50 -3568.14 Z M 14003.17 -3569.26 L 14003.08 -3569.23 L 14003.16 -3569.30 L 14003.17 -3569.26 L 14003.17 -3569.26 Z M 14002.81 -3569.04 L 14002.70 -3568.95 L 14002.81 -3569.04 L 14002.81 -3569.04 Z M 14003.06 -3569.12 L 14002.97 -3569.10 L 14003.05 -3569.19 L 14003.06 -3569.13 L 14003.06 -3569.12 Z M 14003.93 -3569.32 L 14003.89 -3569.35 L 14004.04 -3569.50 L 14004.07 -3569.45 L 14003.93 -3569.33 L 14003.93 -3569.32 Z M 14003.78 -3569.30 L 14003.57 -3569.25 L 14003.54 -3569.27 L 14003.75 -3569.30 L 14003.78 -3569.30 Z M 14006.16 -3569.11 L 14006.11 -3569.12 L 14006.15 -3569.13 L 14006.16 -3569.11 Z M 14005.95 -3569.18 L 14006.01 -3569.17 L 14005.97 -3569.14 L 14005.93 -3569.17 L 14005.95 -3569.18 Z M 14002.51 -3567.83 L 14002.51 -3567.92 L 14002.59 -3568.00 L 14002.52 -3567.83 L 14002.51 -3567.83 Z M 14003.05 -3567.23 L 14002.91 -3567.30 L 14002.92 -3567.35 L 14003.05 -3567.23 L 14003.05 -3567.23 Z M 14006.49 -3568.74 L 14006.44 -3568.66 L 14006.41 -3568.72 L 14006.57 -3568.87 L 14006.61 -3568.87 L 14006.60 -3568.81 L 14006.52 -3568.76 L 14006.49 -3568.74 Z M 14006.56 -3569.01 L 14006.49 -3568.99 L 14006.56 -3569.02 L 14006.56 -3569.01 Z M 14006.63 -3569.04 L 14006.65 -3568.96 L 14006.59 -3568.90 L 14006.62 -3569.01 L 14006.56 -3569.04 L 14006.60 -3569.04 L 14006.63 -3569.04 Z M 14006.45 -3569.03 L 14006.41 -3569.04 L 14006.45 -3569.03 L 14006.45 -3569.03 Z M 14006.72 -3568.78 L 14006.59 -3568.68 L 14006.57 -3568.70 L 14006.71 -3568.79 L 14006.72 -3568.78 Z M 14006.76 -3569.08 L 14006.79 -3569.03 L 14006.75 -3569.01 L 14006.70 -3569.09 L 14006.75 -3569.15 L 14006.75 -3569.08 L 14006.76 -3569.08 Z M 14006.75 -3568.94 L 14006.72 -3568.99 L 14006.78 -3569.00 L 14006.75 -3568.94 L 14006.75 -3568.94 Z M 14006.50 -3569.36 L 14006.46 -3569.33 L 14006.50 -3569.36 L 14006.50 -3569.36 Z M 14006.77 -3569.23 L 14006.68 -3569.18 L 14006.67 -3569.22 L 14006.78 -3569.24 L 14006.77 -3569.23 Z M 14006.47 -3568.29 L 14006.43 -3568.30 L 14006.47 -3568.37 L 14006.48 -3568.30 L 14006.47 -3568.29 Z M 14006.61 -3568.24 L 14006.56 -3568.24 L 14006.60 -3568.29 L 14006.61 -3568.25 L 14006.61 -3568.24 Z M 14006.54 -3568.14 L 14006.50 -3568.01 L 14006.44 -3568.01 L 14006.46 -3568.12 L 14006.54 -3568.15 L 14006.54 -3568.14 Z M 14005.30 -3567.95 L 14005.44 -3567.97 L 14005.31 -3567.94 L 14005.30 -3567.95 Z M 14005.62 -3568.19 L 14005.68 -3568.23 L 14005.69 -3568.10 L 14005.63 -3568.17 L 14005.62 -3568.19 Z M 14005.47 -3568.36 L 14005.59 -3568.45 L 14005.48 -3568.36 L 14005.47 -3568.36 Z M 14005.45 -3568.00 L 14005.57 -3568.02 L 14005.46 -3567.98 L 14005.45 -3568.00 Z M 14004.74 -3568.49 L 14004.78 -3568.49 L 14004.74 -3568.48 L 14004.74 -3568.49 Z M 14005.25 -3568.15 L 14005.33 -3568.09 L 14005.26 -3568.13 L 14005.25 -3568.15 Z M 14003.48 -3569.17 L 14003.54 -3569.17 L 14003.49 -3569.17 L 14003.48 -3569.17 Z M 14005.25 -3568.15 L 14005.45 -3568.27 L 14005.27 -3568.15 L 14005.25 -3568.15 Z M 14003.40 -3569.10 L 14003.44 -3569.10 L 14003.40 -3569.08 L 14003.40 -3569.10 Z M 14003.35 -3569.03 L 14003.39 -3569.06 L 14003.36 -3569.03 L 14003.35 -3569.03 Z M 14006.22 -3568.16 L 14006.33 -3568.10 L 14006.22 -3568.15 L 14006.22 -3568.16 Z M 14005.07 -3568.00 L 14005.10 -3568.06 L 14005.13 -3568.01 L 14005.09 -3568.00 L 14005.07 -3568.00 Z M 14005.06 -3568.11 L 14005.12 -3568.10 L 14005.06 -3568.11 L 14005.06 -3568.11 Z M 14004.96 -3568.16 L 14004.99 -3568.20 L 14005.06 -3568.16 L 14004.97 -3568.16 L 14004.96 -3568.16 Z M 14004.72 -3568.24 L 14004.76 -3568.27 L 14004.89 -3568.19 L 14004.72 -3568.23 L 14004.72 -3568.24 Z" />
  </g>
  <g id="hazard-landslide-special" fill="#ef4444" fill-opacity="0.35" stroke="#991b1b" stroke-opacity="0.90" stroke-width="0.12" pointer-events="none">
    <path d="M 14005.31 -3567.95 L 14005.44 -3567.97 L 14005.31 -3567.94 L 14005.31 -3567.95 Z M 14005.49 -3568.35 L 14005.57 -3568.43 L 14005.50 -3568.35 L 14005.49 -3568.35 Z M 14006.24 -3568.16 L 14006.32 -3568.09 L 14006.24 -3568.16 L 14006.24 -3568.16 Z" />
  </g>
</svg>
